<svg width="752" height="17" viewBox="0 0 752 17" fill="none" xmlns="http://www.w3.org/2000/svg">
<path d="M81 11H671" stroke="#E6F85A" stroke-miterlimit="10"/>
<path d="M88.3301 8L91.3301 14L90.3301 16.43H83.3301L81.3301 14L73.3301 14L72.3301 16H67.4001L60.3301 6L42.9401 6L40.3301 8L17.3301 8L15.8701 6L37.3301 6L40.3301 1L44.3301 1L46.3301 3L58.3301 3L59.3301 1L65.3301 1L69.3301 8L88.3301 8Z" fill="#E6F85A" stroke="#E6F85A" stroke-miterlimit="10"/>
<path d="M15.87 6L5.68 6L1 10.68" stroke="#E6F85A" stroke-miterlimit="10"/>
<path d="M664 8L661 14L662 16.43H669L671 14H679L680 16L684.93 16L692 6L709.39 6L712 8L735 8L736.46 6L715 6L712 1L708 1L706 3L694 3L693 1L687 1L683 8L664 8Z" fill="#E6F85A" stroke="#E6F85A" stroke-miterlimit="10"/>
<path d="M736.46 6L746.65 6L751.33 10.68" stroke="#E6F85A" stroke-miterlimit="10"/>
</svg>
