<svg width="246" height="52" viewBox="0 0 246 52" fill="none" xmlns="http://www.w3.org/2000/svg">
<g filter="url(#filter0_f_3449_7828)">
<path d="M29.5319 46L7 6H209.123L219.137 16.4348H235.827L240 25.1304L229.986 46H29.5319Z" stroke="#E0FF4E" stroke-width="3"/>
</g>
<path d="M29.5319 46L7 6H209.123L219.137 16.4348H235.827L240 25.1304L229.986 46H29.5319Z" stroke="#E0FF4E"/>
<path d="M79.4689 31.16C77.7302 31.16 76.3435 30.8293 75.3089 30.168C74.2849 29.5067 73.7462 28.5787 73.6929 27.384H75.8529C75.9062 28.3653 76.2262 29.0747 76.8129 29.512C77.4102 29.9493 78.2849 30.168 79.4369 30.168C80.3862 30.168 81.0849 30.0027 81.5329 29.672C81.9809 29.3413 82.2049 28.8507 82.2049 28.2C82.2049 27.848 82.1249 27.544 81.9649 27.288C81.8049 27.032 81.4902 26.7973 81.0209 26.584C80.5622 26.3707 79.8849 26.1787 78.9889 26.008C77.5809 25.7307 76.3915 25.336 75.4209 24.824C74.4609 24.312 73.9809 23.56 73.9809 22.568C73.9809 20.6267 75.7462 19.656 79.2769 19.656C81.0049 19.656 82.3062 19.944 83.1809 20.52C84.0662 21.0853 84.5515 21.8427 84.6369 22.792H82.5089C82.3595 22.0133 82.0075 21.464 81.4529 21.144C80.8982 20.8133 80.1409 20.648 79.1809 20.648C78.3382 20.648 77.7089 20.792 77.2929 21.08C76.8875 21.368 76.6849 21.736 76.6849 22.184C76.6849 22.4293 76.7542 22.648 76.8929 22.84C77.0422 23.032 77.3355 23.224 77.7729 23.416C78.2209 23.5973 78.8715 23.784 79.7249 23.976C80.9302 24.2427 81.8849 24.5093 82.5889 24.776C83.2929 25.0427 83.8582 25.4267 84.2849 25.928C84.7115 26.4187 84.9249 27.0747 84.9249 27.896C84.9249 28.5787 84.6955 29.1653 84.2369 29.656C83.7889 30.1467 83.1542 30.52 82.3329 30.776C81.5115 31.032 80.5569 31.16 79.4689 31.16ZM87.5401 19.8H90.2601V31H87.5401V19.8ZM99.4568 31.16C98.1128 31.16 96.9394 30.9307 95.9368 30.472C94.9448 30.0027 94.1768 29.336 93.6328 28.472C93.0994 27.608 92.8328 26.5893 92.8328 25.416C92.8328 24.2427 93.0994 23.224 93.6328 22.36C94.1768 21.496 94.9501 20.8293 95.9528 20.36C96.9554 19.8907 98.1394 19.656 99.5048 19.656C100.571 19.656 101.515 19.8107 102.337 20.12C103.158 20.4293 103.819 20.872 104.321 21.448C104.822 22.0133 105.126 22.6907 105.233 23.48H103.105C102.923 22.5627 102.523 21.864 101.905 21.384C101.297 20.8933 100.513 20.648 99.5528 20.648C98.3048 20.648 97.3288 21.064 96.6248 21.896C95.9314 22.728 95.5848 23.896 95.5848 25.4C95.5848 26.8933 95.9261 28.0613 96.6088 28.904C97.3021 29.7467 98.2568 30.168 99.4728 30.168C100.006 30.168 100.486 30.1147 100.913 30.008C101.339 29.8907 101.798 29.6933 102.289 29.416V25.992H98.4488V25.064H104.993V29.432C104.427 29.9653 103.643 30.3867 102.641 30.696C101.649 31.0053 100.587 31.16 99.4568 31.16ZM112.911 31.16C110.767 31.16 109.279 30.7227 108.447 29.848C107.625 28.9627 107.215 27.7893 107.215 26.328V19.8H109.935V26.696C109.935 27.752 110.143 28.5947 110.559 29.224C110.975 29.8533 111.759 30.168 112.911 30.168C114.02 30.168 114.788 29.864 115.215 29.256C115.652 28.648 115.871 27.7947 115.871 26.696V19.8H118.591V26.328C118.591 27.7893 118.18 28.9627 117.359 29.848C116.537 30.7227 115.055 31.16 112.911 31.16ZM121.462 19.8H124.182V31H121.462V19.8ZM127.043 19.8H137.395V20.792H129.763V24.504H136.515V25.496H129.763V30.008H137.395V31H127.043V19.8ZM138.965 19.8H141.637L147.365 27.368V19.8H149.925V31H148.101L141.525 22.2V31H138.965V19.8ZM155.83 20.792H151.19V19.8H163.174V20.792H158.534V31H155.83V20.792ZM164.433 19.8H174.785V20.792H167.153V24.504H173.905V25.496H167.153V30.008H174.785V31H164.433V19.8Z" fill="#F4FABF"/>
<defs>
<filter id="filter0_f_3449_7828" x="0.433594" y="0.5" width="245.23" height="51" filterUnits="userSpaceOnUse" color-interpolation-filters="sRGB">
<feFlood flood-opacity="0" result="BackgroundImageFix"/>
<feBlend mode="normal" in="SourceGraphic" in2="BackgroundImageFix" result="shape"/>
<feGaussianBlur stdDeviation="2" result="effect1_foregroundBlur_3449_7828"/>
</filter>
</defs>
</svg>
