<svg width="97" height="16" viewBox="0 0 97 16" fill="none" xmlns="http://www.w3.org/2000/svg">
<path d="M10.3461 8.356L10.6995 8.00266L10.3464 7.64911L6.3513 3.64911L5.99753 3.2949L5.64376 3.64911L1.6487 7.64911L1.29558 8.00266L1.64892 8.356L5.64398 12.3511L5.99753 12.7046L6.35108 12.3511L10.3461 8.356Z" stroke="#E6F85A"/>
<path d="M23.2151 12.12C21.7431 12.12 20.6151 11.748 19.8311 11.004C19.0471 10.252 18.6551 9.172 18.6551 7.764C18.6551 6.388 19.0431 5.332 19.8191 4.596C20.6031 3.852 21.7271 3.48 23.1911 3.48C24.4071 3.48 25.3831 3.724 26.1191 4.212C26.8551 4.7 27.2911 5.392 27.4271 6.288H26.1671C26.0391 5.6 25.7191 5.068 25.2071 4.692C24.6951 4.308 24.0431 4.116 23.2511 4.116C22.2591 4.116 21.4991 4.428 20.9711 5.052C20.4431 5.676 20.1791 6.58 20.1791 7.764C20.1791 8.964 20.4431 9.884 20.9711 10.524C21.5071 11.164 22.2711 11.484 23.2631 11.484C24.0551 11.484 24.7031 11.296 25.2071 10.92C25.7191 10.544 26.0391 10.008 26.1671 9.312H27.4271C27.2991 10.208 26.8631 10.9 26.1191 11.388C25.3831 11.876 24.4151 12.12 23.2151 12.12ZM31.9537 12.12C31.2497 12.12 30.6337 11.996 30.1057 11.748C29.5857 11.492 29.1817 11.136 28.8937 10.68C28.6137 10.216 28.4737 9.676 28.4737 9.06C28.4737 8.444 28.6137 7.908 28.8937 7.452C29.1817 6.988 29.5857 6.632 30.1057 6.384C30.6337 6.128 31.2497 6 31.9537 6C32.6577 6 33.2737 6.128 33.8017 6.384C34.3297 6.632 34.7377 6.988 35.0257 7.452C35.3137 7.908 35.4577 8.444 35.4577 9.06C35.4577 9.676 35.3137 10.216 35.0257 10.68C34.7377 11.136 34.3297 11.492 33.8017 11.748C33.2737 11.996 32.6577 12.12 31.9537 12.12ZM31.9537 11.58C32.6177 11.58 33.1417 11.356 33.5257 10.908C33.9177 10.46 34.1137 9.844 34.1137 9.06C34.1137 8.276 33.9177 7.66 33.5257 7.212C33.1417 6.764 32.6177 6.54 31.9537 6.54C31.2897 6.54 30.7657 6.764 30.3817 7.212C29.9977 7.66 29.8057 8.276 29.8057 9.06C29.8057 9.844 29.9977 10.46 30.3817 10.908C30.7657 11.356 31.2897 11.58 31.9537 11.58ZM37.1582 3.804H38.4902V12H37.1582V3.804ZM43.6842 12.12C42.9802 12.12 42.3642 11.996 41.8361 11.748C41.3161 11.492 40.9121 11.136 40.6241 10.68C40.3441 10.216 40.2041 9.676 40.2041 9.06C40.2041 8.444 40.3441 7.908 40.6241 7.452C40.9121 6.988 41.3161 6.632 41.8361 6.384C42.3642 6.128 42.9802 6 43.6842 6C44.3882 6 45.0042 6.128 45.5322 6.384C46.0602 6.632 46.4682 6.988 46.7562 7.452C47.0442 7.908 47.1882 8.444 47.1882 9.06C47.1882 9.676 47.0442 10.216 46.7562 10.68C46.4682 11.136 46.0602 11.492 45.5322 11.748C45.0042 11.996 44.3882 12.12 43.6842 12.12ZM43.6842 11.58C44.3482 11.58 44.8722 11.356 45.2562 10.908C45.6482 10.46 45.8442 9.844 45.8442 9.06C45.8442 8.276 45.6482 7.66 45.2562 7.212C44.8722 6.764 44.3482 6.54 43.6842 6.54C43.0202 6.54 42.4962 6.764 42.1121 7.212C41.7282 7.66 41.5362 8.276 41.5362 9.06C41.5362 9.844 41.7282 10.46 42.1121 10.908C42.4962 11.356 43.0202 11.58 43.6842 11.58ZM48.6007 6.12H49.9327V7.128C50.1167 6.784 50.4047 6.512 50.7967 6.312C51.1967 6.104 51.6447 6 52.1407 6C52.9167 6 53.5287 6.204 53.9767 6.612C54.4327 7.012 54.6607 7.556 54.6607 8.244V12H53.3287V8.136C53.3287 7.616 53.1967 7.22 52.9327 6.948C52.6767 6.676 52.3007 6.54 51.8047 6.54C51.2367 6.54 50.7807 6.732 50.4367 7.116C50.1007 7.5 49.9327 8.012 49.9327 8.652V12H48.6007V6.12ZM57.0944 5.436C56.8224 5.436 56.5984 5.36 56.4224 5.208C56.2544 5.048 56.1704 4.844 56.1704 4.596C56.1704 4.348 56.2544 4.148 56.4224 3.996C56.5984 3.836 56.8224 3.756 57.0944 3.756C57.3664 3.756 57.5864 3.836 57.7544 3.996C57.9304 4.148 58.0184 4.348 58.0184 4.596C58.0184 4.844 57.9304 5.048 57.7544 5.208C57.5864 5.36 57.3664 5.436 57.0944 5.436ZM56.4344 6.12H57.7544V12H56.4344V6.12ZM63.5029 6.66H59.5789L59.7589 6.12H65.2069L60.8749 11.46H65.1229L64.9309 12H59.1589L63.5029 6.66ZM68.6463 12.12C67.8383 12.12 67.2263 11.964 66.8103 11.652C66.4023 11.34 66.1983 10.896 66.1983 10.32C66.1983 9.704 66.4423 9.236 66.9303 8.916C67.4263 8.588 68.1463 8.424 69.0903 8.424H70.7823V8.004C70.7823 7.532 70.6423 7.172 70.3623 6.924C70.0823 6.668 69.6783 6.54 69.1503 6.54C68.6463 6.54 68.2423 6.66 67.9383 6.9C67.6343 7.14 67.4543 7.484 67.3983 7.932H66.3903C66.4703 7.308 66.7583 6.832 67.2543 6.504C67.7503 6.168 68.4143 6 69.2463 6C70.1743 6 70.8823 6.184 71.3703 6.552C71.8583 6.92 72.1023 7.448 72.1023 8.136V10.056C72.1023 10.76 72.1623 11.408 72.2823 12H71.0463C70.9583 11.648 70.9023 11.328 70.8783 11.04C70.6383 11.408 70.3263 11.68 69.9423 11.856C69.5583 12.032 69.1263 12.12 68.6463 12.12ZM68.9463 11.604C69.4823 11.604 69.9223 11.436 70.2663 11.1C70.6103 10.764 70.7823 10.344 70.7823 9.84V8.952H69.4623C68.1663 8.952 67.5183 9.404 67.5183 10.308C67.5183 10.74 67.6383 11.064 67.8783 11.28C68.1263 11.496 68.4823 11.604 68.9463 11.604ZM73.8183 6.12H75.1383V7.368C75.2903 6.928 75.5303 6.592 75.8583 6.36C76.1863 6.12 76.5903 6 77.0703 6C77.2703 6 77.4063 6.016 77.4783 6.048L77.3703 6.912C77.2503 6.848 77.0823 6.816 76.8663 6.816C76.3063 6.816 75.8783 7.048 75.5823 7.512C75.2863 7.976 75.1383 8.548 75.1383 9.228V12H73.8183V6.12Z" fill="#F4FABF"/>
</svg>
