<svg width="120" height="21" viewBox="0 0 120 21" fill="none" xmlns="http://www.w3.org/2000/svg">
<path d="M97 10V21H32L42 8H65L67 10H97Z" fill="#4D542F" fill-opacity="0.45"/>
<path d="M10 21L13 18H23L25 21H10Z" fill="#4D542F" fill-opacity="0.45"/>
<path fill-rule="evenodd" clip-rule="evenodd" d="M100 6H72L68 0H61.5L59 3H43L42 0H34L29 9H4L-3.72529e-08 17L1 21H10L13 18H23L25 21H32L42 8H65L67 10H97L100 7H112.793L119.146 13.3536C119.342 13.5488 119.658 13.5488 119.854 13.3536C120.049 13.1583 120.049 12.8417 119.854 12.6464L113.207 6H101H100Z" fill="#E6F85A"/>
</svg>
