<svg width="120" height="21" viewBox="0 0 120 21" fill="none" xmlns="http://www.w3.org/2000/svg">
<path d="M23 10V21H88L78 8H55L53 10H23Z" fill="#4D542F" fill-opacity="0.45"/>
<path d="M110 21L107 18H97L95 21H110Z" fill="#4D542F" fill-opacity="0.45"/>
<path fill-rule="evenodd" clip-rule="evenodd" d="M20 6H48L52 0H58.5L61 3H77L78 0H86L91 9H116L120 17L119 21H110L107 18H97L95 21H88L78 8H55L53 10H23L20 7H7.20711L0.853553 13.3536C0.658291 13.5488 0.341709 13.5488 0.146447 13.3536C-0.0488155 13.1583 -0.0488155 12.8417 0.146447 12.6464L6.79289 6H19H20Z" fill="#E6F85A"/>
</svg>
