<svg width="40" height="40" viewBox="0 0 40 40" fill="none" xmlns="http://www.w3.org/2000/svg">
<path d="M27.9999 20.0117C27.9999 20.0117 27.9999 22.3295 27.6911 23.4471C27.5181 24.0588 27.0115 24.5412 26.369 24.7058C25.1952 25 20.5001 25 20.5001 25C20.5001 25 15.8172 25 14.6311 24.6941C13.9886 24.5295 13.482 24.047 13.309 23.4352C13 22.3295 13 20 13 20C13 20 13 17.6824 13.309 16.5648C13.4819 15.953 14.0009 15.4588 14.6311 15.2942C15.8049 15 20.5001 15 20.5001 15C20.5001 15 25.1952 15 26.369 15.3059C27.0115 15.4705 27.5181 15.953 27.6911 16.5648C28.0124 17.6824 27.9999 20.0117 27.9999 20.0117Z" fill="#E6F85A"/>
<path d="M19 22L23 20L19 18V22Z" fill="black"/>
<circle cx="20" cy="20" r="19.5" stroke="#E6F85A"/>
</svg>
