<svg width="40" height="40" viewBox="0 0 40 40" fill="none" xmlns="http://www.w3.org/2000/svg">
<path d="M28.0556 16.4874C28.0631 16.639 28.0667 16.7912 28.0667 16.9442C28.0667 21.6144 24.1458 26.9998 16.9753 27C14.7738 27 12.7252 26.415 11 25.4124C11.305 25.4451 11.6155 25.4613 11.9298 25.4613C13.7563 25.4613 15.4372 24.8965 16.7716 23.9484C15.0651 23.9197 13.6262 22.8979 13.1297 21.4936C13.3674 21.535 13.6117 21.5575 13.8623 21.5575C14.2182 21.5575 14.5628 21.514 14.8904 21.433C13.1066 21.1092 11.7629 19.68 11.7629 17.9686C11.7629 17.9526 11.7629 17.9383 11.7635 17.9235C12.2888 18.1883 12.8895 18.3476 13.5291 18.3654C12.4824 17.7322 11.7943 16.6498 11.7943 15.4236C11.7943 14.776 11.9874 14.1694 12.3222 13.6471C14.2446 15.7856 17.1175 17.1921 20.3575 17.3398C20.2906 17.0809 20.2561 16.8112 20.2561 16.534C20.2561 14.5829 22.002 13 24.1548 13C25.2762 13 26.2889 13.4297 27.0003 14.1167C27.8884 13.9579 28.7224 13.6637 29.4757 13.2589C29.1842 14.0838 28.5664 14.776 27.7614 15.2137C28.55 15.1282 29.3016 14.9386 30 14.6571C29.4783 15.366 28.8167 15.9886 28.0556 16.4874Z" fill="#E6F85A"/>
<circle cx="20" cy="20" r="19.5" stroke="#E6F85A"/>
</svg>
