<svg width="40" height="40" viewBox="0 0 40 40" fill="none" xmlns="http://www.w3.org/2000/svg">
<path d="M16.4055 27H13.19V17.5538H16.4055V27ZM14.7978 16.2639H14.7769C13.6979 16.2639 13 15.5386 13 14.6322C13 13.7052 13.7192 13 14.8192 13C15.9192 13 16.5961 13.7052 16.617 14.6322C16.617 15.5386 15.9192 16.2639 14.7978 16.2639ZM28 27H24.7849V21.9465C24.7849 20.6765 24.3193 19.8104 23.1559 19.8104C22.2676 19.8104 21.7386 20.3946 21.5061 20.9586C21.4211 21.1604 21.4003 21.4425 21.4003 21.7248V27H18.185C18.185 27 18.2271 18.44 18.185 17.5538H21.4003V18.8913C21.8276 18.2476 22.5922 17.3321 24.2981 17.3321C26.4137 17.3321 28 18.6822 28 21.5836V27Z" fill="#E6F85A"/>
<circle cx="20" cy="20" r="19.5" stroke="#E6F85A"/>
</svg>
