<svg width="32" height="32" viewBox="0 0 32 32" fill="none" xmlns="http://www.w3.org/2000/svg">
<path d="M6.36507 32C2.85491 32 0 29.1451 0 25.6349V6.36507C0 2.85491 2.85491 0 6.36507 0H25.6349C29.1451 0 32 2.85491 32 6.36507V25.6349C32 29.1451 29.1451 32 25.6349 32H6.36507ZM6.36507 0.817062C3.3051 0.817062 0.817062 3.3051 0.817062 6.36507V25.6349C0.817062 28.6949 3.3067 31.1829 6.36507 31.1829H25.6349C28.6949 31.1829 31.1829 28.6949 31.1829 25.6349V6.36507C31.1829 3.3051 28.6949 0.817062 25.6349 0.817062H6.36507Z" fill="#F4FABF"/>
<path d="M16.0001 21.1972C12.1391 21.1972 8.99902 18.0571 8.99902 14.1961C8.99902 10.3351 12.1391 7.19498 16.0001 7.19498C19.8611 7.19498 23.0012 10.3351 23.0012 14.1961C23.0012 18.0571 19.8611 21.1972 16.0001 21.1972ZM16.0001 8.01204C12.5909 8.01204 9.81609 10.7868 9.81609 14.1961C9.81609 17.6053 12.5909 20.3801 16.0001 20.3801C19.4094 20.3801 22.1842 17.6053 22.1842 14.1961C22.1842 10.7868 19.411 8.01204 16.0001 8.01204Z" fill="#F4FABF"/>
<path d="M14.286 17.6886C14.2187 17.6886 14.153 17.6726 14.0953 17.6406C13.9607 17.5701 13.8774 17.4307 13.8774 17.2801V11.1137C13.8774 10.9647 13.9591 10.8269 14.0905 10.7548C14.1498 10.7228 14.2187 10.7051 14.286 10.7051C14.3645 10.7051 14.4414 10.7276 14.5071 10.7708L19.1675 13.7795C19.2829 13.8532 19.3534 13.9798 19.355 14.1176C19.355 14.2554 19.2893 14.3835 19.1755 14.4604L14.5167 17.6181C14.4494 17.663 14.3693 17.6886 14.2876 17.6886H14.286ZM14.6945 16.5095L18.2047 14.1304L14.6945 11.8634V16.5095Z" fill="#F4FABF"/>
<path d="M23.6795 29.1307C22.6798 29.1307 21.7875 28.4578 21.5087 27.4965L21.4462 27.2802H3.889C3.66311 27.2802 3.48047 27.0976 3.48047 26.8717C3.48047 26.6458 3.66311 26.4632 3.889 26.4632H21.4462L21.5087 26.2469C21.7859 25.2824 22.6798 24.6096 23.6795 24.6096C24.6792 24.6096 25.5732 25.2841 25.8519 26.2469L25.9144 26.4632H27.3835C27.6094 26.4632 27.7921 26.6458 27.7921 26.8717C27.7921 27.0976 27.6094 27.2802 27.3835 27.2802H25.9128L25.8503 27.4965C25.5716 28.4594 24.6792 29.1307 23.6795 29.1307ZM23.6795 25.425C22.8833 25.425 22.236 26.0723 22.236 26.8701C22.236 27.6679 22.8833 28.3136 23.6795 28.3136C24.4758 28.3136 25.123 27.6663 25.123 26.8701C25.123 26.0739 24.4758 25.425 23.6795 25.425Z" fill="#F4FABF"/>
</svg>
