<svg width="68" height="84" viewBox="0 0 68 84" fill="none" xmlns="http://www.w3.org/2000/svg">
<path d="M56.8437 31.0997H52.2477V18.8575C52.2477 14.0482 50.3372 9.43586 46.9365 6.03517C43.5358 2.63449 38.9235 0.723999 34.1142 0.723999C29.3049 0.723999 24.6926 2.63449 21.2919 6.03517C17.8912 9.43586 15.9807 14.0482 15.9807 18.8575V31.0997H11.3847C8.61437 31.0997 5.9575 32.2002 3.99858 34.1591C2.03966 36.118 0.939148 38.7749 0.939148 41.5452V73.3415C0.946866 76.1094 2.04985 78.7618 4.0071 80.7191C5.96435 82.6763 8.61674 83.7793 11.3847 83.787H56.8437C59.6117 83.7793 62.2641 82.6763 64.2213 80.7191C66.1786 78.7618 67.2816 76.1094 67.2893 73.3415V41.5452C67.2893 38.7749 66.1888 36.118 64.2299 34.1591C62.2709 32.2002 59.6141 31.0997 56.8437 31.0997ZM20.159 18.8575C20.159 15.1563 21.6292 11.6067 24.2464 8.98962C26.8635 6.3725 30.4131 4.90222 34.1142 4.90222C37.8154 4.90222 41.365 6.3725 43.9821 8.98962C46.5992 11.6067 48.0695 15.1563 48.0695 18.8575V31.0997H20.159V18.8575ZM63.1111 73.3415C63.1001 75.0003 62.4363 76.5881 61.2633 77.7611C60.0903 78.934 58.5026 79.5979 56.8437 79.6088H11.3847C9.72588 79.5979 8.13812 78.934 6.96513 77.7611C5.79214 76.5881 5.12832 75.0003 5.11737 73.3415V41.5452C5.11737 39.883 5.77768 38.2889 6.95303 37.1135C8.12838 35.9382 9.7225 35.2779 11.3847 35.2779H56.8437C58.5059 35.2779 60.1001 35.9382 61.2754 37.1135C62.4508 38.2889 63.1111 39.883 63.1111 41.5452V73.3415Z" fill="#E6F85A"/>
<path d="M38.2924 54.5808C38.2966 55.3117 38.105 56.0304 37.7377 56.6622C37.3703 57.2941 36.8405 57.8161 36.2033 58.1741V64.4414C36.2033 64.9955 35.9832 65.5269 35.5914 65.9186C35.1996 66.3104 34.6682 66.5305 34.1142 66.5305C33.5601 66.5305 33.0287 66.3104 32.6369 65.9186C32.2452 65.5269 32.0251 64.9955 32.0251 64.4414V58.1741C31.3878 57.8161 30.858 57.2941 30.4907 56.6622C30.1233 56.0304 29.9318 55.3117 29.9359 54.5808C29.9359 53.4727 30.3762 52.4099 31.1597 51.6264C31.9433 50.8428 33.006 50.4026 34.1142 50.4026C35.2223 50.4026 36.285 50.8428 37.0686 51.6264C37.8522 52.4099 38.2924 53.4727 38.2924 54.5808Z" fill="#E6F85A"/>
</svg>
