<svg width="71" height="89" viewBox="0 0 71 89" fill="none" xmlns="http://www.w3.org/2000/svg">
<path d="M59.249 32.7706H54.4001V19.855C54.4001 14.7811 52.3846 9.91509 48.7968 6.32733C45.2091 2.73958 40.343 0.723999 35.2692 0.723999C30.1953 0.723999 25.3293 2.73958 21.7415 6.32733C18.1538 9.91509 16.1382 14.7811 16.1382 19.855V32.7706H11.2893C8.36659 32.7706 5.56357 33.9316 3.49689 35.9983C1.43021 38.065 0.269165 40.868 0.269165 43.7907V77.3361C0.277308 80.2563 1.44097 83.0546 3.50589 85.1195C5.5708 87.1844 8.36909 88.3481 11.2893 88.3562H59.249C62.1692 88.3481 64.9675 87.1844 67.0324 85.1195C69.0974 83.0546 70.261 80.2563 70.2692 77.3361V43.7907C70.2692 40.868 69.1081 38.065 67.0414 35.9983C64.9748 33.9316 62.1717 32.7706 59.249 32.7706ZM20.5462 19.855C20.5462 15.9502 22.0974 12.2054 24.8585 9.4443C27.6196 6.68322 31.3644 5.13206 35.2692 5.13206C39.1739 5.13206 42.9188 6.68322 45.6798 9.4443C48.4409 12.2054 49.9921 15.9502 49.9921 19.855V32.7706H20.5462V19.855ZM65.8611 77.3361C65.8496 79.0862 65.1492 80.7613 63.9117 81.9988C62.6742 83.2363 60.9991 83.9366 59.249 83.9482H11.2893C9.53925 83.9366 7.86414 83.2363 6.62663 81.9988C5.38912 80.7613 4.68878 79.0862 4.67723 77.3361V43.7907C4.67723 42.0371 5.37386 40.3553 6.61386 39.1153C7.85387 37.8753 9.53568 37.1787 11.2893 37.1787H59.249C61.0026 37.1787 62.6845 37.8753 63.9245 39.1153C65.1645 40.3553 65.8611 42.0371 65.8611 43.7907V77.3361Z" fill="#E6F85A"/>
<path d="M39.6772 57.5434C39.6816 58.3145 39.4795 59.0727 39.0919 59.7393C38.7043 60.406 38.1454 60.9567 37.4731 61.3344V67.9465C37.4731 68.531 37.2409 69.0916 36.8276 69.5049C36.4142 69.9183 35.8536 70.1505 35.2691 70.1505C34.6845 70.1505 34.1239 69.9183 33.7106 69.5049C33.2973 69.0916 33.0651 68.531 33.0651 67.9465V61.3344C32.3928 60.9567 31.8338 60.406 31.4463 59.7393C31.0587 59.0727 30.8566 58.3145 30.861 57.5434C30.861 56.3743 31.3255 55.2531 32.1521 54.4265C32.9788 53.5998 34.1 53.1354 35.2691 53.1354C36.4382 53.1354 37.5594 53.5998 38.3861 54.4265C39.2127 55.2531 39.6772 56.3743 39.6772 57.5434Z" fill="#E6F85A"/>
</svg>
