<svg width="102" height="60" viewBox="0 0 102 60" fill="none" xmlns="http://www.w3.org/2000/svg">
<path d="M82.9231 54.7102H19.0769L6 32.0253L19.0769 9.34033H82.9231L96 32.0253L82.9231 54.7102Z" stroke="#C5DF4B" stroke-miterlimit="10"/>
<path d="M21.7841 51.5243L10.3279 32.049L21.7841 12.5737H80.0185L91.4748 32.049L80.0185 51.5243H21.7841Z" fill="#E6F85A" fill-opacity="0.15" stroke="#C5DF4B" stroke-miterlimit="10"/>
<path d="M14.1693 17.8851L12.1462 14.2555L15.8923 6.43671L19.3693 6.48965L19.6693 5.7486L44.2616 6.50477L45.0154 5.00756C45.0154 5.00756 47.2846 5.02268 49.7616 5.02268C52.7077 5.02268 55.9539 5 55.9539 5L56.5769 6.49721L81.9539 5.73348L82.7462 6.46696L86.6539 6.40647L91.0616 14.4369L88.3077 18.3917" stroke="#C5DF4B" stroke-width="2" stroke-miterlimit="10"/>
<g filter="url(#filter0_f_3410_267)">
<path d="M82.9231 54.7102H19.0769L6 32.0253L19.0769 9.34033H82.9231L96 32.0253L82.9231 54.7102Z" stroke="#C5DF4B" stroke-width="2" stroke-miterlimit="10"/>
<path d="M14.1693 17.8851L12.1462 14.2555L15.8923 6.43671L19.3693 6.48965L19.6693 5.7486L44.2616 6.50477L45.0154 5.00756C45.0154 5.00756 47.2846 5.02268 49.7616 5.02268C52.7077 5.02268 55.9539 5 55.9539 5L56.5769 6.49721L81.9539 5.73348L82.7462 6.46696L86.6539 6.40647L91.0616 14.4369L88.3077 18.3917" stroke="#C5DF4B" stroke-width="2" stroke-miterlimit="10"/>
</g>
<path d="M60.2431 24.6499C60.6414 24.6499 61.0469 24.6478 61.4523 24.6499C61.8798 24.6528 62.0235 24.7954 62.0242 25.2283C62.0264 26.1863 62.0256 27.1443 62.0242 28.1023C62.0242 28.604 61.8962 28.7303 61.3933 28.7325C61.0056 28.7339 60.6172 28.7325 60.2253 28.7325C60.216 28.8105 60.2075 28.8538 60.2068 28.8964C60.1883 29.9665 61.0042 30.7784 62.1153 30.7805C64.5907 30.7847 67.0661 30.7819 69.5415 30.7819C70.2244 30.7819 70.908 30.794 71.5908 30.7776C72.6849 30.7514 73.5157 29.804 73.3649 28.7325C72.9736 28.7325 72.5774 28.7339 72.1805 28.7325C71.7139 28.7303 71.5766 28.5941 71.5759 28.13C71.5745 27.172 71.5745 26.214 71.5759 25.256C71.5766 24.7869 71.711 24.6521 72.1741 24.6499C72.571 24.6485 72.9672 24.6499 73.3571 24.6499C73.4303 24.2518 73.4182 23.8821 73.335 23.555C73.1067 22.6558 72.3434 22.0818 71.3525 22.1463C71.2622 22.152 71.1704 22.1634 71.0765 22.1804C71.0901 22.3464 71.1135 22.5125 71.1142 22.6786C71.1178 23.6898 71.1171 24.701 71.1142 25.7123C71.1142 25.8265 71.1093 25.9443 71.0851 26.0557C70.9357 26.7441 70.3979 27.1464 69.6212 27.1479C67.7404 27.15 65.859 27.1493 63.9782 27.1479C63.8545 27.1479 63.73 27.1379 63.6076 27.1188C63.0087 27.0244 62.5037 26.5056 62.4937 25.9003C62.4731 24.6613 62.4873 23.4215 62.4873 22.1761C61.0291 21.9121 59.9543 23.0561 60.2416 24.6513L60.2431 24.6499Z" fill="#F4FABF"/>
<path d="M63.9526 26.2523C65.8505 26.2545 67.749 26.2545 69.6468 26.2523C70.0423 26.2523 70.208 26.0778 70.2087 25.6825C70.2087 24.7075 70.2087 23.7317 70.2087 22.7567C70.2087 22.2777 70.0757 22.1407 69.5949 22.1393C68.6723 22.1372 67.7497 22.1386 66.8278 22.1393C65.8697 22.1393 64.9122 22.1357 63.9541 22.1407C63.5386 22.1428 63.3928 22.2961 63.3928 22.702C63.3928 23.6948 63.3928 24.6883 63.3928 25.6811C63.3928 26.0771 63.5586 26.2516 63.9533 26.2523H63.9526Z" fill="#F4FABF"/>
<path d="M74.2298 33.5275C73.6594 33.4892 73.0839 33.5176 72.5027 33.5176V35.7522C72.5433 35.7643 72.5682 35.7778 72.5924 35.7778C73.0711 35.7799 73.5498 35.787 74.0285 35.7792C74.5912 35.7692 74.9568 35.4095 74.981 34.8481C74.9888 34.6629 74.9881 34.4749 74.9646 34.2911C74.912 33.8866 74.6282 33.5545 74.2298 33.5275V33.5275Z" fill="#F4FABF"/>
<path d="M61.0981 27.8071V25.5682C60.5162 25.5682 59.9507 25.5447 59.388 25.5753C58.9264 25.6008 58.6248 26.0188 58.617 26.5588C58.6056 27.3217 58.8446 27.7595 59.3667 27.7971C59.9365 27.8383 60.5112 27.8064 61.0981 27.8064V27.8071Z" fill="#F4FABF"/>
<path d="M59.3247 35.5045C59.9016 35.5897 60.4998 35.523 61.1044 35.523C61.1087 35.452 61.1151 35.3917 61.1158 35.3321C61.1165 34.6608 61.1158 33.9895 61.1158 33.2883C60.5197 33.2883 59.9627 33.2685 59.4072 33.2947C58.9612 33.316 58.6454 33.7162 58.6169 34.2109C58.5721 34.9971 58.7585 35.4208 59.3247 35.5045V35.5045Z" fill="#F4FABF"/>
<path d="M74.2718 25.5895C73.6885 25.5335 73.0953 25.5767 72.4992 25.5767V27.8164C73.0704 27.8164 73.6096 27.832 74.148 27.8114C74.6239 27.7929 74.9511 27.4197 74.9824 26.9116C75.0301 26.1359 74.7968 25.6399 74.2711 25.5895H74.2718Z" fill="#F4FABF"/>
<path d="M78.1505 25.6747C78.1463 24.4754 77.6803 23.4529 76.8517 22.5914C75.5428 21.2317 73.879 21.1366 72.0715 21.2778C72.6861 21.4254 73.1577 21.6851 73.5532 22.084C73.6052 22.1365 73.7133 22.1492 73.7965 22.1535C75.7327 22.255 77.2358 23.8041 77.2436 25.7578C77.2578 29.103 77.2557 32.4475 77.2436 35.7927C77.2379 37.2283 76.5465 38.2722 75.2974 38.9492C74.7141 39.2657 74.0832 39.4126 73.3847 39.4041V36.6897C72.9643 36.6897 72.5745 36.6904 72.1839 36.6897C71.7244 36.6883 71.5772 36.5435 71.5765 36.0858C71.5743 35.1455 71.5758 34.2046 71.5765 33.2643C71.5765 32.7136 71.6953 32.5972 72.2494 32.5965C72.6264 32.5965 73.0034 32.5965 73.369 32.5965V31.0254C72.7139 31.5718 71.9833 31.6981 71.1966 31.6953C68.2055 31.6818 65.2151 31.6903 62.224 31.6889C62.0383 31.6889 61.8512 31.679 61.667 31.6584C61.1363 31.5995 60.6726 31.3745 60.2273 31.0311V32.3744C60.6363 32.3744 61.0254 32.3737 61.4145 32.3744C61.8939 32.3758 62.0248 32.5071 62.0255 32.9946C62.0269 33.9441 62.0269 34.8936 62.0255 35.8424C62.0248 36.3193 61.8847 36.4577 61.4052 36.4598C61.0168 36.4612 60.6285 36.4598 60.2038 36.4598V39.4246C59.9634 39.3998 59.7606 39.3842 59.56 39.3579C57.7305 39.1195 56.3648 37.6286 56.3584 35.8169C56.3456 32.4539 56.3434 29.0916 56.3584 25.7287C56.3669 23.7984 57.8792 22.2536 59.8055 22.1521C59.8887 22.1478 59.9968 22.1358 60.0494 22.0825C60.4456 21.6859 60.9158 21.4233 61.5197 21.2792C60.7558 21.2792 60.048 21.1962 59.3659 21.2941C57.0171 21.6348 55.4493 23.4898 55.445 25.8621C55.4393 29.1356 55.4429 32.4099 55.445 35.6834C55.445 35.9226 55.4479 36.1646 55.4849 36.3995C55.7964 38.3566 57.2226 39.8284 59.1766 40.2088C59.5124 40.2741 59.8545 40.3039 60.2059 40.3521C60.2059 40.7488 60.2052 41.1384 60.2059 41.5287C60.2095 42.9913 61.1598 43.9479 62.6202 43.9493C65.4071 43.9514 68.1941 43.9507 70.9804 43.9479C71.1746 43.9479 71.3737 43.9429 71.5622 43.9039C72.657 43.6761 73.3747 42.7834 73.3925 41.6345C73.3989 41.203 73.3939 40.7708 73.3939 40.3514C73.7695 40.3003 74.1138 40.2712 74.4502 40.2045C76.5934 39.7788 78.1327 38.0061 78.1477 35.8687C78.1719 32.4709 78.1612 29.0725 78.1498 25.674L78.1505 25.6747Z" fill="#F4FABF"/>
<defs>
<filter id="filter0_f_3410_267" x="0.845734" y="-0.00463867" width="100.309" height="59.7148" filterUnits="userSpaceOnUse" color-interpolation-filters="sRGB">
<feFlood flood-opacity="0" result="BackgroundImageFix"/>
<feBlend mode="normal" in="SourceGraphic" in2="BackgroundImageFix" result="shape"/>
<feGaussianBlur stdDeviation="2" result="effect1_foregroundBlur_3410_267"/>
</filter>
</defs>
</svg>
