<svg width="324" height="324" viewBox="0 0 324 324" fill="none" xmlns="http://www.w3.org/2000/svg">
<g opacity="0.9">
<path d="M76.6686 22.8319L76.4159 22.4024C101.219 7.74661 129.66 0 158.665 0C176.999 0 194.979 3.03583 212.115 9.02087L211.949 9.49014C194.868 3.52316 176.941 0.498151 158.665 0.498151C129.751 0.498151 101.396 8.21949 76.6686 22.8319Z" fill="white"/>
<path d="M3.4801 117.639L3 117.502C10.8296 89.8838 25.9908 64.7452 46.8481 44.8047L47.1911 45.1657C26.3987 65.0448 11.2845 90.104 3.4801 117.639Z" fill="white"/>
<path d="M72.7448 298.938C58.6089 290.068 45.9638 279.109 35.1597 266.356C24.287 253.523 15.5224 239.163 9.11502 223.677L9.57707 223.486C22.4568 254.617 44.3935 280.56 73.0119 298.515L72.7484 298.938H72.7448Z" fill="white"/>
<path d="M158.665 323.575C133.642 323.575 109.662 318.03 87.3898 307.096L87.61 306.648C109.814 317.55 133.721 323.076 158.665 323.076C202.004 323.076 242.665 306.161 273.157 275.445L273.511 275.795C258.642 290.772 241.293 302.537 221.948 310.753C201.921 319.261 180.631 323.575 158.665 323.575Z" fill="white"/>
<path d="M318.651 186.045L318.156 185.969C319.348 178.024 319.954 169.888 319.954 161.787C319.954 120.029 304.089 80.4406 275.283 50.3133L275.644 49.9703C304.54 80.1915 320.452 119.903 320.452 161.791C320.452 169.916 319.846 178.078 318.651 186.049V186.045Z" fill="white"/>
<path d="M245.278 246.899L244.921 246.549C267.266 223.814 279.568 193.712 279.568 161.787C279.568 95.1216 225.331 40.8809 158.661 40.8809C145.987 40.8809 133.505 42.8266 121.564 46.6674L121.412 46.1945C133.404 42.3393 145.937 40.3864 158.661 40.3864C191.117 40.3864 221.609 53.0062 244.527 75.9247C267.442 98.8433 280.066 129.335 280.066 161.791C280.066 194.246 267.71 224.074 245.275 246.902L245.278 246.899Z" fill="white"/>
<path d="M158.665 283.192C97.0026 283.192 45.1588 237.084 38.0764 175.941L38.5709 175.883C45.6244 236.773 97.2553 282.69 158.665 282.69C172.494 282.69 186.056 280.38 198.968 275.824L199.134 276.293C186.168 280.867 172.555 283.188 158.665 283.188V283.192Z" fill="white"/>
<path d="M37.7587 161.787H37.2606C37.2606 131.035 48.7541 101.713 69.6259 79.2133L69.9905 79.5526C49.2054 101.959 37.7551 131.162 37.7551 161.787H37.7587Z" fill="white"/>
<path d="M158.665 242.805C155.597 242.805 152.507 242.632 149.478 242.293L149.532 241.798C152.543 242.138 155.615 242.311 158.661 242.311C203.062 242.311 239.181 206.191 239.181 161.791C239.181 144.818 233.976 128.592 224.125 114.867L224.529 114.575C234.442 128.386 239.68 144.713 239.68 161.787C239.68 183.446 231.258 203.794 215.963 219.089C200.669 234.384 180.32 242.805 158.661 242.805H158.665Z" fill="white"/>
<path d="M116.896 231.243C105.143 224.164 95.306 214.144 88.4473 202.264C81.3794 190.019 77.6469 176.024 77.6469 161.787C77.6469 140.128 86.0685 119.78 101.363 104.485C116.658 89.1907 137.006 80.769 158.665 80.769C167.993 80.769 177.136 82.3357 185.836 85.4293L185.67 85.8986C177.021 82.8266 167.935 81.2672 158.665 81.2672C114.265 81.2672 78.145 117.387 78.145 161.787C78.145 190.301 92.7286 216.104 117.152 230.814L116.896 231.24V231.243Z" fill="white"/>
<path d="M158.665 202.423C149.789 202.423 141.36 199.618 134.292 194.315C127.455 189.186 122.314 181.879 119.816 173.746L120.293 173.598C125.491 190.539 140.912 201.925 158.665 201.925C180.797 201.925 198.799 183.919 198.799 161.791C198.799 139.663 180.793 121.657 158.665 121.657C137.739 121.657 120.156 137.984 118.636 158.827L118.138 158.791C118.881 148.572 123.426 139.085 130.931 132.079C138.475 125.036 148.323 121.159 158.661 121.159C181.067 121.159 199.297 139.388 199.297 161.794C199.297 184.2 181.067 202.43 158.661 202.43L158.665 202.423Z" fill="white"/>
<path d="M158.914 215.385H158.416V323.329H158.914V215.385Z" fill="white"/>
<path d="M225.945 200.345L225.696 200.776L298.436 242.772L298.685 242.341L225.945 200.345Z" fill="white"/>
<path d="M158.79 161.573L158.541 162.005L207.472 190.255L207.721 189.823L158.79 161.573Z" fill="white"/>
<path d="M298.441 80.8099L220.716 125.666L220.965 126.097L298.69 81.2413L298.441 80.8099Z" fill="white"/>
<path d="M201.868 136.569L158.538 161.575L158.787 162.007L202.117 137L201.868 136.569Z" fill="white"/>
<path d="M158.914 0.249023H158.416V53.4321H158.914V0.249023Z" fill="white"/>
<path d="M158.914 127.635H158.416V161.787H158.914V127.635Z" fill="white"/>
<path d="M18.8938 80.8008L18.6447 81.2322L116.544 137.754L116.793 137.323L18.8938 80.8008Z" fill="white"/>
<path d="M122.459 140.594L122.21 141.026L158.542 162.002L158.792 161.571L122.459 140.594Z" fill="white"/>
<path d="M35.7752 232.446L18.6487 242.338L18.8978 242.77L36.0244 232.878L35.7752 232.446Z" fill="white"/>
<path d="M94.9835 198.267L62.584 216.98L62.8332 217.411L95.2327 198.698L94.9835 198.267Z" fill="white"/>
<path d="M115.363 186.504L110.187 189.494L110.436 189.925L115.612 186.935L115.363 186.504Z" fill="white"/>
<path d="M158.538 161.563L121.831 182.765L122.08 183.196L158.787 161.995L158.538 161.563Z" fill="white"/>
<g style="mix-blend-mode:overlay">
<path d="M159.167 210.815V210.801L159.091 206.148H159.105C160.091 206.133 161.084 206.083 162.055 206.003H162.069V206.018L162.459 210.653H162.444C161.372 210.743 160.271 210.797 159.181 210.815H159.167ZM155.608 210.743H155.593C154.51 210.678 153.42 210.577 152.337 210.44H152.323V210.425L152.911 205.809H152.925C153.893 205.935 154.882 206.025 155.864 206.083H155.878L155.608 210.743ZM166 210.223L165.267 205.614H165.278C166.235 205.458 167.209 205.267 168.173 205.047H168.188V205.058L169.234 209.592H169.22C168.166 209.841 167.083 210.05 166.011 210.22H165.996L166 210.223ZM148.803 209.859H148.789C147.72 209.639 146.648 209.379 145.608 209.093L145.594 209.086L146.839 204.592H146.854C147.792 204.852 148.756 205.087 149.724 205.282H149.738V205.3L148.807 209.859H148.803ZM172.707 208.743L171.296 204.206V204.112L171.321 204.195C172.252 203.903 173.184 203.574 174.093 203.224L174.108 203.217L174.115 203.228L175.801 207.563L175.79 207.57C174.775 207.964 173.739 208.328 172.707 208.649V208.74V208.743ZM142.197 208.007L142.183 208C141.165 207.635 140.143 207.227 139.154 206.79L139.14 206.783L139.147 206.772L141.02 202.506L141.035 202.52C141.941 202.914 142.858 203.282 143.767 203.61L143.782 203.617V203.632L142.201 208.007H142.197ZM179.078 206.148L177.06 201.942L177.071 201.932C177.948 201.513 178.829 201.054 179.692 200.567L179.703 200.56L179.71 200.571L182.002 204.617L181.991 204.628C181.035 205.166 180.064 205.675 179.089 206.141L179.078 206.148ZM135.931 205.227L135.92 205.22C134.963 204.711 134.01 204.159 133.09 203.585L133.079 203.574L133.09 203.563L135.552 199.614L135.562 199.625C136.393 200.145 137.255 200.639 138.118 201.101L138.129 201.109L135.934 205.227H135.931ZM185.042 202.747L185.031 202.737L182.439 198.874L182.454 198.863C183.258 198.325 184.067 197.744 184.85 197.141L184.861 197.131L184.872 197.141L187.72 200.82L187.709 200.831C186.843 201.498 185.951 202.141 185.056 202.74L185.045 202.751L185.042 202.747ZM130.122 201.582L130.112 201.571C129.238 200.928 128.375 200.253 127.541 199.553L127.531 199.542L130.541 195.983H130.581L130.566 195.997C131.314 196.622 132.086 197.235 132.873 197.809L132.884 197.82L132.873 197.831L130.122 201.582ZM190.456 198.535L187.334 195.066L187.345 195.055C188.07 194.398 188.785 193.712 189.471 193.005L189.482 192.994L189.493 193.005L192.832 196.243L192.821 196.253C192.063 197.037 191.269 197.798 190.467 198.52L190.456 198.531V198.535ZM124.895 197.145L124.885 197.134C124.112 196.38 123.361 195.589 122.639 194.781L122.625 194.795V194.752L122.632 194.745L126.105 191.651L126.116 191.662C126.762 192.391 127.448 193.109 128.151 193.799L128.162 193.81L128.151 193.82L124.895 197.145ZM195.214 193.597L195.203 193.586L191.633 190.604L191.644 190.593C192.269 189.842 192.879 189.059 193.456 188.265L193.467 188.254L193.478 188.265L197.246 190.994L197.236 191.005C196.597 191.886 195.922 192.752 195.229 193.586L195.218 193.597H195.214ZM120.347 192.008L120.336 191.998C119.672 191.131 119.037 190.236 118.441 189.333L118.43 189.323L118.441 189.312L122.314 186.749H122.376L122.336 186.771C122.874 187.579 123.448 188.384 124.04 189.164L124.051 189.175L124.04 189.185L120.347 192.012V192.008ZM199.225 188.034L199.21 188.023L195.257 185.561H195.265C195.777 184.724 196.268 183.865 196.719 183.006L196.727 182.995L196.741 183.002L200.856 185.168L200.849 185.179C200.34 186.146 199.795 187.103 199.228 188.016L199.221 188.03L199.225 188.034ZM116.575 186.276L116.568 186.265C116.037 185.316 115.532 184.338 115.07 183.352L115.062 183.341L115.077 183.334L119.279 181.345L119.286 181.359C119.701 182.24 120.156 183.125 120.639 183.984L120.647 183.998L116.575 186.276ZM202.394 181.951L202.383 181.944L198.113 180.096L198.12 180.082C198.506 179.19 198.871 178.266 199.196 177.342L199.203 177.331L203.603 178.887L203.596 178.901C203.231 179.926 202.831 180.948 202.401 181.937L202.394 181.951ZM113.662 180.056L113.655 180.042C113.265 179.031 112.907 177.992 112.586 176.945V176.93H112.597L117.044 175.566L117.051 175.58C117.337 176.522 117.661 177.461 118.012 178.374V178.385L118.001 178.392L113.658 180.056H113.662ZM204.661 175.483H204.647L200.156 174.263L200.163 174.248C200.419 173.299 200.647 172.331 200.835 171.378V171.364L205.415 172.274V172.288C205.202 173.353 204.953 174.421 204.665 175.472V175.486L204.661 175.483ZM111.673 173.479V173.465C111.434 172.418 111.229 171.335 111.063 170.252V170.238H111.074L115.672 169.53V169.545C115.82 170.512 116.008 171.487 116.225 172.44V172.454H116.214L111.676 173.476L111.673 173.479ZM205.96 168.747L201.344 168.187V168.173C201.463 167.202 201.549 166.213 201.6 165.231V165.216H201.618L206.26 165.462V165.476C206.202 166.552 206.112 167.646 205.979 168.722L206.029 168.747H205.96ZM110.651 166.696V166.682C110.565 165.603 110.514 164.505 110.507 163.419V163.404H110.521L115.185 163.354L115.174 163.375C115.185 164.354 115.228 165.346 115.301 166.321V166.336L110.651 166.696ZM206.329 162.924L201.661 162.91C201.661 161.928 201.625 160.935 201.56 159.957V159.943H201.575L206.217 159.632V159.647C206.289 160.726 206.325 161.823 206.325 162.91V162.924H206.329ZM115.257 160.141H115.243L110.601 159.845V159.831C110.669 158.759 110.774 157.661 110.918 156.575V156.56H110.936L115.546 157.17V157.185C115.416 158.156 115.319 159.145 115.257 160.123V160.137V160.141ZM201.228 156.744V156.73C201.087 155.762 200.914 154.784 200.708 153.828V153.813H200.719L205.267 152.838V152.853C205.495 153.907 205.686 154.99 205.841 156.073V156.087H205.831L201.224 156.748L201.228 156.744ZM116.088 154.004H116.073L111.521 153.048V153.033C111.745 151.979 112.008 150.911 112.301 149.86L112.308 149.846L116.799 151.117V151.127C116.532 152.07 116.293 153.033 116.091 153.994V154.008L116.088 154.004ZM199.929 150.694L199.91 150.683C199.633 149.745 199.318 148.799 198.979 147.882L198.972 147.871L198.986 147.864L203.347 146.247L203.354 146.261C203.73 147.279 204.076 148.323 204.379 149.355H204.477L199.925 150.698L199.929 150.694ZM117.784 148.052L117.773 148.045L113.405 146.446L113.413 146.435C113.781 145.428 114.192 144.41 114.64 143.406L114.647 143.392L118.91 145.294L118.903 145.305C118.506 146.189 118.138 147.106 117.795 148.034L117.788 148.048L117.784 148.052ZM197.745 144.897L197.737 144.883C197.329 143.995 196.885 143.107 196.413 142.244L196.405 142.229L196.416 142.222L200.502 139.995L200.51 140.009C201.03 140.959 201.524 141.944 201.979 142.933L201.986 142.944L201.972 142.955L197.748 144.897H197.745ZM120.322 142.41L120.311 142.403L116.217 140.193L116.225 140.183C116.741 139.226 117.297 138.277 117.874 137.36L117.885 137.349L117.896 137.36L121.823 139.85C121.296 140.684 120.798 141.54 120.333 142.399L120.325 142.41H120.322ZM194.774 139.457L194.756 139.45C194.225 138.63 193.662 137.818 193.07 137.028L193.059 137.017L193.07 137.006L196.792 134.219L196.802 134.23C197.449 135.096 198.077 135.995 198.669 136.908H198.712L198.669 136.937L194.774 139.457ZM123.643 137.19L123.632 137.179L119.896 134.407L119.907 134.396C120.553 133.526 121.239 132.663 121.943 131.84L121.957 131.833L121.964 131.84L125.524 134.873H125.491C124.859 135.613 124.242 136.389 123.657 137.179L123.646 137.19H123.643ZM191.038 134.515L191.027 134.504C190.384 133.768 189.709 133.042 189.012 132.346L189.002 132.335L192.305 129.036L192.315 129.046C193.081 129.812 193.832 130.613 194.546 131.436L194.557 131.447L194.546 131.458L191.041 134.515H191.038ZM127.675 132.49L127.664 132.479L124.361 129.205L124.372 129.194C125.137 128.422 125.935 127.667 126.747 126.953L126.758 126.942L126.769 126.953L129.844 130.443L129.834 130.454C129.097 131.1 128.375 131.783 127.682 132.479L127.671 132.49H127.675ZM186.644 130.144L186.634 130.133C185.886 129.49 185.11 128.869 184.331 128.285L184.32 128.274L184.331 128.263L187.125 124.541L187.135 124.552C188.002 125.202 188.861 125.895 189.68 126.599L189.691 126.61L189.68 126.621L186.644 130.144ZM132.335 128.407L129.52 124.682L129.53 124.671C130.4 124.014 131.299 123.379 132.202 122.791L132.212 122.78L134.768 126.686L134.757 126.696C133.934 127.234 133.122 127.808 132.342 128.4L132.332 128.411L132.335 128.407ZM181.677 126.444L181.667 126.436C180.836 125.906 179.984 125.4 179.133 124.935L179.118 124.928L179.129 124.913L181.36 120.83L181.371 120.841C182.324 121.361 183.266 121.917 184.175 122.498L184.19 122.491L184.197 122.509L181.685 126.44L181.677 126.444ZM137.53 125.029L135.274 120.942L135.288 120.932C136.241 120.405 137.223 119.906 138.205 119.452L138.219 119.444L138.226 119.455L140.19 123.671L140.179 123.682C139.302 124.09 138.418 124.538 137.548 125.021L137.533 125.029H137.53ZM176.245 123.487H176.194L176.205 123.476C175.321 123.076 174.415 122.7 173.505 122.361L173.49 122.354L175.118 117.982H175.133C176.151 118.365 177.165 118.784 178.151 119.231H178.169L178.158 119.253L176.245 123.484V123.487ZM143.154 122.43L141.508 118.062L141.522 118.055C142.529 117.676 143.569 117.322 144.616 117.008V116.914L145.98 121.473H145.966C145.027 121.758 144.081 122.076 143.168 122.422L143.154 122.43ZM170.437 121.354H170.426C169.491 121.08 168.527 120.838 167.563 120.628H167.549V120.61L168.531 116.066H168.545C169.61 116.3 170.675 116.567 171.714 116.867L171.729 116.874L170.433 121.358L170.437 121.354ZM149.095 120.668L148.096 116.105H148.11C149.168 115.867 150.251 115.672 151.323 115.51H151.337V115.524L152.023 120.127H152.009C151.048 120.271 150.07 120.451 149.11 120.661H149.095V120.668ZM164.329 120.098L164.343 120.065C163.383 119.935 162.401 119.834 161.43 119.766H161.416V119.751L161.737 115.109H161.751C162.838 115.188 163.932 115.3 165.004 115.445H165.018L164.376 120.069L164.325 120.101L164.329 120.098ZM155.221 119.776V119.762L154.882 115.123H154.896C155.972 115.044 157.069 115.001 158.163 114.997L158.174 115.012L158.199 119.665H158.185C157.207 119.672 156.214 119.708 155.236 119.78H155.221V119.776Z" fill="white"/>
</g>
<path d="M158.416 223.58C124.964 223.58 97.7462 196.362 97.7462 162.91C97.7462 129.458 124.964 102.24 158.416 102.24C191.868 102.24 219.086 129.458 219.086 162.91C219.086 196.362 191.868 223.58 158.416 223.58ZM158.416 103.792C125.82 103.792 99.302 130.31 99.302 162.906C99.302 195.503 125.82 222.02 158.416 222.02C191.012 222.02 217.53 195.503 217.53 162.906C217.53 130.31 191.012 103.792 158.416 103.792Z" fill="white"/>
<path opacity="0.5" d="M158.43 228.482H158.405C151.579 228.482 144.847 227.435 138.392 225.366C132.147 223.367 126.253 220.443 120.871 216.674L120.86 216.663L120.867 216.652L127.379 207.361H127.386C136.512 213.743 147.244 217.114 158.42 217.118C170.332 217.118 181.638 213.324 191.117 206.155L191.128 206.144L197.986 215.201L197.976 215.212C192.409 219.432 186.247 222.71 179.649 224.966C172.83 227.298 165.693 228.482 158.438 228.482H158.43ZM93.7429 173.804V173.79C93.1437 170.22 92.8405 166.559 92.8405 162.91C92.8405 156.719 93.7068 150.593 95.4034 144.698C97.0531 138.988 99.4753 133.523 102.612 128.454C108.825 118.405 117.636 110.21 128.086 104.756L128.101 104.745L128.108 104.76L133.364 114.817L133.35 114.824C115.369 124.227 104.2 142.655 104.204 162.91C104.204 165.935 104.453 168.963 104.948 171.916V171.931H104.937L93.7465 173.801L93.7429 173.804ZM223.45 171.342H223.435L212.184 169.895V169.884C212.48 167.584 212.628 165.238 212.628 162.91C212.628 151.229 208.967 140.103 202.051 130.732C195.359 121.675 185.811 114.784 175.158 111.33H175.147V111.311L178.649 100.518L178.663 100.525C185.172 102.634 191.29 105.749 196.846 109.774C202.333 113.748 207.159 118.527 211.187 123.978C215.259 129.49 218.429 135.576 220.602 142.063C222.847 148.767 223.988 155.78 223.988 162.906C223.988 165.718 223.807 168.552 223.45 171.324V171.339V171.342Z" fill="white"/>
<g style="mix-blend-mode:overlay">
<path d="M144.186 240.181C140.385 239.484 136.606 238.499 132.949 237.246L133.454 235.773C137.035 237.001 140.742 237.968 144.468 238.65L144.186 240.181ZM184.453 237.051L183.937 235.582C186.157 234.802 188.366 233.911 190.503 232.929L191.153 234.344C188.973 235.344 186.72 236.257 184.453 237.051ZM100.45 215.934C87.1695 201.423 79.856 182.594 79.856 162.91C79.856 158.008 80.3109 153.102 81.2061 148.323L82.7367 148.608C81.8559 153.29 81.4119 158.102 81.4119 162.906C81.4119 182.201 88.5809 200.657 101.598 214.88L100.45 215.93V215.934ZM231.583 191.568L230.135 191.001C233.64 182.056 235.42 172.606 235.42 162.91C235.42 138.45 224.186 115.99 204.6 101.287L205.535 100.042C215.082 107.211 222.995 116.603 228.413 127.209C234.095 138.327 236.976 150.337 236.976 162.91C236.976 172.801 235.164 182.442 231.583 191.568ZM113.9 100.067L113.001 98.7964C114.961 97.4066 117.004 96.0926 119.076 94.8906L119.856 96.237C117.824 97.4138 115.82 98.7025 113.9 100.067ZM169.422 86.6855C165.802 86.1693 162.102 85.9058 158.416 85.9058H158.066L158.059 84.35H158.416C162.174 84.35 165.95 84.6171 169.642 85.1441L169.422 86.6855Z" fill="white"/>
</g>
<path opacity="0.3" d="M158.416 248.447C135.566 248.447 114.088 239.549 97.9303 223.392C81.7728 207.234 72.8747 185.756 72.8747 162.906C72.8747 140.056 81.7728 118.578 97.9303 102.421C114.088 86.2631 135.566 77.365 158.416 77.365C181.266 77.365 202.744 86.2631 218.902 102.421C235.059 118.578 243.957 140.056 243.957 162.906C243.957 185.756 235.059 207.234 218.902 223.392C202.744 239.549 181.266 248.447 158.416 248.447ZM158.416 78.5707C111.911 78.5707 74.0768 116.405 74.0768 162.91C74.0768 209.415 111.911 247.249 158.416 247.249C204.921 247.249 242.755 209.415 242.755 162.91C242.755 116.405 204.921 78.5707 158.416 78.5707Z" fill="white"/>
<path opacity="0.5" d="M148.348 254.299H148.334C141.937 253.602 135.609 252.227 129.523 250.213C123.571 248.242 117.799 245.65 112.366 242.495C107.005 239.387 101.937 235.716 97.2985 231.586C92.6744 227.467 88.4509 222.868 84.7473 217.916L84.7365 217.905L84.7473 217.894L90.9634 213.241L90.9742 213.252C104.926 231.907 126.141 244.047 149.178 246.563H149.193V246.578L148.348 254.295V254.299ZM188.341 249.866L188.334 249.852L185.807 242.513L185.821 242.506C207.773 234.95 225.8 218.443 235.286 197.21L235.294 197.199L242.394 200.372L242.387 200.383C239.827 206.112 236.662 211.599 232.98 216.696C229.327 221.753 225.143 226.453 220.544 230.673C215.934 234.9 210.881 238.668 205.524 241.874C200.095 245.119 194.315 247.808 188.348 249.859L188.337 249.866H188.341ZM68.2903 181.172V181.157C67.0846 175.19 66.4781 169.046 66.4781 162.91C66.4781 153.167 67.9943 143.576 70.9868 134.392C73.8818 125.505 78.1161 117.138 83.5669 109.514L83.5777 109.503L83.5886 109.51L89.9057 114.026L89.8949 114.037C79.6683 128.353 74.2609 145.254 74.2572 162.913C74.2572 168.537 74.8132 174.162 75.9141 179.623V179.638L68.2903 181.175V181.172ZM250.354 162.924L242.575 162.91C242.575 139.352 233.084 117.509 215.866 101.406L215.855 101.395L215.866 101.385L221.169 95.7135L221.179 95.7244C225.666 99.9117 229.749 104.572 233.312 109.568C236.904 114.607 239.997 120.025 242.499 125.668C245.051 131.418 247.007 137.446 248.321 143.59C249.671 149.904 250.357 156.401 250.357 162.91V162.924H250.354ZM117.34 89.4361L117.333 89.4217L113.535 82.6497L113.55 82.6425C120.257 78.8847 127.422 75.9824 134.851 74.0223C142.5 72.0008 150.427 70.972 158.405 70.972H158.412C167.978 70.972 177.411 72.434 186.431 75.3218L186.457 75.2785V75.3327L185.995 76.7874L184.092 82.7436H184.078C175.811 80.0976 167.177 78.7548 158.412 78.7548C144.024 78.7548 129.826 82.4476 117.351 89.4325L117.34 89.4433V89.4361Z" fill="white"/>
<path d="M158.416 262.627C131.779 262.627 106.738 252.256 87.9059 233.42C69.0736 214.588 58.6991 189.543 58.6991 162.91C58.6991 136.277 69.07 111.232 87.9059 92.3997C106.738 73.5674 131.783 63.1929 158.416 63.1929C185.049 63.1929 210.094 73.5638 228.926 92.3997C247.758 111.232 258.133 136.277 258.133 162.91C258.133 189.543 247.762 214.588 228.926 233.42C210.094 252.252 185.049 262.627 158.416 262.627ZM158.416 63.8138C103.775 63.8138 59.32 108.268 59.32 162.91C59.32 217.551 103.775 262.006 158.416 262.006C213.057 262.006 257.512 217.551 257.512 162.91C257.512 108.268 213.057 63.8138 158.416 63.8138Z" fill="white"/>
<path opacity="0.7" d="M136.125 261.399H136.111C130.072 260.035 124.13 258.1 118.445 255.645C112.853 253.234 107.449 250.292 102.374 246.899C97.3455 243.538 92.5914 239.701 88.2344 235.488C83.8918 231.286 79.8994 226.666 76.3726 221.76L76.3618 221.767V221.735L76.369 221.728L78.8814 219.919L78.8923 219.93C92.9163 239.452 113.481 253.097 136.793 258.356H136.808V258.374L136.125 261.392V261.399ZM188.836 259.205L188.821 259.194L187.886 256.248L187.915 256.23V256.237C210.718 249.036 230.07 233.73 242.409 213.136L242.419 213.122L242.43 213.133L245.087 214.721L245.076 214.736C241.957 219.941 238.34 224.901 234.33 229.471C230.33 234.03 225.894 238.25 221.15 242.022C216.378 245.812 211.238 249.184 205.874 252.043C200.434 254.945 194.705 257.353 188.836 259.208V259.205ZM57.8905 172.342V172.328C57.6017 169.22 57.4537 166.054 57.4537 162.91C57.4537 151.987 59.19 141.24 62.6121 130.967C65.9223 121.036 70.7558 111.701 76.9718 103.229L76.9899 103.222H76.9971L79.5167 105.077H79.477C67.1063 121.939 60.5653 141.933 60.5653 162.91C60.5653 165.949 60.7061 169.025 60.9841 172.043V172.057H60.9733L57.8905 172.339V172.342ZM259.371 163.96L256.259 163.928V163.913C256.259 163.541 256.267 163.217 256.267 162.91C256.267 138.934 247.509 115.871 231.604 97.9624L231.594 97.9516L233.922 95.8868L233.933 95.8976C237.893 100.359 241.477 105.193 244.585 110.275C247.726 115.409 250.422 120.852 252.592 126.447C257.093 138.071 259.378 150.34 259.378 162.913C259.378 163.282 259.378 163.621 259.371 163.949V163.964V163.96ZM119.423 73.1343L119.416 73.1234L118.181 70.2825L118.196 70.2753C124.412 67.5716 130.931 65.4959 137.566 64.1026C144.377 62.6731 151.388 61.9475 158.412 61.9475V61.9619L158.423 61.9475C169.151 61.9475 179.714 63.6225 189.818 66.9254L189.832 66.9326L188.865 69.889H188.85C179.06 66.6836 168.819 65.0591 158.42 65.0591C144.872 65.0591 131.758 67.7737 119.437 73.1306L119.427 73.1379L119.423 73.1343Z" fill="white"/>
<path d="M158.416 94.5584L152.406 88.5481V94.9844L158.416 100.995L164.426 94.9844V88.5481L158.416 94.5584Z" fill="white"/>
<path d="M99.2226 197.084L97.0243 205.292L102.594 202.076L104.796 193.867L96.5839 191.666L91.014 194.882L99.2226 197.084Z" fill="white"/>
<path d="M217.606 197.084L225.818 194.882L220.244 191.666L212.036 193.867L214.234 202.076L219.808 205.292L217.606 197.084Z" fill="white"/>
<path d="M161.022 176.811L160.791 175.335C167.502 174.288 172.375 168.592 172.375 161.787V161.729H173.869V161.776C173.869 169.332 168.466 175.649 161.022 176.811ZM151.077 174.97C146.377 172.259 143.457 167.209 143.457 161.787C143.457 159.91 143.796 158.073 144.464 156.336L145.861 156.874C145.258 158.441 144.955 160.094 144.955 161.791C144.955 166.678 147.587 171.23 151.824 173.678L151.077 174.974V174.97ZM169.31 153.145C166.693 149.925 162.813 148.077 158.665 148.077C156.243 148.077 153.86 148.716 151.781 149.929L151.03 148.637C153.341 147.294 155.983 146.583 158.669 146.583C163.267 146.583 167.57 148.633 170.473 152.203L169.31 153.145Z" fill="white"/>
<path d="M158.665 168.646C162.453 168.646 165.524 165.575 165.524 161.787C165.524 157.999 162.453 154.929 158.665 154.929C154.877 154.929 151.806 157.999 151.806 161.787C151.806 165.575 154.877 168.646 158.665 168.646Z" fill="#E6F85A"/>
<path d="M159.051 199.87L159.037 198.066C159.152 198.066 159.271 198.066 159.387 198.062L159.423 199.867C159.3 199.867 159.178 199.87 159.051 199.874V199.87ZM157.947 199.863C157.824 199.863 157.698 199.86 157.575 199.856L157.629 198.051C157.744 198.051 157.864 198.058 157.979 198.058L157.947 199.863ZM160.524 199.827L160.441 198.026C160.556 198.019 160.676 198.015 160.791 198.008L160.896 199.809C160.773 199.816 160.65 199.824 160.524 199.827ZM156.47 199.809C156.347 199.802 156.225 199.795 156.098 199.787L156.221 197.986C156.337 197.993 156.452 198.001 156.571 198.008L156.47 199.809ZM161.997 199.726L161.845 197.928C161.961 197.918 162.076 197.907 162.192 197.896L162.365 199.694C162.242 199.704 162.12 199.715 161.997 199.726ZM154.997 199.697C154.875 199.686 154.752 199.672 154.629 199.661L154.821 197.867C154.936 197.878 155.052 197.892 155.167 197.903L154.997 199.701V199.697ZM163.466 199.571L163.242 197.78C163.358 197.766 163.473 197.752 163.589 197.737L163.831 199.524C163.708 199.542 163.585 199.556 163.462 199.571H163.466ZM153.528 199.528L153.164 199.477L153.424 197.69L153.774 197.737L153.532 199.524L153.528 199.528ZM164.932 199.358L164.636 197.578L164.982 197.52L165.296 199.296L164.932 199.358ZM152.07 199.3L151.705 199.235L152.034 197.459L152.38 197.52L152.07 199.296V199.3ZM166.383 199.087L166.018 197.318L166.361 197.246L166.744 199.011L166.383 199.087ZM150.619 199.019L150.258 198.939L150.655 197.178L150.998 197.253L150.619 199.019ZM167.823 198.762L167.39 197.011L167.733 196.925L168.184 198.672L167.827 198.762H167.823ZM149.182 198.679L148.825 198.585L149.29 196.842L149.63 196.932L149.178 198.679H149.182ZM169.249 198.38L168.751 196.643C168.863 196.611 168.975 196.578 169.086 196.546L169.606 198.275C169.487 198.311 169.368 198.347 169.249 198.38ZM147.76 198.286L147.406 198.177L147.94 196.452L148.276 196.553L147.756 198.282L147.76 198.286ZM170.66 197.943L170.094 196.228L170.426 196.116L171.007 197.824L170.657 197.943H170.66ZM146.348 197.835L145.998 197.712L146.601 196.012L146.933 196.127L146.348 197.835ZM172.054 197.452L171.415 195.762L171.747 195.636L172.397 197.318L172.054 197.448V197.452ZM144.959 197.329C144.843 197.286 144.728 197.239 144.612 197.192L145.283 195.517C145.392 195.56 145.5 195.604 145.608 195.643L144.959 197.329ZM173.422 196.907L172.721 195.243C172.83 195.196 172.934 195.152 173.043 195.106L173.761 196.762C173.649 196.809 173.537 196.86 173.422 196.907ZM143.583 196.77L143.248 196.622L143.977 194.972L144.302 195.113L143.583 196.77ZM174.765 196.311L173.999 194.676C174.104 194.625 174.209 194.578 174.317 194.528L175.097 196.156C174.985 196.21 174.877 196.261 174.765 196.315V196.311ZM142.237 196.156L141.905 195.994L142.699 194.373L143.017 194.528L142.237 196.156ZM176.089 195.661L175.259 194.059L175.57 193.896L176.414 195.492L176.089 195.661ZM140.916 195.492C140.807 195.434 140.699 195.376 140.591 195.319L141.446 193.73L141.757 193.896L140.916 195.492ZM177.385 194.961L176.497 193.387C176.598 193.329 176.699 193.272 176.801 193.214L177.703 194.777C177.598 194.838 177.49 194.9 177.382 194.961H177.385ZM139.62 194.773C139.511 194.712 139.407 194.651 139.298 194.586L140.219 193.033L140.522 193.21L139.62 194.773ZM178.652 194.21L177.703 192.676L178.003 192.488L178.963 194.015L178.652 194.21ZM138.356 194.008C138.252 193.943 138.147 193.875 138.046 193.81L139.024 192.293L139.32 192.485L138.356 194.012V194.008ZM179.894 193.409L178.887 191.911L179.176 191.712L180.197 193.2L179.894 193.405V193.409ZM137.122 193.196C137.021 193.127 136.92 193.055 136.818 192.983L137.855 191.507C137.948 191.575 138.046 191.64 138.143 191.705L137.122 193.192V193.196ZM181.1 192.564L180.035 191.109L180.32 190.9L181.396 192.348L181.1 192.564ZM135.92 192.333C135.822 192.261 135.721 192.185 135.624 192.109L136.717 190.673C136.811 190.745 136.905 190.813 136.999 190.886L135.92 192.333ZM182.273 191.673L181.158 190.254C181.248 190.182 181.338 190.11 181.428 190.037L182.562 191.442C182.464 191.521 182.367 191.597 182.273 191.673ZM134.754 191.431C134.656 191.355 134.562 191.276 134.465 191.196L135.613 189.803C135.703 189.879 135.793 189.951 135.884 190.023L134.75 191.427L134.754 191.431ZM183.41 190.738L182.24 189.362C182.331 189.287 182.417 189.211 182.504 189.135L183.692 190.496C183.598 190.579 183.504 190.658 183.41 190.738ZM133.62 190.478C133.526 190.395 133.436 190.315 133.342 190.232L134.544 188.886C134.631 188.962 134.718 189.041 134.808 189.117L133.62 190.478ZM184.515 189.756L183.291 188.427C183.378 188.348 183.461 188.269 183.547 188.189L184.785 189.503C184.695 189.59 184.605 189.673 184.515 189.756ZM132.526 189.485C132.436 189.398 132.346 189.315 132.259 189.229L133.512 187.929C133.595 188.009 133.682 188.092 133.765 188.171L132.526 189.485ZM185.58 188.731L184.302 187.453L184.551 187.204L185.836 188.471L185.576 188.731H185.58ZM131.472 188.453C131.386 188.366 131.299 188.276 131.212 188.186L132.516 186.937C132.595 187.02 132.678 187.103 132.761 187.189L131.472 188.453ZM186.605 187.666L185.276 186.442L185.515 186.182L186.85 187.399L186.601 187.669L186.605 187.666ZM130.462 187.377C130.379 187.287 130.296 187.193 130.216 187.103L131.563 185.904L131.797 186.164L130.462 187.377ZM187.587 186.565L186.215 185.392L186.442 185.124L187.825 186.287L187.587 186.568V186.565ZM129.491 186.265L129.256 185.984L130.646 184.832L130.873 185.103L129.491 186.262V186.265ZM188.525 185.424L187.11 184.305L187.33 184.027L188.753 185.135L188.525 185.424ZM128.563 185.117L128.339 184.825L129.776 183.731L129.989 184.009L128.563 185.114V185.117ZM189.424 184.247L187.966 183.182L188.175 182.897L189.641 183.951L189.424 184.251V184.247ZM127.682 183.937L127.469 183.637L128.946 182.601L129.148 182.89L127.679 183.94L127.682 183.937ZM190.272 183.038L188.774 182.031L188.969 181.738L190.474 182.731L190.269 183.038H190.272ZM126.845 182.72L126.642 182.413L128.159 181.435L128.35 181.731L126.841 182.724L126.845 182.72ZM191.074 181.796L189.539 180.847L189.724 180.547L191.269 181.482L191.077 181.796H191.074ZM126.058 181.475L125.87 181.161L127.422 180.24L127.603 180.544L126.058 181.479V181.475ZM191.828 180.526L190.258 179.638L190.431 179.331L192.009 180.204L191.828 180.526ZM125.321 180.201C125.264 180.092 125.202 179.984 125.144 179.876L126.733 179.017C126.787 179.121 126.845 179.222 126.902 179.324L125.325 180.197L125.321 180.201ZM192.532 179.226L190.929 178.399C190.983 178.295 191.038 178.19 191.088 178.085L192.702 178.898C192.648 179.009 192.59 179.118 192.532 179.23V179.226ZM124.632 178.898C124.578 178.786 124.52 178.677 124.466 178.565L126.087 177.771C126.137 177.876 126.188 177.981 126.242 178.082L124.632 178.894V178.898ZM193.185 177.894L191.55 177.132L191.698 176.811L193.341 177.562L193.185 177.898V177.894ZM123.997 177.569L123.845 177.233L125.495 176.501L125.639 176.818L123.997 177.569ZM193.785 176.54L192.12 175.84C192.167 175.732 192.211 175.623 192.254 175.515L193.925 176.197C193.878 176.313 193.832 176.425 193.785 176.54ZM123.412 176.219L123.275 175.876L124.95 175.208L125.083 175.537L123.412 176.219ZM194.333 175.165L192.644 174.53C192.684 174.421 192.727 174.31 192.767 174.201L194.463 174.818C194.42 174.934 194.377 175.053 194.333 175.169V175.165ZM122.877 174.84C122.834 174.725 122.794 174.609 122.751 174.494L124.451 173.891C124.491 173.999 124.531 174.111 124.57 174.219L122.874 174.84H122.877ZM194.824 173.768L193.11 173.201L193.218 172.866L194.936 173.418L194.821 173.772L194.824 173.768ZM122.397 173.443L122.285 173.093L124.007 172.555L124.112 172.891L122.394 173.443H122.397ZM195.261 172.353L193.525 171.855L193.622 171.516L195.362 171.999L195.261 172.353ZM121.975 172.028C121.943 171.909 121.91 171.79 121.878 171.671L123.621 171.205C123.65 171.317 123.682 171.429 123.715 171.544L121.975 172.028ZM195.644 170.927L193.889 170.498L193.972 170.155L195.73 170.57L195.644 170.927ZM121.607 170.599C121.578 170.48 121.549 170.36 121.524 170.238L123.285 169.837L123.365 170.18L121.607 170.595V170.599ZM195.969 169.487L194.2 169.122L194.268 168.779L196.041 169.126C196.015 169.245 195.994 169.368 195.969 169.487ZM121.293 169.155L121.224 168.79L123 168.462L123.065 168.808L121.293 169.155ZM196.236 168.036L194.456 167.74L194.51 167.393L196.293 167.671L196.236 168.036ZM121.036 167.7C121.018 167.577 121 167.455 120.982 167.335L122.769 167.075C122.787 167.191 122.805 167.307 122.82 167.422L121.036 167.7ZM196.449 166.574L194.658 166.35L194.701 166L196.496 166.206C196.481 166.328 196.467 166.451 196.452 166.574H196.449ZM120.838 166.238C120.824 166.115 120.809 165.993 120.798 165.87L122.592 165.682C122.603 165.798 122.618 165.913 122.632 166.029L120.838 166.238ZM196.604 165.105L194.806 164.949L194.835 164.599L196.636 164.736C196.626 164.859 196.618 164.982 196.607 165.105H196.604ZM120.697 164.769C120.686 164.646 120.679 164.523 120.672 164.401L122.473 164.278L122.498 164.628L120.697 164.769ZM196.705 163.632L194.904 163.545C194.911 163.43 194.914 163.31 194.918 163.195L196.723 163.264C196.719 163.386 196.712 163.509 196.709 163.632H196.705ZM120.611 163.292L120.6 162.924L122.405 162.87L122.415 163.22L120.611 163.289V163.292ZM196.745 162.159L194.94 162.141V161.729H196.745V161.791C196.745 161.913 196.745 162.036 196.745 162.159ZM120.582 161.82V161.451L122.387 161.466V161.787L120.582 161.82ZM194.925 160.672C194.925 160.556 194.918 160.437 194.914 160.322L196.719 160.249C196.723 160.372 196.73 160.495 196.734 160.618L194.929 160.672H194.925ZM122.412 160.412L120.607 160.347C120.611 160.224 120.618 160.101 120.621 159.979L122.423 160.062C122.415 160.177 122.412 160.296 122.408 160.412H122.412ZM194.857 159.268C194.849 159.152 194.839 159.033 194.831 158.917L196.629 158.777C196.64 158.899 196.647 159.022 196.654 159.145L194.853 159.268H194.857ZM122.491 159.008L120.69 158.87L120.719 158.502L122.517 158.657L122.488 159.008H122.491ZM194.734 157.867L194.694 157.517L196.488 157.307L196.528 157.676L194.734 157.867ZM122.625 157.607L120.831 157.401L120.874 157.037L122.665 157.26L122.621 157.611L122.625 157.607ZM194.557 156.47L194.503 156.123L196.286 155.845L196.34 156.21L194.553 156.474L194.557 156.47ZM122.813 156.21L121.029 155.936C121.047 155.813 121.069 155.694 121.087 155.571L122.867 155.863C122.849 155.979 122.831 156.095 122.813 156.21ZM194.326 155.084L194.261 154.737L196.034 154.387L196.102 154.748L194.33 155.08L194.326 155.084ZM123.054 154.824L121.282 154.481C121.304 154.358 121.329 154.239 121.354 154.116L123.123 154.481C123.101 154.596 123.076 154.708 123.054 154.824ZM194.041 153.708L193.961 153.366L195.716 152.947L195.799 153.308L194.041 153.708ZM123.35 153.449L121.592 153.037C121.621 152.918 121.65 152.795 121.679 152.676L123.43 153.109C123.401 153.221 123.376 153.337 123.347 153.449H123.35ZM193.702 152.34L193.608 152.001L195.348 151.517L195.445 151.871L193.702 152.34ZM123.697 152.088L121.957 151.604L122.058 151.25L123.794 151.748L123.701 152.088H123.697ZM193.308 150.99L193.203 150.655L194.922 150.102L195.034 150.452L193.312 150.99H193.308ZM124.098 150.738L122.379 150.189C122.415 150.07 122.455 149.954 122.495 149.835L124.21 150.402C124.173 150.514 124.137 150.626 124.101 150.738H124.098ZM192.864 149.655L192.745 149.323L194.442 148.702L194.568 149.048L192.868 149.651L192.864 149.655ZM124.556 149.406L122.859 148.788L122.986 148.442L124.675 149.073L124.552 149.406H124.556ZM192.37 148.341C192.326 148.232 192.283 148.124 192.236 148.016L193.904 147.33C193.951 147.445 193.998 147.557 194.041 147.673L192.366 148.341H192.37ZM125.061 148.088L123.39 147.406L123.531 147.063L125.195 147.759L125.061 148.084V148.088ZM191.824 147.045C191.778 146.94 191.731 146.832 191.68 146.727L193.323 145.976C193.373 146.088 193.424 146.2 193.474 146.312L191.824 147.045ZM125.621 146.792L123.978 146.045C124.029 145.933 124.083 145.821 124.134 145.709L125.769 146.474C125.718 146.579 125.671 146.687 125.621 146.796V146.792ZM191.229 145.778C191.178 145.673 191.124 145.568 191.074 145.464L192.684 144.651C192.738 144.76 192.796 144.872 192.85 144.98L191.229 145.778ZM126.227 145.521L124.614 144.709C124.668 144.597 124.726 144.489 124.783 144.381L126.39 145.207L126.231 145.521H126.227ZM190.583 144.532L190.413 144.226L191.991 143.352L192.167 143.673L190.579 144.532H190.583ZM126.888 144.272L125.307 143.399C125.365 143.291 125.426 143.182 125.487 143.074L127.058 143.962L126.884 144.269L126.888 144.272ZM189.89 143.309L189.709 143.009L191.254 142.074C191.319 142.179 191.38 142.283 191.445 142.392L189.893 143.312L189.89 143.309ZM127.592 143.052L126.047 142.121C126.112 142.016 126.177 141.908 126.242 141.803L127.776 142.753C127.715 142.85 127.653 142.951 127.592 143.052ZM189.153 142.117C189.088 142.02 189.027 141.922 188.962 141.825L190.467 140.832C190.536 140.933 190.601 141.038 190.669 141.143L189.153 142.121V142.117ZM128.343 141.861L126.837 140.868L127.043 140.562L128.541 141.569L128.346 141.861H128.343ZM188.366 140.951C188.298 140.854 188.233 140.76 188.164 140.666L189.63 139.612C189.702 139.713 189.774 139.814 189.843 139.912L188.366 140.948V140.951ZM129.14 140.702L127.671 139.652C127.743 139.551 127.816 139.45 127.888 139.352L129.346 140.417C129.278 140.511 129.209 140.605 129.14 140.702ZM187.536 139.818C187.464 139.724 187.395 139.634 187.323 139.54L188.749 138.432C188.825 138.529 188.901 138.627 188.976 138.724L187.54 139.818H187.536ZM129.982 139.572L128.556 138.468C128.631 138.37 128.707 138.273 128.783 138.176L130.198 139.298C130.126 139.388 130.054 139.482 129.982 139.576V139.572ZM186.662 138.717L186.435 138.446L187.818 137.284L188.052 137.565L186.662 138.717ZM130.866 138.479L129.483 137.316L129.722 137.035L131.093 138.208L130.866 138.479ZM185.749 137.648L185.515 137.389L186.85 136.176L187.096 136.45L185.749 137.652V137.648ZM131.79 137.417L130.454 136.205C130.537 136.114 130.62 136.024 130.704 135.93L132.028 137.158C131.949 137.244 131.869 137.331 131.79 137.417ZM184.793 136.62C184.71 136.537 184.63 136.45 184.547 136.367L185.832 135.1C185.919 135.187 186.006 135.277 186.089 135.363L184.789 136.616L184.793 136.62ZM132.757 136.392L131.469 135.129C131.555 135.042 131.642 134.952 131.729 134.865L133.007 136.143C132.924 136.226 132.841 136.309 132.761 136.392H132.757ZM183.796 135.623L183.54 135.382L184.778 134.068L185.045 134.32L183.796 135.62V135.623ZM133.761 135.407L132.523 134.096C132.613 134.013 132.703 133.927 132.794 133.844L134.021 135.169C133.934 135.248 133.851 135.327 133.765 135.407H133.761ZM182.764 134.67C182.677 134.591 182.587 134.515 182.5 134.439L183.688 133.078C183.782 133.158 183.872 133.241 183.966 133.324L182.768 134.674L182.764 134.67ZM134.801 134.461L133.613 133.1L133.891 132.858L135.064 134.23L134.797 134.461H134.801ZM181.692 133.754C181.602 133.678 181.511 133.606 181.421 133.533L182.555 132.129C182.652 132.205 182.746 132.284 182.843 132.364L181.695 133.757L181.692 133.754ZM135.876 133.559L134.743 132.154L135.032 131.923L136.154 133.338L135.88 133.559H135.876ZM180.591 132.88L180.309 132.667L181.389 131.219L181.685 131.44L180.594 132.876L180.591 132.88ZM136.988 132.696L135.909 131.248C136.006 131.176 136.107 131.1 136.205 131.028L137.27 132.486L136.988 132.696ZM179.45 132.05C179.353 131.981 179.259 131.916 179.161 131.851L180.183 130.364C180.284 130.433 180.385 130.505 180.486 130.573L179.45 132.05ZM138.129 131.876L137.107 130.389C137.208 130.321 137.309 130.248 137.414 130.18L138.421 131.678C138.324 131.743 138.226 131.808 138.132 131.876H138.129ZM178.281 131.266C178.183 131.201 178.082 131.14 177.985 131.079L178.945 129.552C179.049 129.617 179.154 129.685 179.259 129.75L178.281 131.266ZM139.302 131.104L138.338 129.577L138.649 129.382L139.598 130.916L139.298 131.104H139.302ZM177.082 130.526L176.779 130.349L177.681 128.786L177.999 128.974L177.082 130.53V130.526ZM140.504 130.375L139.598 128.812C139.703 128.75 139.811 128.689 139.919 128.628L140.811 130.198L140.508 130.371L140.504 130.375ZM175.855 129.833C175.75 129.779 175.649 129.721 175.544 129.667L176.385 128.068C176.494 128.126 176.606 128.184 176.714 128.241L175.855 129.83V129.833ZM141.731 129.696L140.887 128.101C140.995 128.043 141.103 127.985 141.212 127.931L142.038 129.534L141.728 129.696H141.731ZM174.602 129.187L174.285 129.032L175.064 127.404L175.396 127.566L174.602 129.187ZM142.984 129.064L142.201 127.436C142.313 127.382 142.421 127.332 142.533 127.278L143.298 128.913L142.98 129.064H142.984ZM173.324 128.595L172.999 128.454L173.714 126.797L174.053 126.945L173.324 128.595ZM144.258 128.483L143.54 126.826C143.652 126.776 143.767 126.729 143.879 126.682L144.58 128.346C144.471 128.389 144.367 128.436 144.258 128.483ZM172.025 128.046L171.696 127.916L172.346 126.231C172.462 126.274 172.577 126.321 172.693 126.364L172.028 128.043L172.025 128.046ZM145.554 127.949L144.901 126.267L145.244 126.137L145.883 127.826L145.554 127.953V127.949ZM170.704 127.555L170.368 127.44L170.949 125.733L171.299 125.852L170.704 127.555ZM146.875 127.465L146.291 125.758L146.641 125.639L147.211 127.35L146.875 127.462V127.465ZM169.361 127.112L169.025 127.01L169.538 125.281L169.891 125.39L169.361 127.115V127.112ZM148.215 127.036L147.695 125.307L148.049 125.202L148.55 126.935L148.211 127.036H148.215ZM168.011 126.725L167.668 126.635L168.115 124.888L168.473 124.982L168.011 126.725ZM149.568 126.66L149.117 124.913L149.474 124.823L149.911 126.574L149.568 126.66ZM166.643 126.39L166.3 126.314L166.679 124.549L167.04 124.628L166.646 126.39H166.643ZM150.94 126.332L150.557 124.567L150.918 124.491L151.287 126.26L150.94 126.332ZM165.267 126.108L164.921 126.047L165.231 124.267L165.596 124.332L165.271 126.108H165.267ZM152.319 126.061L152.005 124.285L152.369 124.224L152.665 126.003L152.319 126.061ZM163.877 125.881L163.527 125.834L163.769 124.043L164.134 124.094L163.877 125.881ZM153.709 125.844L153.467 124.058L153.831 124.011L154.059 125.801L153.709 125.848V125.844ZM162.48 125.707C162.365 125.696 162.246 125.682 162.13 125.671L162.3 123.874C162.423 123.884 162.545 123.899 162.668 123.91L162.48 125.704V125.707ZM155.106 125.682L154.932 123.884C155.055 123.874 155.178 123.863 155.301 123.852L155.456 125.65C155.34 125.66 155.221 125.671 155.106 125.682ZM161.076 125.588C160.961 125.581 160.845 125.574 160.726 125.567L160.827 123.765C160.95 123.772 161.073 123.78 161.199 123.787L161.076 125.588ZM156.51 125.574L156.405 123.772C156.528 123.765 156.651 123.758 156.773 123.751L156.86 125.552C156.745 125.559 156.625 125.563 156.51 125.57V125.574ZM159.672 125.523C159.557 125.523 159.437 125.516 159.322 125.516L159.354 123.711C159.477 123.711 159.6 123.715 159.723 123.718L159.672 125.523ZM157.914 125.516L157.878 123.711C158.001 123.711 158.123 123.707 158.25 123.704L158.264 125.509C158.149 125.509 158.03 125.509 157.914 125.512V125.516Z" fill="white"/>
<path d="M68.4202 82.7327C69.2177 82.7327 69.8641 82.0862 69.8641 81.2888C69.8641 80.4913 69.2177 79.8448 68.4202 79.8448C67.6228 79.8448 66.9763 80.4913 66.9763 81.2888C66.9763 82.0862 67.6228 82.7327 68.4202 82.7327Z" fill="#E6F85A"/>
<path d="M196.568 76.5961C197.365 76.5961 198.012 75.9496 198.012 75.1522C198.012 74.3547 197.365 73.7083 196.568 73.7083C195.77 73.7083 195.124 74.3547 195.124 75.1522C195.124 75.9496 195.77 76.5961 196.568 76.5961Z" fill="#E6F85A"/>
<path d="M127.26 93.9231C128.057 93.9231 128.704 93.2766 128.704 92.4792C128.704 91.6817 128.057 91.0353 127.26 91.0353C126.462 91.0353 125.816 91.6817 125.816 92.4792C125.816 93.2766 126.462 93.9231 127.26 93.9231Z" fill="#E6F85A"/>
<path d="M186.099 87.0646C186.897 87.0646 187.543 86.4181 187.543 85.6207C187.543 84.8232 186.897 84.1768 186.099 84.1768C185.302 84.1768 184.656 84.8232 184.656 85.6207C184.656 86.4181 185.302 87.0646 186.099 87.0646Z" fill="#E6F85A"/>
<path d="M121.123 48.0788C121.921 48.0788 122.567 47.4323 122.567 46.6348C122.567 45.8374 121.921 45.1909 121.123 45.1909C120.326 45.1909 119.679 45.8374 119.679 46.6348C119.679 47.4323 120.326 48.0788 121.123 48.0788Z" fill="#E6F85A"/>
<path d="M104.518 42.3031C105.316 42.3031 105.962 41.6567 105.962 40.8592C105.962 40.0617 105.316 39.4153 104.518 39.4153C103.721 39.4153 103.074 40.0617 103.074 40.8592C103.074 41.6567 103.721 42.3031 104.518 42.3031Z" fill="#E6F85A"/>
<path d="M86.4692 139.767C87.2667 139.767 87.9131 139.121 87.9131 138.324C87.9131 137.526 87.2667 136.88 86.4692 136.88C85.6718 136.88 85.0253 137.526 85.0253 138.324C85.0253 139.121 85.6718 139.767 86.4692 139.767Z" fill="#E6F85A"/>
<path d="M64.0885 172.978C64.8859 172.978 65.5324 172.331 65.5324 171.534C65.5324 170.736 64.8859 170.09 64.0885 170.09C63.291 170.09 62.6446 170.736 62.6446 171.534C62.6446 172.331 63.291 172.978 64.0885 172.978Z" fill="#E6F85A"/>
<path d="M158.304 106.557C159.101 106.557 159.748 105.911 159.748 105.113C159.748 104.316 159.101 103.67 158.304 103.67C157.507 103.67 156.86 104.316 156.86 105.113C156.86 105.911 157.507 106.557 158.304 106.557Z" fill="#E6F85A"/>
<path d="M224.002 115.582C224.8 115.582 225.446 114.935 225.446 114.138C225.446 113.341 224.8 112.694 224.002 112.694C223.205 112.694 222.558 113.341 222.558 114.138C222.558 114.935 223.205 115.582 224.002 115.582Z" fill="#E6F85A"/>
<path d="M252.52 172.978C253.317 172.978 253.964 172.331 253.964 171.534C253.964 170.736 253.317 170.09 252.52 170.09C251.722 170.09 251.076 170.736 251.076 171.534C251.076 172.331 251.722 172.978 252.52 172.978Z" fill="#E6F85A"/>
<path d="M158.665 216.656C159.462 216.656 160.109 216.01 160.109 215.212C160.109 214.415 159.462 213.768 158.665 213.768C157.868 213.768 157.221 214.415 157.221 215.212C157.221 216.01 157.868 216.656 158.665 216.656Z" fill="#E6F85A"/>
<path d="M202.704 224.237C203.502 224.237 204.148 223.59 204.148 222.793C204.148 221.995 203.502 221.349 202.704 221.349C201.907 221.349 201.26 221.995 201.26 222.793C201.26 223.59 201.907 224.237 202.704 224.237Z" fill="#E6F85A"/>
<path d="M318.218 187.778C319.015 187.778 319.662 187.131 319.662 186.334C319.662 185.536 319.015 184.89 318.218 184.89C317.42 184.89 316.774 185.536 316.774 186.334C316.774 187.131 317.42 187.778 318.218 187.778Z" fill="#E6F85A"/>
<path d="M245.3 248.061C246.097 248.061 246.744 247.415 246.744 246.617C246.744 245.82 246.097 245.173 245.3 245.173C244.503 245.173 243.856 245.82 243.856 246.617C243.856 247.415 244.503 248.061 245.3 248.061Z" fill="#E6F85A"/>
<path d="M113.543 224.598C114.34 224.598 114.987 223.951 114.987 223.154C114.987 222.356 114.34 221.71 113.543 221.71C112.745 221.71 112.099 222.356 112.099 223.154C112.099 223.951 112.745 224.598 113.543 224.598Z" fill="#E6F85A"/>
<path d="M149.28 243.729C150.077 243.729 150.723 243.083 150.723 242.285C150.723 241.488 150.077 240.842 149.28 240.842C148.482 240.842 147.836 241.488 147.836 242.285C147.836 243.083 148.482 243.729 149.28 243.729Z" fill="#E6F85A"/>
<path d="M69.5032 285.242C70.3006 285.242 70.9471 284.595 70.9471 283.798C70.9471 283.001 70.3006 282.354 69.5032 282.354C68.7057 282.354 68.0593 283.001 68.0593 283.798C68.0593 284.595 68.7057 285.242 69.5032 285.242Z" fill="#E6F85A"/>
<path d="M53.2591 223.515C54.0566 223.515 54.703 222.868 54.703 222.071C54.703 221.273 54.0566 220.627 53.2591 220.627C52.4616 220.627 51.8152 221.273 51.8152 222.071C51.8152 222.868 52.4616 223.515 53.2591 223.515Z" fill="#E6F85A"/>
<path d="M158.665 276.579C159.462 276.579 160.109 275.932 160.109 275.135C160.109 274.337 159.462 273.691 158.665 273.691C157.868 273.691 157.221 274.337 157.221 275.135C157.221 275.932 157.868 276.579 158.665 276.579Z" fill="#E6F85A"/>
<path d="M199.095 277.662C199.892 277.662 200.539 277.015 200.539 276.218C200.539 275.42 199.892 274.774 199.095 274.774C198.297 274.774 197.651 275.42 197.651 276.218C197.651 277.015 198.297 277.662 199.095 277.662Z" fill="#E6F85A"/>
<path d="M271.651 163.592C272.449 163.592 273.095 162.946 273.095 162.148C273.095 161.351 272.449 160.704 271.651 160.704C270.854 160.704 270.208 161.351 270.208 162.148C270.208 162.946 270.854 163.592 271.651 163.592Z" fill="#E6F85A"/>
<path d="M301.974 116.304C302.771 116.304 303.418 115.657 303.418 114.86C303.418 114.062 302.771 113.416 301.974 113.416C301.176 113.416 300.53 114.062 300.53 114.86C300.53 115.657 301.176 116.304 301.974 116.304Z" fill="#E6F85A"/>
<path d="M220.392 127.494C221.19 127.494 221.836 126.848 221.836 126.05C221.836 125.253 221.19 124.606 220.392 124.606C219.595 124.606 218.949 125.253 218.949 126.05C218.949 126.848 219.595 127.494 220.392 127.494Z" fill="#E6F85A"/>
<path d="M248.188 82.0109C248.985 82.0109 249.632 81.3644 249.632 80.567C249.632 79.7695 248.985 79.123 248.188 79.123C247.39 79.123 246.744 79.7695 246.744 80.567C246.744 81.3644 247.39 82.0109 248.188 82.0109Z" fill="#E6F85A"/>
<path d="M275.622 51.6885C276.42 51.6885 277.066 51.042 277.066 50.2446C277.066 49.4471 276.42 48.8007 275.622 48.8007C274.825 48.8007 274.178 49.4471 274.178 50.2446C274.178 51.042 274.825 51.6885 275.622 51.6885Z" fill="#E6F85A"/>
<path d="M162.636 169.007C163.433 169.007 164.08 168.36 164.08 167.563C164.08 166.765 163.433 166.119 162.636 166.119C161.838 166.119 161.192 166.765 161.192 167.563C161.192 168.36 161.838 169.007 162.636 169.007Z" fill="#E6F85A"/>
<path d="M214.617 169.007C215.414 169.007 216.061 168.36 216.061 167.563C216.061 166.765 215.414 166.119 214.617 166.119C213.819 166.119 213.173 166.765 213.173 167.563C213.173 168.36 213.819 169.007 214.617 169.007Z" fill="#E6F85A"/>
<path d="M120.04 174.782C120.838 174.782 121.484 174.136 121.484 173.338C121.484 172.541 120.838 171.895 120.04 171.895C119.243 171.895 118.596 172.541 118.596 173.338C118.596 174.136 119.243 174.782 120.04 174.782Z" fill="#E6F85A"/>
<path d="M144.226 150.236C145.023 150.236 145.67 149.589 145.67 148.792C145.67 147.994 145.023 147.348 144.226 147.348C143.428 147.348 142.782 147.994 142.782 148.792C142.782 149.589 143.428 150.236 144.226 150.236Z" fill="#E6F85A"/>
</g>
</svg>
