<svg width="319" height="17" viewBox="0 0 319 17" fill="none" xmlns="http://www.w3.org/2000/svg">
<path d="M66.65 11L254.65 11" stroke="#E6F85A" stroke-miterlimit="10"/>
<path d="M88.33 8L91.33 14L90.33 16.43H83.33L81.33 14L73.33 14L72.33 16H67.4L60.33 6L42.94 6L40.33 8L17.33 8L15.87 6L37.33 6L40.33 1L44.33 1L46.33 3L58.33 3L59.33 1L65.33 1L69.33 8L88.33 8Z" fill="#E6F85A" stroke="#E6F85A" stroke-miterlimit="10"/>
<path d="M15.87 6L5.68 6L1 10.68" stroke="#E6F85A" stroke-miterlimit="10"/>
<path d="M231 8L228 14L229 16.43H236L238 14H246L247 16L251.93 16L259 6L276.39 6L279 8L302 8L303.46 6L282 6L279 1L275 1L273 3L261 3L260 1L254 1L250 8L231 8Z" fill="#E6F85A" stroke="#E6F85A" stroke-miterlimit="10"/>
<path d="M303.46 6L313.65 6L318.33 10.68" stroke="#E6F85A" stroke-miterlimit="10"/>
</svg>
