<svg width="300" height="157" viewBox="0 0 300 157" fill="none" xmlns="http://www.w3.org/2000/svg">
<rect x="1" y="1" width="299" height="35" fill="url(#paint0_linear_3417_736)"/>
<path d="M157.491 128.818L150.5 135.81L143.509 128.818H157.491Z" fill="#E6F85A"/>
<path d="M163.379 130.364L150.5 143.242L137.621 130.364" stroke="#E6F85A"/>
<g filter="url(#filter0_f_3417_736)">
<path d="M168.273 134.227L150.5 152L132.727 134.227" stroke="#E0FF4E"/>
</g>
<path d="M168.273 134.227L150.5 152L132.727 134.227" stroke="#E0FF4E"/>
<path d="M150.5 133.455L150.5 50" stroke="#E6F85A"/>
<path d="M52.074 15.796C52.4006 15.796 52.6666 15.8987 52.872 16.104C53.0773 16.3093 53.18 16.5753 53.18 16.902C53.18 17.2287 53.0773 17.4947 52.872 17.7C52.6666 17.9053 52.4006 18.008 52.074 18.008C51.7473 18.008 51.4813 17.9053 51.276 17.7C51.0706 17.4947 50.968 17.2287 50.968 16.902C50.968 16.5753 51.0706 16.3093 51.276 16.104C51.4813 15.8987 51.7473 15.796 52.074 15.796ZM52.536 18.302C52.536 18.722 52.5173 19.086 52.48 19.394C52.4426 19.6927 52.3446 20.0053 52.186 20.332C52.0366 20.6587 51.808 20.99 51.5 21.326C51.2293 21.6153 51.024 21.942 50.884 22.306C50.744 22.6607 50.674 23.034 50.674 23.426C50.674 23.9207 50.814 24.3127 51.094 24.602C51.374 24.8913 51.7566 25.036 52.242 25.036C52.7646 25.036 53.1846 24.854 53.502 24.49C53.8286 24.126 54.0106 23.6267 54.048 22.992H55.826C55.77 23.888 55.4246 24.5927 54.79 25.106C54.1553 25.6193 53.3106 25.876 52.256 25.876C51.0706 25.876 50.1326 25.6473 49.442 25.19C48.7513 24.7327 48.406 24.1073 48.406 23.314C48.406 22.922 48.5273 22.5487 48.77 22.194C49.022 21.83 49.4513 21.41 50.058 20.934C50.562 20.5327 50.9493 20.0893 51.22 19.604C51.5 19.1093 51.64 18.6753 51.64 18.302H52.536ZM57.1184 14.2H59.4984V23.132H65.5184V24H57.1184V14.2ZM67.2197 14.2H69.5997V24H67.2197V14.2ZM76.9327 24.14C75.4114 24.14 74.1981 23.8507 73.2927 23.272C72.3967 22.6933 71.9254 21.8813 71.8787 20.836H73.7687C73.8154 21.6947 74.0954 22.3153 74.6087 22.698C75.1314 23.0807 75.8967 23.272 76.9047 23.272C77.7354 23.272 78.3467 23.1273 78.7387 22.838C79.1307 22.5487 79.3267 22.1193 79.3267 21.55C79.3267 21.242 79.2567 20.976 79.1167 20.752C78.9767 20.528 78.7014 20.3227 78.2907 20.136C77.8894 19.9493 77.2967 19.7813 76.5127 19.632C75.2807 19.3893 74.2401 19.044 73.3907 18.596C72.5507 18.148 72.1307 17.49 72.1307 16.622C72.1307 14.9233 73.6754 14.074 76.7647 14.074C78.2767 14.074 79.4154 14.326 80.1807 14.83C80.9554 15.3247 81.3801 15.9873 81.4547 16.818H79.5927C79.4621 16.1367 79.1541 15.656 78.6687 15.376C78.1834 15.0867 77.5207 14.942 76.6807 14.942C75.9434 14.942 75.3927 15.068 75.0287 15.32C74.6741 15.572 74.4967 15.894 74.4967 16.286C74.4967 16.5007 74.5574 16.692 74.6787 16.86C74.8094 17.028 75.0661 17.196 75.4487 17.364C75.8407 17.5227 76.4101 17.686 77.1567 17.854C78.2114 18.0873 79.0467 18.3207 79.6627 18.554C80.2787 18.7873 80.7734 19.1233 81.1467 19.562C81.5201 19.9913 81.7067 20.5653 81.7067 21.284C81.7067 21.8813 81.5061 22.3947 81.1047 22.824C80.7127 23.2533 80.1574 23.58 79.4387 23.804C78.7201 24.028 77.8847 24.14 76.9327 24.14ZM86.6551 15.068H82.5951V14.2H93.0811V15.068H89.0211V24H86.6551V15.068ZM99.5868 24.14C98.4201 24.14 97.4121 23.9393 96.5628 23.538C95.7135 23.1367 95.0601 22.558 94.6028 21.802C94.1548 21.0367 93.9308 20.122 93.9308 19.058C93.9308 18.0127 94.1548 17.1167 94.6028 16.37C95.0601 15.6233 95.7135 15.054 96.5628 14.662C97.4121 14.2607 98.4201 14.06 99.5868 14.06C100.744 14.06 101.747 14.2607 102.597 14.662C103.446 15.054 104.095 15.6233 104.543 16.37C105 17.1167 105.229 18.0127 105.229 19.058C105.229 20.122 105 21.0367 104.543 21.802C104.095 22.558 103.446 23.1367 102.597 23.538C101.757 23.9393 100.753 24.14 99.5868 24.14ZM99.5868 23.272C100.641 23.272 101.444 22.9127 101.995 22.194C102.545 21.4753 102.821 20.43 102.821 19.058C102.821 17.714 102.545 16.692 101.995 15.992C101.444 15.2827 100.641 14.928 99.5868 14.928C98.5321 14.928 97.7248 15.2827 97.1648 15.992C96.6141 16.692 96.3388 17.714 96.3388 19.058C96.3388 20.43 96.6141 21.4753 97.1648 22.194C97.7155 22.9127 98.5228 23.272 99.5868 23.272ZM111.04 14.2H115.156C116.631 14.2 117.765 14.4333 118.558 14.9C119.361 15.3573 119.762 16.1367 119.762 17.238C119.762 18.3207 119.365 19.1 118.572 19.576C117.788 20.0427 116.649 20.276 115.156 20.276H113.42V24H111.04V14.2ZM115.17 19.394C115.917 19.394 116.472 19.24 116.836 18.932C117.209 18.624 117.396 18.0593 117.396 17.238C117.396 16.426 117.214 15.8613 116.85 15.544C116.486 15.2267 115.926 15.068 115.17 15.068H113.42V19.394H115.17ZM126.941 21.522H121.957L120.753 24H119.101L124.197 14.06H125.723L130.525 24H128.103L126.941 21.522ZM126.535 20.654L124.491 16.272L122.377 20.654H126.535ZM139.944 21.83C140.205 22.4647 140.42 22.9547 140.588 23.3C140.765 23.6453 140.929 23.8133 141.078 23.804V24H138.754C138.577 23.8133 138.413 23.5753 138.264 23.286C138.124 22.9967 137.975 22.6327 137.816 22.194C137.583 21.578 137.363 21.0973 137.158 20.752C136.953 20.4067 136.687 20.1687 136.36 20.038H136.15H134.078V24H131.712V14.2H136.15C137.615 14.2 138.745 14.4193 139.538 14.858C140.341 15.2967 140.742 16.0433 140.742 17.098C140.742 18.526 139.972 19.4267 138.432 19.8C138.749 19.996 139.025 20.2573 139.258 20.584C139.501 20.9013 139.729 21.3167 139.944 21.83ZM134.078 19.17H136.164C136.873 19.17 137.419 19.0253 137.802 18.736C138.194 18.4467 138.39 17.9007 138.39 17.098C138.39 16.314 138.194 15.782 137.802 15.502C137.419 15.2127 136.873 15.068 136.164 15.068H134.078V19.17ZM149.24 21.522H144.256L143.052 24H141.4L146.496 14.06H148.022L152.824 24H150.402L149.24 21.522ZM148.834 20.654L146.79 16.272L144.676 20.654H148.834ZM158.085 14.2H162.285C164.217 14.2 165.692 14.606 166.709 15.418C167.736 16.2207 168.249 17.392 168.249 18.932C168.249 20.584 167.745 21.844 166.737 22.712C165.739 23.5707 164.283 24 162.369 24H158.085V14.2ZM162.565 23.132C163.648 23.132 164.465 22.782 165.015 22.082C165.566 21.3727 165.841 20.3227 165.841 18.932C165.841 17.672 165.561 16.7153 165.001 16.062C164.451 15.3993 163.639 15.068 162.565 15.068H160.465V23.132H162.565ZM170.007 14.2H179.065V15.068H172.387V18.316H178.295V19.184H172.387V23.132H179.065V24H170.007V14.2ZM185.269 24.14C183.747 24.14 182.534 23.8507 181.629 23.272C180.733 22.6933 180.261 21.8813 180.215 20.836H182.105C182.151 21.6947 182.431 22.3153 182.945 22.698C183.467 23.0807 184.233 23.272 185.241 23.272C186.071 23.272 186.683 23.1273 187.075 22.838C187.467 22.5487 187.663 22.1193 187.663 21.55C187.663 21.242 187.593 20.976 187.453 20.752C187.313 20.528 187.037 20.3227 186.627 20.136C186.225 19.9493 185.633 19.7813 184.849 19.632C183.617 19.3893 182.576 19.044 181.727 18.596C180.887 18.148 180.467 17.49 180.467 16.622C180.467 14.9233 182.011 14.074 185.101 14.074C186.613 14.074 187.751 14.326 188.517 14.83C189.291 15.3247 189.716 15.9873 189.791 16.818H187.929C187.798 16.1367 187.49 15.656 187.005 15.376C186.519 15.0867 185.857 14.942 185.017 14.942C184.279 14.942 183.729 15.068 183.365 15.32C183.01 15.572 182.833 15.894 182.833 16.286C182.833 16.5007 182.893 16.692 183.015 16.86C183.145 17.028 183.402 17.196 183.785 17.364C184.177 17.5227 184.746 17.686 185.493 17.854C186.547 18.0873 187.383 18.3207 187.999 18.554C188.615 18.7873 189.109 19.1233 189.483 19.562C189.856 19.9913 190.043 20.5653 190.043 21.284C190.043 21.8813 189.842 22.3947 189.441 22.824C189.049 23.2533 188.493 23.58 187.775 23.804C187.056 24.028 186.221 24.14 185.269 24.14ZM191.827 14.2H195.943C197.418 14.2 198.552 14.4333 199.345 14.9C200.148 15.3573 200.549 16.1367 200.549 17.238C200.549 18.3207 200.152 19.1 199.359 19.576C198.575 20.0427 197.436 20.276 195.943 20.276H194.207V24H191.827V14.2ZM195.957 19.394C196.704 19.394 197.259 19.24 197.623 18.932C197.996 18.624 198.183 18.0593 198.183 17.238C198.183 16.426 198.001 15.8613 197.637 15.544C197.273 15.2267 196.713 15.068 195.957 15.068H194.207V19.394H195.957ZM201.835 14.2H210.893V15.068H204.215V18.316H210.123V19.184H204.215V23.132H210.893V24H201.835V14.2ZM217.811 24.14C216.635 24.14 215.608 23.9393 214.731 23.538C213.863 23.1273 213.191 22.544 212.715 21.788C212.248 21.032 212.015 20.1407 212.015 19.114C212.015 18.0873 212.248 17.196 212.715 16.44C213.191 15.684 213.867 15.1007 214.745 14.69C215.622 14.2793 216.658 14.074 217.853 14.074C218.786 14.074 219.612 14.2093 220.331 14.48C221.049 14.7507 221.628 15.138 222.067 15.642C222.505 16.1367 222.771 16.7293 222.865 17.42H221.003C220.844 16.6173 220.494 16.006 219.953 15.586C219.421 15.1567 218.735 14.942 217.895 14.942C216.803 14.942 215.949 15.306 215.333 16.034C214.726 16.762 214.423 17.784 214.423 19.1C214.423 20.4067 214.721 21.4287 215.319 22.166C215.925 22.9033 216.761 23.272 217.825 23.272C218.291 23.272 218.711 23.2253 219.085 23.132C219.458 23.0293 219.859 22.8567 220.289 22.614V19.618H216.929V18.806H222.655V22.628C222.16 23.0947 221.474 23.4633 220.597 23.734C219.729 24.0047 218.8 24.14 217.811 24.14ZM231.613 21.522H226.629L225.425 24H223.773L228.869 14.06H230.395L235.197 24H232.775L231.613 21.522ZM231.207 20.654L229.163 16.272L227.049 20.654H231.207ZM244.616 21.83C244.877 22.4647 245.092 22.9547 245.26 23.3C245.437 23.6453 245.601 23.8133 245.75 23.804V24H243.426C243.249 23.8133 243.085 23.5753 242.936 23.286C242.796 22.9967 242.647 22.6327 242.488 22.194C242.255 21.578 242.035 21.0973 241.83 20.752C241.625 20.4067 241.359 20.1687 241.032 20.038H240.822H238.75V24H236.384V14.2H240.822C242.287 14.2 243.417 14.4193 244.21 14.858C245.013 15.2967 245.414 16.0433 245.414 17.098C245.414 18.526 244.644 19.4267 243.104 19.8C243.421 19.996 243.697 20.2573 243.93 20.584C244.173 20.9013 244.401 21.3167 244.616 21.83ZM238.75 19.17H240.836C241.545 19.17 242.091 19.0253 242.474 18.736C242.866 18.4467 243.062 17.9007 243.062 17.098C243.062 16.314 242.866 15.782 242.474 15.502C242.091 15.2127 241.545 15.068 240.836 15.068H238.75V19.17ZM249.46 21.634C249.46 21.214 249.478 20.8547 249.516 20.556C249.553 20.248 249.646 19.9307 249.796 19.604C249.954 19.2773 250.188 18.946 250.496 18.61C250.766 18.3207 250.972 17.9987 251.112 17.644C251.252 17.28 251.322 16.902 251.322 16.51C251.322 16.0153 251.182 15.6233 250.902 15.334C250.622 15.0447 250.239 14.9 249.754 14.9C249.231 14.9 248.806 15.082 248.48 15.446C248.162 15.81 247.985 16.3093 247.948 16.944H246.17C246.226 16.048 246.571 15.3433 247.206 14.83C247.84 14.3167 248.685 14.06 249.74 14.06C250.925 14.06 251.863 14.2887 252.554 14.746C253.244 15.2033 253.59 15.8287 253.59 16.622C253.59 17.014 253.464 17.392 253.212 17.756C252.969 18.1107 252.544 18.526 251.938 19.002C251.434 19.4033 251.042 19.8513 250.762 20.346C250.491 20.8313 250.356 21.2607 250.356 21.634H249.46ZM249.922 24.14C249.595 24.14 249.329 24.0373 249.124 23.832C248.918 23.6267 248.816 23.3607 248.816 23.034C248.816 22.7073 248.918 22.4413 249.124 22.236C249.329 22.0307 249.595 21.928 249.922 21.928C250.248 21.928 250.514 22.0307 250.72 22.236C250.925 22.4413 251.028 22.7073 251.028 23.034C251.028 23.3607 250.925 23.6267 250.72 23.832C250.514 24.0373 250.248 24.14 249.922 24.14Z" fill="#F4FABF"/>
<line y1="0.5" x2="300" y2="0.5" stroke="url(#paint1_linear_3417_736)"/>
<line y1="35.5" x2="300" y2="35.5" stroke="url(#paint2_linear_3417_736)"/>
<defs>
<filter id="filter0_f_3417_736" x="128.374" y="129.874" width="44.2526" height="26.8334" filterUnits="userSpaceOnUse" color-interpolation-filters="sRGB">
<feFlood flood-opacity="0" result="BackgroundImageFix"/>
<feBlend mode="normal" in="SourceGraphic" in2="BackgroundImageFix" result="shape"/>
<feGaussianBlur stdDeviation="2" result="effect1_foregroundBlur_3417_736"/>
</filter>
<linearGradient id="paint0_linear_3417_736" x1="1" y1="18.5" x2="300" y2="18.5" gradientUnits="userSpaceOnUse">
<stop stop-color="#4C532E" stop-opacity="0"/>
<stop offset="0.25" stop-color="#4C532E"/>
<stop offset="0.5" stop-color="#4C532E"/>
<stop offset="0.75" stop-color="#4C532E"/>
<stop offset="1" stop-color="#4C532E" stop-opacity="0"/>
</linearGradient>
<linearGradient id="paint1_linear_3417_736" x1="0" y1="1.5" x2="300" y2="1.5" gradientUnits="userSpaceOnUse">
<stop stop-color="#E6F85A" stop-opacity="0"/>
<stop offset="0.25" stop-color="#E6F85A"/>
<stop offset="0.755" stop-color="#E6F85A"/>
<stop offset="1" stop-color="#E6F85A" stop-opacity="0"/>
</linearGradient>
<linearGradient id="paint2_linear_3417_736" x1="0" y1="36.5" x2="300" y2="36.5" gradientUnits="userSpaceOnUse">
<stop stop-color="#E6F85A" stop-opacity="0"/>
<stop offset="0.25" stop-color="#E6F85A"/>
<stop offset="0.755" stop-color="#E6F85A"/>
<stop offset="1" stop-color="#E6F85A" stop-opacity="0"/>
</linearGradient>
</defs>
</svg>
