<svg width="95" height="56" viewBox="0 0 95 56" fill="none" xmlns="http://www.w3.org/2000/svg">
<path d="M77.0961 50.9447H18.0863L6 29.9781L18.0863 9.0116H77.0961L89.1824 29.9781L77.0961 50.9447Z" stroke="#C5DF4B" stroke-miterlimit="10"/>
<path d="M20.5885 48L10 30L20.5885 12H74.4115L85 30L74.4115 48H20.5885Z" fill="#E6F85A" fill-opacity="0.15" stroke="#C5DF4B" stroke-miterlimit="10"/>
<path d="M13.5504 16.909L11.6806 13.5543L15.143 6.32788L18.3565 6.3768L18.6338 5.6919L41.3632 6.39078L42.0599 5.00699C42.0599 5.00699 44.1573 5.02097 46.4465 5.02097C49.1695 5.02097 52.1698 5 52.1698 5L52.7457 6.38379L76.2002 5.67792L76.9325 6.35584L80.5442 6.29993L84.618 13.7221L82.0728 17.3772" stroke="#C5DF4B" stroke-width="2" stroke-miterlimit="10"/>
<g filter="url(#filter0_f_3410_267)">
<path d="M77.0961 50.9447H18.0863L6 29.9781L18.0863 9.0116H77.0961L89.1824 29.9781L77.0961 50.9447Z" stroke="#C5DF4B" stroke-width="2" stroke-miterlimit="10"/>
<path d="M13.5504 16.909L11.6806 13.5543L15.143 6.32788L18.3565 6.3768L18.6338 5.6919L41.3632 6.39078L42.0599 5.00699C42.0599 5.00699 44.1573 5.02097 46.4465 5.02097C49.1695 5.02097 52.1698 5 52.1698 5L52.7457 6.38379L76.2002 5.67792L76.9325 6.35584L80.5442 6.29993L84.618 13.7221L82.0728 17.3772" stroke="#C5DF4B" stroke-width="2" stroke-miterlimit="10"/>
</g>
<path d="M32.2732 36L29.9072 33.186L27.4572 36H26.5192L29.4452 32.626L26.5192 29.14H27.9892L30.2432 31.828L32.5252 29.14H33.4352L30.6912 32.374L33.7152 36H32.2732ZM38.7864 36.14C37.4984 36.14 36.4717 35.8973 35.7064 35.412C34.9504 34.9267 34.5537 34.2547 34.5164 33.396H35.7624C35.7997 34.0773 36.0797 34.6047 36.6024 34.978C37.1251 35.3513 37.8437 35.538 38.7584 35.538C39.6731 35.538 40.3731 35.342 40.8584 34.95C41.3437 34.5487 41.5864 33.9747 41.5864 33.228C41.5864 32.5 41.3437 31.9633 40.8584 31.618C40.3824 31.2727 39.6404 31.1 38.6324 31.1C37.9791 31.1 37.3817 31.1513 36.8404 31.254V30.456C37.1671 30.512 37.6104 30.54 38.1704 30.54C39.0571 30.54 39.7711 30.358 40.3124 29.994C40.8537 29.6207 41.1244 29.1307 41.1244 28.524C41.1244 27.9453 40.9004 27.4927 40.4524 27.166C40.0044 26.83 39.3884 26.662 38.6044 26.662C37.7551 26.662 37.0644 26.858 36.5324 27.25C36.0097 27.6327 35.7297 28.1507 35.6924 28.804H34.4324C34.4511 28.2627 34.6377 27.7867 34.9924 27.376C35.3564 26.956 35.8464 26.634 36.4624 26.41C37.0877 26.1767 37.8017 26.06 38.6044 26.06C39.3791 26.06 40.0697 26.1673 40.6764 26.382C41.2831 26.5873 41.7544 26.8813 42.0904 27.264C42.4264 27.6373 42.5944 28.062 42.5944 28.538C42.5944 29.0513 42.3937 29.5087 41.9924 29.91C41.6004 30.302 41.0591 30.582 40.3684 30.75C42.1604 31.0113 43.0564 31.8327 43.0564 33.214C43.0564 34.1287 42.6784 34.8473 41.9224 35.37C41.1664 35.8833 40.1211 36.14 38.7864 36.14Z" fill="#F4FABF"/>
<path d="M52.4371 23.1613C52.8052 23.1613 53.18 23.1594 53.5547 23.1613C53.9498 23.1639 54.0827 23.2958 54.0833 23.6959C54.0853 24.5813 54.0846 25.4667 54.0833 26.3522C54.0833 26.8159 53.965 26.9326 53.5002 26.9346C53.1419 26.9359 52.7829 26.9346 52.4206 26.9346C52.4121 27.0068 52.4042 27.0468 52.4035 27.0861C52.3865 28.0752 53.1405 28.8255 54.1675 28.8275C56.4554 28.8314 58.7433 28.8288 61.0312 28.8288C61.6623 28.8288 62.2941 28.8399 62.9252 28.8249C63.9364 28.8006 64.7043 27.925 64.5649 26.9346C64.2033 26.9346 63.8371 26.9359 63.4703 26.9346C63.039 26.9326 62.9121 26.8067 62.9114 26.3778C62.9101 25.4923 62.9101 24.6069 62.9114 23.7214C62.9121 23.2879 63.0364 23.1633 63.4643 23.1613C63.8312 23.16 64.1974 23.1613 64.5577 23.1613C64.6254 22.7934 64.6142 22.4517 64.5373 22.1493C64.3263 21.3183 63.6208 20.7877 62.705 20.8474C62.6215 20.8526 62.5367 20.8631 62.4499 20.8789C62.4624 21.0323 62.4841 21.1858 62.4848 21.3393C62.488 22.2739 62.4874 23.2085 62.4848 24.1432C62.4848 24.2488 62.4802 24.3576 62.4578 24.4606C62.3197 25.0968 61.8227 25.4687 61.1048 25.47C59.3665 25.472 57.6276 25.4713 55.8893 25.47C55.7749 25.47 55.6599 25.4608 55.5468 25.4431C54.9932 25.3559 54.5264 24.8765 54.5172 24.317C54.4982 23.1718 54.5113 22.026 54.5113 20.8749C53.1635 20.6309 52.1702 21.6882 52.4358 23.1626L52.4371 23.1613Z" fill="#F4FABF"/>
<path d="M55.8656 24.6423C57.6197 24.6443 59.3744 24.6443 61.1285 24.6423C61.494 24.6423 61.6472 24.481 61.6478 24.1157C61.6478 23.2145 61.6478 22.3127 61.6478 21.4115C61.6478 20.9688 61.5249 20.8422 61.0805 20.8409C60.2278 20.8389 59.3751 20.8402 58.523 20.8409C57.6374 20.8409 56.7525 20.8376 55.867 20.8422C55.483 20.8441 55.3482 20.9858 55.3482 21.361C55.3482 22.2785 55.3482 23.1968 55.3482 24.1144C55.3482 24.4803 55.5014 24.6417 55.8663 24.6423H55.8656Z" fill="#F4FABF"/>
<path d="M65.3643 31.3664C64.8371 31.331 64.3052 31.3573 63.7681 31.3573V33.4226C63.8055 33.4338 63.8286 33.4462 63.8509 33.4462C64.2934 33.4482 64.7358 33.4548 65.1783 33.4475C65.6983 33.4384 66.0362 33.1058 66.0586 32.587C66.0658 32.4158 66.0652 32.242 66.0435 32.0722C65.9948 31.6983 65.7325 31.3914 65.3643 31.3664Z" fill="#F4FABF"/>
<path d="M53.2273 26.0793V24.01C52.6895 24.01 52.1669 23.9884 51.6468 24.0166C51.2202 24.0402 50.9414 24.4265 50.9342 24.9256C50.9236 25.6307 51.1445 26.0354 51.6271 26.0701C52.1537 26.1082 52.6849 26.0787 53.2273 26.0787V26.0793Z" fill="#F4FABF"/>
<path d="M51.5883 33.1936C52.1215 33.2724 52.6744 33.2107 53.2332 33.2107C53.2372 33.1451 53.2431 33.0894 53.2437 33.0343C53.2444 32.4138 53.2437 31.7933 53.2437 31.1453C52.6928 31.1453 52.178 31.127 51.6646 31.1512C51.2524 31.1709 50.9605 31.5408 50.9342 31.998C50.8927 32.7247 51.065 33.1163 51.5883 33.1936Z" fill="#F4FABF"/>
<path d="M65.4031 24.0297C64.864 23.9779 64.3157 24.0179 63.7648 24.0179V26.0879C64.2927 26.0879 64.7911 26.1023 65.2888 26.0833C65.7286 26.0662 66.031 25.7212 66.0599 25.2516C66.104 24.5347 65.8883 24.0763 65.4025 24.0297H65.4031Z" fill="#F4FABF"/>
<path d="M68.988 24.1085C68.9841 23.0001 68.5535 22.0549 67.7876 21.2587C66.5779 20.002 65.0401 19.9142 63.3695 20.0447C63.9376 20.1811 64.3735 20.4211 64.739 20.7898C64.787 20.8383 64.8869 20.8501 64.9638 20.854C66.7534 20.9478 68.1426 22.3796 68.1498 24.1852C68.1629 27.2771 68.161 30.3682 68.1498 33.4601C68.1445 34.7869 67.5055 35.7517 66.351 36.3774C65.8119 36.6699 65.2288 36.8057 64.5832 36.7978V34.2891C64.1946 34.2891 63.8344 34.2898 63.4734 34.2891C63.0487 34.2878 62.9126 34.154 62.912 33.7309C62.91 32.8619 62.9113 31.9922 62.912 31.1232C62.912 30.6142 63.0218 30.5066 63.5339 30.506C63.8823 30.506 64.2308 30.506 64.5687 30.506V29.0539C63.9632 29.5589 63.288 29.6756 62.5609 29.673C59.7963 29.6605 57.0325 29.6684 54.2679 29.6671C54.0963 29.6671 53.9234 29.6579 53.7531 29.6389C53.2627 29.5845 52.834 29.3765 52.4225 29.0591V30.3007C52.8005 30.3007 53.1601 30.3 53.5198 30.3007C53.9629 30.302 54.0838 30.4233 54.0845 30.8739C54.0858 31.7515 54.0858 32.6291 54.0845 33.506C54.0838 33.9467 53.9543 34.0746 53.5112 34.0766C53.1522 34.0779 52.7933 34.0766 52.4008 34.0766V36.8169C52.1786 36.7939 51.9912 36.7795 51.8058 36.7552C50.1149 36.5348 48.8526 35.1568 48.8467 33.4824C48.8348 30.3741 48.8329 27.2666 48.8467 24.1584C48.8545 22.3744 50.2523 20.9465 52.0326 20.8527C52.1095 20.8488 52.2095 20.8376 52.2581 20.7884C52.6243 20.4218 53.0589 20.1791 53.6171 20.046C52.911 20.046 52.2568 19.9692 51.6263 20.0598C49.4555 20.3746 48.0064 22.0891 48.0025 24.2817C47.9972 27.3072 48.0005 30.3335 48.0025 33.3591C48.0025 33.5801 48.0051 33.8037 48.0393 34.0208C48.3273 35.8298 49.6455 37.1901 51.4514 37.5416C51.7618 37.602 52.078 37.6295 52.4028 37.6741C52.4028 38.0407 52.4021 38.4008 52.4028 38.7615C52.406 40.1133 53.2844 40.9974 54.6341 40.9988C57.21 41.0007 59.7858 41.0001 62.361 40.9974C62.5405 40.9974 62.7246 40.9929 62.8988 40.9568C63.9106 40.7462 64.574 39.9211 64.5904 38.8593C64.5963 38.4605 64.5917 38.0611 64.5917 37.6734C64.9389 37.6262 65.2571 37.5993 65.568 37.5377C67.5489 37.1441 68.9716 35.5058 68.9854 33.5302C69.0078 30.3899 68.9979 27.2489 68.9874 24.1079L68.988 24.1085Z" fill="#F4FABF"/>
<defs>
<filter id="filter0_f_3410_267" x="0.845734" y="-0.00463867" width="93.4909" height="55.9493" filterUnits="userSpaceOnUse" color-interpolation-filters="sRGB">
<feFlood flood-opacity="0" result="BackgroundImageFix"/>
<feBlend mode="normal" in="SourceGraphic" in2="BackgroundImageFix" result="shape"/>
<feGaussianBlur stdDeviation="2" result="effect1_foregroundBlur_3410_267"/>
</filter>
</defs>
</svg>
