<svg width="157" height="68" viewBox="0 0 157 68" fill="none" xmlns="http://www.w3.org/2000/svg">
<path d="M70.3462 8.356L70.6995 8.00266L70.3464 7.64911L66.3513 3.64911L65.9976 3.2949L65.6438 3.64911L61.6487 7.64911L61.2956 8.00266L61.649 8.356L65.644 12.3511L65.9976 12.7046L66.3511 12.3511L70.3462 8.356Z" stroke="#E6F85A"/>
<path d="M83.2151 12.12C81.7431 12.12 80.6151 11.748 79.8311 11.004C79.0471 10.252 78.6551 9.172 78.6551 7.764C78.6551 6.388 79.0431 5.332 79.8191 4.596C80.6031 3.852 81.7271 3.48 83.1911 3.48C84.4071 3.48 85.3831 3.724 86.1191 4.212C86.8551 4.7 87.2911 5.392 87.4271 6.288H86.1671C86.0391 5.6 85.7191 5.068 85.2071 4.692C84.6951 4.308 84.0431 4.116 83.2511 4.116C82.2591 4.116 81.4991 4.428 80.9711 5.052C80.4431 5.676 80.1791 6.58 80.1791 7.764C80.1791 8.964 80.4431 9.884 80.9711 10.524C81.5071 11.164 82.2711 11.484 83.2631 11.484C84.0551 11.484 84.7031 11.296 85.2071 10.92C85.7191 10.544 86.0391 10.008 86.1671 9.312H87.4271C87.2991 10.208 86.8631 10.9 86.1191 11.388C85.3831 11.876 84.4151 12.12 83.2151 12.12ZM91.9537 12.12C91.2497 12.12 90.6337 11.996 90.1057 11.748C89.5857 11.492 89.1817 11.136 88.8937 10.68C88.6137 10.216 88.4737 9.676 88.4737 9.06C88.4737 8.444 88.6137 7.908 88.8937 7.452C89.1817 6.988 89.5857 6.632 90.1057 6.384C90.6337 6.128 91.2497 6 91.9537 6C92.6577 6 93.2737 6.128 93.8017 6.384C94.3297 6.632 94.7377 6.988 95.0257 7.452C95.3137 7.908 95.4577 8.444 95.4577 9.06C95.4577 9.676 95.3137 10.216 95.0257 10.68C94.7377 11.136 94.3297 11.492 93.8017 11.748C93.2737 11.996 92.6577 12.12 91.9537 12.12ZM91.9537 11.58C92.6177 11.58 93.1417 11.356 93.5257 10.908C93.9177 10.46 94.1137 9.844 94.1137 9.06C94.1137 8.276 93.9177 7.66 93.5257 7.212C93.1417 6.764 92.6177 6.54 91.9537 6.54C91.2897 6.54 90.7657 6.764 90.3817 7.212C89.9977 7.66 89.8057 8.276 89.8057 9.06C89.8057 9.844 89.9977 10.46 90.3817 10.908C90.7657 11.356 91.2897 11.58 91.9537 11.58ZM97.1582 3.804H98.4902V12H97.1582V3.804ZM103.684 12.12C102.98 12.12 102.364 11.996 101.836 11.748C101.316 11.492 100.912 11.136 100.624 10.68C100.344 10.216 100.204 9.676 100.204 9.06C100.204 8.444 100.344 7.908 100.624 7.452C100.912 6.988 101.316 6.632 101.836 6.384C102.364 6.128 102.98 6 103.684 6C104.388 6 105.004 6.128 105.532 6.384C106.06 6.632 106.468 6.988 106.756 7.452C107.044 7.908 107.188 8.444 107.188 9.06C107.188 9.676 107.044 10.216 106.756 10.68C106.468 11.136 106.06 11.492 105.532 11.748C105.004 11.996 104.388 12.12 103.684 12.12ZM103.684 11.58C104.348 11.58 104.872 11.356 105.256 10.908C105.648 10.46 105.844 9.844 105.844 9.06C105.844 8.276 105.648 7.66 105.256 7.212C104.872 6.764 104.348 6.54 103.684 6.54C103.02 6.54 102.496 6.764 102.112 7.212C101.728 7.66 101.536 8.276 101.536 9.06C101.536 9.844 101.728 10.46 102.112 10.908C102.496 11.356 103.02 11.58 103.684 11.58ZM108.601 6.12H109.933V7.128C110.117 6.784 110.405 6.512 110.797 6.312C111.197 6.104 111.645 6 112.141 6C112.917 6 113.529 6.204 113.977 6.612C114.433 7.012 114.661 7.556 114.661 8.244V12H113.329V8.136C113.329 7.616 113.197 7.22 112.933 6.948C112.677 6.676 112.301 6.54 111.805 6.54C111.237 6.54 110.781 6.732 110.437 7.116C110.101 7.5 109.933 8.012 109.933 8.652V12H108.601V6.12ZM117.094 5.436C116.822 5.436 116.598 5.36 116.422 5.208C116.254 5.048 116.17 4.844 116.17 4.596C116.17 4.348 116.254 4.148 116.422 3.996C116.598 3.836 116.822 3.756 117.094 3.756C117.366 3.756 117.586 3.836 117.754 3.996C117.93 4.148 118.018 4.348 118.018 4.596C118.018 4.844 117.93 5.048 117.754 5.208C117.586 5.36 117.366 5.436 117.094 5.436ZM116.434 6.12H117.754V12H116.434V6.12ZM123.503 6.66H119.579L119.759 6.12H125.207L120.875 11.46H125.123L124.931 12H119.159L123.503 6.66ZM128.646 12.12C127.838 12.12 127.226 11.964 126.81 11.652C126.402 11.34 126.198 10.896 126.198 10.32C126.198 9.704 126.442 9.236 126.93 8.916C127.426 8.588 128.146 8.424 129.09 8.424H130.782V8.004C130.782 7.532 130.642 7.172 130.362 6.924C130.082 6.668 129.678 6.54 129.15 6.54C128.646 6.54 128.242 6.66 127.938 6.9C127.634 7.14 127.454 7.484 127.398 7.932H126.39C126.47 7.308 126.758 6.832 127.254 6.504C127.75 6.168 128.414 6 129.246 6C130.174 6 130.882 6.184 131.37 6.552C131.858 6.92 132.102 7.448 132.102 8.136V10.056C132.102 10.76 132.162 11.408 132.282 12H131.046C130.958 11.648 130.902 11.328 130.878 11.04C130.638 11.408 130.326 11.68 129.942 11.856C129.558 12.032 129.126 12.12 128.646 12.12ZM128.946 11.604C129.482 11.604 129.922 11.436 130.266 11.1C130.61 10.764 130.782 10.344 130.782 9.84V8.952H129.462C128.166 8.952 127.518 9.404 127.518 10.308C127.518 10.74 127.638 11.064 127.878 11.28C128.126 11.496 128.482 11.604 128.946 11.604ZM133.818 6.12H135.138V7.368C135.29 6.928 135.53 6.592 135.858 6.36C136.186 6.12 136.59 6 137.07 6C137.27 6 137.406 6.016 137.478 6.048L137.37 6.912C137.25 6.848 137.082 6.816 136.866 6.816C136.306 6.816 135.878 7.048 135.582 7.512C135.286 7.976 135.138 8.548 135.138 9.228V12H133.818V6.12Z" fill="#F4FABF"/>
<path d="M40.3462 34.356L40.6995 34.0027L40.3464 33.6491L36.3513 29.6491L35.9976 29.2949L35.6438 29.6491L31.6487 33.6491L31.2956 34.0027L31.649 34.356L35.644 38.3511L35.9976 38.7046L36.3511 38.3511L40.3462 34.356Z" stroke="#E6F85A"/>
<path d="M48.8711 29.6H50.3831V37.364H55.6271V38H48.8711V29.6ZM57.5749 31.436C57.3029 31.436 57.0789 31.36 56.9029 31.208C56.7349 31.048 56.6509 30.844 56.6509 30.596C56.6509 30.348 56.7349 30.148 56.9029 29.996C57.0789 29.836 57.3029 29.756 57.5749 29.756C57.8469 29.756 58.0669 29.836 58.2349 29.996C58.4109 30.148 58.4989 30.348 58.4989 30.596C58.4989 30.844 58.4109 31.048 58.2349 31.208C58.0669 31.36 57.8469 31.436 57.5749 31.436ZM56.9149 32.12H58.2349V38H56.9149V32.12ZM60.6714 32.66H59.4714L59.6154 32.12H60.6714V31.484C60.6714 30.956 60.8354 30.552 61.1634 30.272C61.4914 29.992 61.9674 29.852 62.5914 29.852C63.0474 29.852 63.4314 29.924 63.7434 30.068L63.5874 30.62C63.4194 30.468 63.2074 30.392 62.9514 30.392C62.6474 30.392 62.4114 30.48 62.2434 30.656C62.0834 30.832 62.0034 31.084 62.0034 31.412V32.12H63.6114L63.4794 32.66H62.0034V38H60.6714V32.66ZM66.413 38.12C65.317 38.12 64.769 37.532 64.769 36.356V32.66H63.713L63.905 32.12H64.793L65.213 30.464H66.101V32.12H67.733L67.565 32.66H66.101V36.512C66.101 37.216 66.369 37.568 66.905 37.568C67.201 37.568 67.485 37.492 67.757 37.34V37.892C67.421 38.044 66.973 38.12 66.413 38.12ZM72.1021 38.12C71.3981 38.12 70.7821 37.996 70.2541 37.748C69.7341 37.492 69.3301 37.136 69.0421 36.68C68.7621 36.216 68.6221 35.676 68.6221 35.06C68.6221 34.444 68.7621 33.908 69.0421 33.452C69.3301 32.988 69.7341 32.632 70.2541 32.384C70.7821 32.128 71.3981 32 72.1021 32C72.8061 32 73.4221 32.128 73.9501 32.384C74.4781 32.632 74.8861 32.988 75.1741 33.452C75.4621 33.908 75.6061 34.444 75.6061 35.06C75.6061 35.676 75.4621 36.216 75.1741 36.68C74.8861 37.136 74.4781 37.492 73.9501 37.748C73.4221 37.996 72.8061 38.12 72.1021 38.12ZM72.1021 37.58C72.7661 37.58 73.2901 37.356 73.6741 36.908C74.0661 36.46 74.2621 35.844 74.2621 35.06C74.2621 34.276 74.0661 33.66 73.6741 33.212C73.2901 32.764 72.7661 32.54 72.1021 32.54C71.4381 32.54 70.9141 32.764 70.5301 33.212C70.1461 33.66 69.9541 34.276 69.9541 35.06C69.9541 35.844 70.1461 36.46 70.5301 36.908C70.9141 37.356 71.4381 37.58 72.1021 37.58ZM77.5346 32.66H76.3346L76.4786 32.12H77.5346V31.484C77.5346 30.956 77.6987 30.552 78.0267 30.272C78.3547 29.992 78.8306 29.852 79.4546 29.852C79.9107 29.852 80.2947 29.924 80.6067 30.068L80.4506 30.62C80.2826 30.468 80.0706 30.392 79.8146 30.392C79.5107 30.392 79.2747 30.48 79.1067 30.656C78.9467 30.832 78.8666 31.084 78.8666 31.412V32.12H80.4747L80.3426 32.66H78.8666V38H77.5346V32.66ZM81.8003 32.66H80.6003L80.7443 32.12H81.8003V31.484C81.8003 30.956 81.9643 30.552 82.2923 30.272C82.6203 29.992 83.0963 29.852 83.7203 29.852C84.1763 29.852 84.5603 29.924 84.8723 30.068L84.7163 30.62C84.5483 30.468 84.3363 30.392 84.0803 30.392C83.7763 30.392 83.5403 30.48 83.3723 30.656C83.2123 30.832 83.1323 31.084 83.1323 31.412V32.12H84.7403L84.6083 32.66H83.1323V38H81.8003V32.66ZM86.0299 36.056C85.9899 35.376 85.9059 34.516 85.7779 33.476C85.6899 32.708 85.6219 32.06 85.5739 31.532C85.5339 31.004 85.5179 30.528 85.5259 30.104C85.5339 29.864 85.6019 29.676 85.7299 29.54C85.8579 29.404 86.0299 29.336 86.2459 29.336C86.4619 29.336 86.6339 29.404 86.7619 29.54C86.8979 29.676 86.9659 29.864 86.9659 30.104C86.9659 30.768 86.8819 31.848 86.7139 33.344C86.5859 34.448 86.5019 35.352 86.4619 36.056H86.0299ZM86.2459 38.12C86.0219 38.12 85.8379 38.048 85.6939 37.904C85.5499 37.76 85.4779 37.576 85.4779 37.352C85.4779 37.128 85.5499 36.948 85.6939 36.812C85.8379 36.668 86.0219 36.596 86.2459 36.596C86.4699 36.596 86.6539 36.668 86.7979 36.812C86.9419 36.948 87.0139 37.128 87.0139 37.352C87.0139 37.576 86.9419 37.76 86.7979 37.904C86.6619 38.048 86.4779 38.12 86.2459 38.12Z" fill="#F4FABF"/>
<path d="M10.3462 60.356L10.6995 60.0027L10.3464 59.6491L6.35133 55.6491L5.99756 55.2949L5.64379 55.6491L1.64873 59.6491L1.29562 60.0027L1.64895 60.356L5.64401 64.3511L5.99756 64.7046L6.35111 64.3511L10.3462 60.356Z" stroke="#E6F85A"/>
<path d="M21.6191 56.236H18.0911V55.6H26.6471V56.236H23.1311V64H21.6191V56.236ZM27.5527 58.12H28.8727V59.368C29.0247 58.928 29.2647 58.592 29.5927 58.36C29.9207 58.12 30.3247 58 30.8047 58C31.0047 58 31.1407 58.016 31.2127 58.048L31.1047 58.912C30.9847 58.848 30.8167 58.816 30.6007 58.816C30.0407 58.816 29.6127 59.048 29.3167 59.512C29.0207 59.976 28.8727 60.548 28.8727 61.228V64H27.5527V58.12ZM34.4041 64.12C33.5961 64.12 32.9841 63.964 32.5681 63.652C32.1601 63.34 31.9561 62.896 31.9561 62.32C31.9561 61.704 32.2001 61.236 32.6881 60.916C33.1841 60.588 33.9041 60.424 34.8481 60.424H36.5401V60.004C36.5401 59.532 36.4001 59.172 36.1201 58.924C35.8401 58.668 35.4361 58.54 34.9081 58.54C34.4041 58.54 34.0001 58.66 33.6961 58.9C33.3921 59.14 33.2121 59.484 33.1561 59.932H32.1481C32.2281 59.308 32.5161 58.832 33.0121 58.504C33.5081 58.168 34.1721 58 35.0041 58C35.9321 58 36.6401 58.184 37.1281 58.552C37.6161 58.92 37.8601 59.448 37.8601 60.136V62.056C37.8601 62.76 37.9201 63.408 38.0401 64H36.8041C36.7161 63.648 36.6601 63.328 36.6361 63.04C36.3961 63.408 36.0841 63.68 35.7001 63.856C35.3161 64.032 34.8841 64.12 34.4041 64.12ZM34.7041 63.604C35.2401 63.604 35.6801 63.436 36.0241 63.1C36.3681 62.764 36.5401 62.344 36.5401 61.84V60.952H35.2201C33.9241 60.952 33.2761 61.404 33.2761 62.308C33.2761 62.74 33.3961 63.064 33.6361 63.28C33.8841 63.496 34.2401 63.604 34.7041 63.604ZM39.6241 58.12H40.9561V59.128C41.1401 58.784 41.4281 58.512 41.8201 58.312C42.2201 58.104 42.6681 58 43.1641 58C43.9401 58 44.5521 58.204 45.0001 58.612C45.4561 59.012 45.6841 59.556 45.6841 60.244V64H44.3521V60.136C44.3521 59.616 44.2201 59.22 43.9561 58.948C43.7001 58.676 43.3241 58.54 42.8281 58.54C42.2601 58.54 41.8041 58.732 41.4601 59.116C41.1241 59.5 40.9561 60.012 40.9561 60.652V64H39.6241V58.12ZM49.9299 64.12C49.0899 64.12 48.4139 63.964 47.9019 63.652C47.3979 63.332 47.0899 62.88 46.9779 62.296H48.0219C48.0859 62.704 48.2819 63.02 48.6099 63.244C48.9459 63.468 49.3979 63.58 49.9659 63.58C50.4939 63.58 50.9099 63.476 51.2139 63.268C51.5259 63.06 51.6819 62.776 51.6819 62.416C51.6819 62.136 51.5419 61.912 51.2619 61.744C50.9819 61.568 50.5379 61.432 49.9299 61.336C48.9219 61.176 48.2059 60.968 47.7819 60.712C47.3579 60.456 47.1459 60.096 47.1459 59.632C47.1459 59.128 47.3859 58.732 47.8659 58.444C48.3459 58.148 49.0339 58 49.9299 58C50.7939 58 51.4859 58.156 52.0059 58.468C52.5339 58.772 52.8419 59.212 52.9299 59.788H51.8739C51.8019 59.396 51.6019 59.092 51.2739 58.876C50.9539 58.652 50.5419 58.54 50.0379 58.54C49.5579 58.54 49.1779 58.624 48.8979 58.792C48.6179 58.952 48.4779 59.176 48.4779 59.464C48.4779 59.64 48.5259 59.784 48.6219 59.896C48.7179 60 48.8939 60.096 49.1499 60.184C49.4059 60.264 49.7899 60.348 50.3019 60.436C51.2459 60.596 51.9339 60.824 52.3659 61.12C52.7979 61.416 53.0139 61.812 53.0139 62.308C53.0139 62.892 52.7459 63.34 52.2099 63.652C51.6819 63.964 50.9219 64.12 49.9299 64.12ZM54.4363 58.12H55.7563V59.152C55.9803 58.792 56.2923 58.512 56.6923 58.312C57.1003 58.104 57.5563 58 58.0603 58C59.0123 58 59.7563 58.272 60.2923 58.816C60.8363 59.352 61.1083 60.088 61.1083 61.024C61.1083 61.984 60.8363 62.74 60.2923 63.292C59.7483 63.844 59.0083 64.12 58.0723 64.12C57.5443 64.12 57.0803 64.016 56.6803 63.808C56.2883 63.6 55.9803 63.3 55.7563 62.908V66.28H54.4363V58.12ZM57.7603 63.604C58.3683 63.604 58.8563 63.368 59.2243 62.896C59.5923 62.416 59.7763 61.784 59.7763 61C59.7763 60.224 59.5963 59.616 59.2363 59.176C58.8843 58.736 58.4043 58.516 57.7963 58.516C57.3963 58.516 57.0403 58.624 56.7283 58.84C56.4163 59.048 56.1763 59.348 56.0083 59.74C55.8403 60.124 55.7563 60.568 55.7563 61.072C55.7563 61.848 55.9323 62.464 56.2843 62.92C56.6443 63.376 57.1363 63.604 57.7603 63.604ZM65.7506 64.12C65.0466 64.12 64.4306 63.996 63.9026 63.748C63.3826 63.492 62.9786 63.136 62.6906 62.68C62.4106 62.216 62.2706 61.676 62.2706 61.06C62.2706 60.444 62.4106 59.908 62.6906 59.452C62.9786 58.988 63.3826 58.632 63.9026 58.384C64.4306 58.128 65.0466 58 65.7506 58C66.4546 58 67.0706 58.128 67.5986 58.384C68.1266 58.632 68.5346 58.988 68.8226 59.452C69.1106 59.908 69.2546 60.444 69.2546 61.06C69.2546 61.676 69.1106 62.216 68.8226 62.68C68.5346 63.136 68.1266 63.492 67.5986 63.748C67.0706 63.996 66.4546 64.12 65.7506 64.12ZM65.7506 63.58C66.4146 63.58 66.9386 63.356 67.3226 62.908C67.7146 62.46 67.9106 61.844 67.9106 61.06C67.9106 60.276 67.7146 59.66 67.3226 59.212C66.9386 58.764 66.4146 58.54 65.7506 58.54C65.0866 58.54 64.5626 58.764 64.1786 59.212C63.7946 59.66 63.6026 60.276 63.6026 61.06C63.6026 61.844 63.7946 62.46 64.1786 62.908C64.5626 63.356 65.0866 63.58 65.7506 63.58ZM70.6191 58.12H71.9391V59.368C72.0911 58.928 72.3311 58.592 72.6591 58.36C72.9871 58.12 73.3911 58 73.8711 58C74.0711 58 74.2071 58.016 74.2791 58.048L74.1711 58.912C74.0511 58.848 73.8831 58.816 73.6671 58.816C73.1071 58.816 72.6791 59.048 72.3831 59.512C72.0871 59.976 71.9391 60.548 71.9391 61.228V64H70.6191V58.12ZM77.1825 64.12C76.0865 64.12 75.5385 63.532 75.5385 62.356V58.66H74.4825L74.6745 58.12H75.5625L75.9825 56.464H76.8705V58.12H78.5025L78.3345 58.66H76.8705V62.512C76.8705 63.216 77.1385 63.568 77.6745 63.568C77.9705 63.568 78.2545 63.492 78.5265 63.34V63.892C78.1905 64.044 77.7425 64.12 77.1825 64.12ZM82.8357 63.58C83.3797 63.58 83.8237 63.452 84.1677 63.196C84.5197 62.94 84.7437 62.58 84.8397 62.116H85.8717C85.7277 62.748 85.3757 63.24 84.8157 63.592C84.2557 63.944 83.5637 64.12 82.7397 64.12C82.0597 64.12 81.4677 63.996 80.9636 63.748C80.4596 63.5 80.0716 63.148 79.7996 62.692C79.5276 62.236 79.3916 61.7 79.3916 61.084C79.3916 60.46 79.5276 59.916 79.7996 59.452C80.0716 58.988 80.4556 58.632 80.9516 58.384C81.4557 58.128 82.0437 58 82.7156 58C83.7397 58 84.5317 58.264 85.0917 58.792C85.6517 59.32 85.9397 60.072 85.9557 61.048H80.7117V61.108C80.7117 61.884 80.8917 62.492 81.2517 62.932C81.6196 63.364 82.1477 63.58 82.8357 63.58ZM82.7517 58.54C82.1917 58.54 81.7396 58.712 81.3956 59.056C81.0516 59.4 80.8356 59.884 80.7476 60.508H84.6837C84.6037 59.868 84.3997 59.38 84.0717 59.044C83.7437 58.708 83.3037 58.54 82.7517 58.54Z" fill="#F4FABF"/>
</svg>
