<svg width="246" height="52" viewBox="0 0 246 52" fill="none" xmlns="http://www.w3.org/2000/svg">
<g filter="url(#filter0_f_3401_22188)">
<path d="M29.5319 46L7 6H209.123L219.137 16.4348H235.827L240 25.1304L229.986 46H29.5319Z" stroke="#E0FF4E" stroke-width="3"/>
</g>
<path d="M29.5319 46L7 6H209.123L219.137 16.4348H235.827L240 25.1304L229.986 46H29.5319Z" stroke="#E0FF4E"/>
<path d="M58.2692 19.8H68.6212V20.792H60.9892V24.504H67.7412V25.496H60.9892V30.008H68.6212V31H58.2692V19.8ZM83.7111 19.8V31H80.9751V23.112L77.5991 31H75.9191L71.6951 22.856V31H70.1911V19.8H72.9591L77.2951 28.216L80.9271 19.8H83.7111ZM86.0032 19.8H90.7072C92.3925 19.8 93.6885 20.0667 94.5952 20.6C95.5125 21.1227 95.9712 22.0133 95.9712 23.272C95.9712 24.5093 95.5179 25.4 94.6112 25.944C93.7152 26.4773 92.4139 26.744 90.7072 26.744H88.7232V31H86.0032V19.8ZM90.7232 25.736C91.5765 25.736 92.2112 25.56 92.6272 25.208C93.0539 24.856 93.2672 24.2107 93.2672 23.272C93.2672 22.344 93.0592 21.6987 92.6432 21.336C92.2272 20.9733 91.5872 20.792 90.7232 20.792H88.7232V25.736H90.7232ZM98.0011 19.8H100.721V31H98.0011V19.8ZM103.582 19.8H113.934V20.792H106.302V24.504H113.054V25.496H106.302V30.008H113.934V31H103.582V19.8ZM114.608 30.824L122.128 20.792H115.152V19.8H125.376V19.976L117.856 30.008H125.072V31H114.608V30.824ZM134.801 28.168H129.105L127.729 31H125.841L131.665 19.64H133.409L138.897 31H136.129L134.801 28.168ZM134.337 27.176L132.001 22.168L129.585 27.176H134.337ZM152.91 28.168H147.214L145.838 31H143.95L149.774 19.64H151.518L157.006 31H154.238L152.91 28.168ZM152.446 27.176L150.11 22.168L147.694 27.176H152.446ZM164.734 31.112C164.894 31.8053 165.225 32.328 165.726 32.68C166.238 33.032 166.91 33.208 167.742 33.208C168.062 33.208 168.446 33.1707 168.894 33.096L168.67 33.736C168.19 33.864 167.662 33.928 167.086 33.928C166.318 33.928 165.582 33.8 164.878 33.544C164.174 33.2987 163.577 32.952 163.086 32.504C162.606 32.0667 162.291 31.576 162.142 31.032C160.595 30.7867 159.395 30.1733 158.542 29.192C157.699 28.2 157.278 26.92 157.278 25.352C157.278 24.1573 157.534 23.1333 158.046 22.28C158.569 21.4267 159.315 20.776 160.286 20.328C161.257 19.8693 162.409 19.64 163.742 19.64C165.065 19.64 166.211 19.8693 167.182 20.328C168.153 20.776 168.894 21.4267 169.406 22.28C169.929 23.1333 170.19 24.1573 170.19 25.352C170.19 27.016 169.71 28.3493 168.75 29.352C167.79 30.3547 166.451 30.9413 164.734 31.112ZM160.03 25.352C160.03 26.92 160.345 28.1147 160.974 28.936C161.603 29.7573 162.526 30.168 163.742 30.168C164.947 30.168 165.865 29.7573 166.494 28.936C167.123 28.1147 167.438 26.92 167.438 25.352C167.438 23.816 167.123 22.648 166.494 21.848C165.865 21.0373 164.947 20.632 163.742 20.632C162.537 20.632 161.614 21.0373 160.974 21.848C160.345 22.648 160.03 23.816 160.03 25.352ZM177.903 31.16C175.759 31.16 174.271 30.7227 173.439 29.848C172.617 28.9627 172.207 27.7893 172.207 26.328V19.8H174.927V26.696C174.927 27.752 175.135 28.5947 175.551 29.224C175.967 29.8533 176.751 30.168 177.903 30.168C179.012 30.168 179.78 29.864 180.207 29.256C180.644 28.648 180.863 27.7947 180.863 26.696V19.8H183.583V26.328C183.583 27.7893 183.172 28.9627 182.351 29.848C181.529 30.7227 180.047 31.16 177.903 31.16ZM186.454 19.8H189.174V31H186.454V19.8ZM189.622 16.12C189.782 15.9387 189.953 15.8107 190.134 15.736C190.316 15.6507 190.529 15.608 190.774 15.608C190.988 15.608 191.158 15.656 191.286 15.752C191.414 15.848 191.478 15.9707 191.478 16.12C191.478 16.3653 191.254 16.6427 190.806 16.952L188.342 18.68H187.462L189.622 16.12Z" fill="#F4FABF"/>
<defs>
<filter id="filter0_f_3401_22188" x="0.433472" y="0.5" width="245.23" height="51" filterUnits="userSpaceOnUse" color-interpolation-filters="sRGB">
<feFlood flood-opacity="0" result="BackgroundImageFix"/>
<feBlend mode="normal" in="SourceGraphic" in2="BackgroundImageFix" result="shape"/>
<feGaussianBlur stdDeviation="2" result="effect1_foregroundBlur_3401_22188"/>
</filter>
</defs>
</svg>
