<svg width="200" height="326" viewBox="0 0 200 326" fill="none" xmlns="http://www.w3.org/2000/svg">
<path d="M100 307.962C147.151 307.962 185.375 271.447 185.375 226.404C185.375 181.361 147.151 144.846 100 144.846C52.8485 144.846 14.6248 181.361 14.6248 226.404C14.6248 271.447 52.8485 307.962 100 307.962Z" fill="#D1D3D4"/>
<path opacity="0.15" d="M129.931 150.782C145.877 158.127 158.716 172.134 166.937 192.13C184.074 233.819 162.593 280.884 118.952 297.255C98.6163 304.881 79.6919 305.564 63.5352 299.899C63.5352 299.899 128.089 329.919 172.279 269.214C172.279 269.214 214.793 202.259 141.506 155.921L129.94 150.782H129.931Z" fill="#231F20"/>
<path opacity="0.5" d="M135.374 152.953C117.156 145.774 95.8577 145.538 74.5689 153.522C30.9282 169.893 9.44696 216.958 26.5843 258.647C34.9422 278.984 49.6144 293.727 67.5215 301.598C67.5215 301.598 -2.84245 273.416 20.0593 199.387C20.0593 199.387 39.8635 141.414 109.558 145.713L135.374 152.953Z" fill="white"/>
<g opacity="0.03">
<path d="M43.1627 202.723C41.6689 202.058 44.9131 197.558 46.4161 198.223C47.9099 198.889 48.5697 200.937 47.9648 202.163C47.3692 203.388 44.6565 203.388 43.1627 202.723Z" fill="#231F20"/>
<path d="M114.69 232.323C114.984 233.382 108.66 234.038 108.358 232.979C108.065 231.92 109.522 230.694 110.475 230.458C111.428 230.213 114.397 231.263 114.69 232.323Z" fill="#231F20"/>
<path d="M116.771 251.846C115.845 251.583 115.781 247.223 116.707 247.486C117.632 247.749 117.898 248.738 117.696 249.412C117.495 250.077 117.696 252.108 116.771 251.855V251.846Z" fill="#231F20"/>
<path d="M77.1534 227.482C77.6299 227.665 76.7501 229.749 76.2736 229.565L74.0833 228.707C73.6067 228.523 73.4235 227.911 73.6617 227.333C73.9092 226.755 74.4865 226.44 74.9631 226.624L77.1534 227.482Z" fill="#231F20"/>
<path d="M123.543 272.13C123.782 271.692 124.442 271.578 125.01 271.867C125.587 272.156 125.862 272.734 125.624 273.172L124.955 274.415C124.716 274.844 122.636 273.811 122.874 273.373L123.543 272.13Z" fill="#231F20"/>
<path d="M40.9174 183.594C42.567 183.55 41.4581 178.184 39.8085 178.227C38.1589 178.271 36.7018 179.899 36.7476 181.256C36.7843 182.605 39.2678 183.638 40.9174 183.594Z" fill="#231F20"/>
<path d="M72.1311 206.059C73.2033 206.488 74.578 203.537 73.5058 203.108C72.4335 202.679 69.2352 202.819 68.8411 203.695C68.4562 204.579 71.0497 205.63 72.1311 206.059Z" fill="#231F20"/>
<path d="M25.842 156.315C25.1272 157.173 28.6096 159.002 29.3244 158.144C30.0393 157.286 29.7735 155.816 29.0037 155.238C28.2339 154.651 26.5476 155.457 25.842 156.315Z" fill="#231F20"/>
<path d="M57.0008 174.603C56.286 175.461 61.8213 178.473 62.5361 177.615C63.2509 176.757 62.417 175.076 61.6471 174.498C60.8773 173.912 57.7156 173.754 57.0008 174.612V174.603Z" fill="#231F20"/>
<path d="M82.3312 209.911C83.2934 210.024 85.1629 206.05 84.2007 205.927C83.2384 205.813 82.5786 206.628 82.4961 207.319C82.4045 208.011 81.3689 209.797 82.3312 209.911Z" fill="#231F20"/>
<path d="M46.856 169.666C46.3428 169.657 46.2786 171.898 46.7918 171.907L49.1562 171.951C49.6694 171.959 50.1002 171.469 50.1093 170.856C50.1277 170.235 49.7244 169.727 49.2112 169.709L46.8468 169.666H46.856Z" fill="#231F20"/>
<path d="M40.4867 162.251C40.45 161.761 39.891 161.402 39.2495 161.446C38.5988 161.489 38.1039 161.918 38.1406 162.409L38.2414 163.809C38.278 164.3 40.6241 164.133 40.5875 163.652L40.4867 162.26V162.251Z" fill="#231F20"/>
<path d="M58.5037 186.772C57.7889 187.63 63.3242 190.641 64.039 189.783C64.7538 188.925 63.9199 187.245 63.1501 186.667C62.3803 186.089 59.2186 185.923 58.5037 186.781V186.772Z" fill="#231F20"/>
<path d="M141.12 306.885C141.753 308.338 136.181 309.581 135.548 308.128C134.916 306.675 135.869 304.74 137.171 304.215C138.481 303.69 140.479 305.432 141.12 306.885Z" fill="#231F20"/>
<path d="M127.117 291.057C127.64 290.085 130.82 292.361 130.297 293.333C129.775 294.305 128.263 294.681 127.392 294.252C126.522 293.823 126.595 292.028 127.117 291.057Z" fill="#231F20"/>
<path d="M113.261 263.848C113.792 262.876 118.934 266.448 118.411 267.428C117.889 268.4 115.946 268.365 115.066 267.936C114.196 267.507 112.729 264.819 113.261 263.848Z" fill="#231F20"/>
<path d="M75.3937 190.957C75.8977 191.745 72.8735 195.01 72.3695 194.222C71.8654 193.434 72.3695 192.524 72.9926 192.165C73.6158 191.797 74.8897 190.169 75.3937 190.957Z" fill="#231F20"/>
<path d="M131.196 283.633C130.719 283.8 130.142 283.467 129.922 282.889C129.693 282.303 129.903 281.699 130.389 281.532L131.764 281.042C132.24 280.876 133.056 282.977 132.579 283.152L131.205 283.642L131.196 283.633Z" fill="#231F20"/>
<path d="M67.5949 258.035C67.2375 256.494 61.9313 258.552 62.2887 260.092C62.6462 261.633 64.5982 262.684 65.982 262.395C67.3658 262.106 67.9523 259.576 67.5949 258.035Z" fill="#231F20"/>
<path d="M59.9335 248.291C60.1717 247.206 56.8726 246.47 56.6343 247.564C56.396 248.65 57.1475 251.627 58.1281 251.828C59.1087 252.021 59.6952 249.385 59.9335 248.3V248.291Z" fill="#231F20"/>
<path d="M64.8456 295.811C65.8629 296.319 67.0817 292.703 66.0645 292.195C65.0472 291.688 63.5901 292.213 63.141 293.044C62.6828 293.876 63.8284 295.303 64.8456 295.811Z" fill="#231F20"/>
<path d="M47.479 276.34C48.4963 276.848 50.5399 271.087 49.5227 270.579C48.5055 270.072 46.9383 271.175 46.4893 272.006C46.0402 272.838 46.4618 275.841 47.479 276.34Z" fill="#231F20"/>
<path d="M70.2618 275.123C70.1977 274.204 65.7529 273.197 65.8171 274.125C65.8812 275.044 66.8435 275.508 67.5675 275.465C68.2915 275.421 70.326 276.051 70.2618 275.132V275.123Z" fill="#231F20"/>
<path d="M44.0517 292.291C44.1341 292.773 46.4527 292.405 46.3702 291.924L45.967 289.691C45.8845 289.21 45.298 288.895 44.6565 289C44.015 289.105 43.566 289.578 43.6484 290.059L44.0517 292.283V292.291Z" fill="#231F20"/>
<path d="M0.639975 242.066C0.145099 242.188 -0.120667 242.783 0.0534555 243.379C0.218414 243.974 0.759111 244.359 1.25399 244.237L2.67446 243.878C3.16934 243.755 2.55533 241.584 2.06962 241.707L0.649139 242.066H0.639975Z" fill="#231F20"/>
<path d="M72.9651 247.117C73.9824 247.625 76.026 241.864 75.0088 241.357C73.9915 240.849 72.4244 241.952 71.9754 242.784C71.5263 243.615 71.9479 246.618 72.9651 247.117Z" fill="#231F20"/>
<path d="M10.9682 259.286C10.9682 257.711 5.323 258.63 5.323 260.206C5.323 261.782 6.99091 263.209 8.41139 263.209C9.8227 263.209 10.9682 260.862 10.9682 259.286Z" fill="#231F20"/>
<path d="M135.943 318.31C136.419 317.294 133.367 315.902 132.891 316.918C132.414 317.933 132.478 320.989 133.386 321.383C134.293 321.777 135.466 319.325 135.943 318.31Z" fill="#231F20"/>
<path d="M21.5347 274.091C22.4145 274.791 24.4215 271.517 23.5417 270.817C22.6619 270.116 21.1223 270.326 20.4899 271.044C19.8576 271.762 20.6549 273.391 21.5347 274.091Z" fill="#231F20"/>
<path d="M26.4378 293.246C27.3175 293.946 30.6075 288.746 29.7278 288.045C28.848 287.345 27.0701 288.089 26.4378 288.816C25.8054 289.534 25.5488 292.554 26.4378 293.254V293.246Z" fill="#231F20"/>
<path d="M42.6312 304.171C42.7779 303.261 38.6631 301.37 38.5164 302.28C38.3698 303.191 39.2038 303.847 39.9278 303.952C40.6517 304.057 42.4938 305.09 42.6312 304.18V304.171Z" fill="#231F20"/>
<path d="M35.3271 260.127C35.2997 260.618 37.6457 260.731 37.6732 260.25L37.7832 257.991C37.8107 257.501 37.3066 257.081 36.656 257.046C36.0053 257.011 35.4646 257.387 35.4371 257.869L35.3271 260.127Z" fill="#231F20"/>
<path d="M148.571 304.276C148.058 304.294 147.673 304.819 147.701 305.441C147.728 306.062 148.168 306.544 148.681 306.526L150.147 306.474C150.661 306.456 150.551 304.206 150.038 304.233L148.571 304.285V304.276Z" fill="#231F20"/>
<path d="M8.95199 210.225C8.20968 211.635 3.59084 208.413 4.33315 207.003C5.07546 205.594 7.22909 205.025 8.50293 205.629C9.76762 206.233 9.6943 208.816 8.96115 210.225H8.95199Z" fill="#231F20"/>
<path d="M17.1175 246.742C17.0716 247.853 13.69 247.801 13.7358 246.689C13.7816 245.577 15.2663 242.863 16.2652 242.898C17.2641 242.933 17.1633 245.63 17.1175 246.742Z" fill="#231F20"/>
<path d="M39.1486 144.838C40.2666 144.584 40.789 150.642 39.671 150.896C38.5529 151.15 37.3157 149.723 37.0866 148.812C36.8575 147.902 38.0397 145.092 39.1486 144.838Z" fill="#231F20"/>
<path d="M6.49593 191.29C6.20267 192.165 1.62966 192.113 1.93208 191.228C2.22534 190.353 3.27924 190.116 3.96657 190.335C4.66306 190.545 6.78919 190.405 6.49593 191.29Z" fill="#231F20"/>
<path d="M90.6432 231.85C90.8448 231.403 92.9984 232.296 92.7968 232.743L91.8437 234.809C91.6421 235.255 90.9914 235.422 90.3957 235.176C89.8001 234.931 89.4793 234.362 89.6901 233.916L90.6432 231.85Z" fill="#231F20"/>
<path d="M4.55313 226.798C5.67118 226.544 6.19355 232.603 5.0755 232.857C3.95744 233.11 2.72026 231.683 2.49115 230.773C2.26204 229.862 3.44424 227.052 4.55313 226.798Z" fill="#231F20"/>
<path d="M138.582 293.841C138.939 294.9 142.184 293.963 141.817 292.913C141.46 291.854 139.26 289.63 138.307 289.928C137.363 290.225 138.216 292.79 138.582 293.85V293.841Z" fill="#231F20"/>
<path d="M54.6181 306.737C53.4726 306.781 54.7006 312.751 55.8461 312.708C56.9917 312.664 57.7798 310.965 57.7431 310.029C57.7065 309.092 55.7728 306.693 54.6273 306.737H54.6181Z" fill="#231F20"/>
<path d="M156.517 309.03C157.048 309.801 161.429 308.558 160.897 307.787C160.366 307.017 159.293 307.069 158.679 307.455C158.075 307.84 155.985 308.26 156.517 309.03Z" fill="#231F20"/>
<path d="M146.454 311.919C146.133 311.542 144.31 312.961 144.63 313.337L146.143 315.079C146.463 315.456 147.132 315.447 147.636 315.053C148.14 314.659 148.287 314.038 147.957 313.652L146.445 311.91L146.454 311.919Z" fill="#231F20"/>
<path d="M106.241 243.624C106.607 243.282 106.525 242.643 106.067 242.205C105.609 241.768 104.949 241.689 104.582 242.03L103.537 243.011C103.171 243.352 104.83 244.946 105.196 244.604L106.241 243.624Z" fill="#231F20"/>
<path d="M37.3433 241.962C37.2975 243.538 42.961 242.785 43.0069 241.209C43.0527 239.633 41.4306 238.154 40.0193 238.119C38.608 238.084 37.3891 240.386 37.3433 241.971V241.962Z" fill="#231F20"/>
<path d="M18.2172 188.199C17.704 189.197 20.7191 190.676 21.2232 189.678C21.7364 188.68 21.7639 185.616 20.8658 185.196C19.9676 184.776 18.7213 187.192 18.2081 188.199H18.2172Z" fill="#231F20"/>
<path d="M44.4366 222.377C43.5752 221.651 41.4674 224.873 42.3288 225.599C43.1903 226.326 44.7299 226.159 45.3897 225.459C46.0404 224.759 45.2981 223.104 44.4366 222.377Z" fill="#231F20"/>
<path d="M26.062 165.866C25.2005 165.139 21.7456 170.243 22.607 170.969C23.4685 171.696 25.2647 170.996 25.9153 170.295C26.566 169.595 26.9143 166.583 26.062 165.857V165.866Z" fill="#231F20"/>
<path d="M21.4432 201.882C21.2691 202.793 25.3198 204.797 25.4939 203.887C25.668 202.976 24.8616 202.302 24.1376 202.18C23.4227 202.057 21.6082 200.972 21.4341 201.882H21.4432Z" fill="#231F20"/>
<path d="M26.2086 221.143C26.2544 220.652 23.9083 220.469 23.8625 220.959L23.6792 223.209C23.6334 223.699 24.1283 224.137 24.7698 224.181C25.4204 224.233 25.9795 223.874 26.0161 223.393L26.1994 221.134L26.2086 221.143Z" fill="#231F20"/>
<path d="M33.7326 213.228C34.2458 213.228 34.649 212.712 34.6398 212.09C34.6307 211.469 34.2091 210.979 33.6959 210.979L32.2296 210.996C31.7164 210.996 31.7531 213.246 32.2663 213.237L33.7326 213.22V213.228Z" fill="#231F20"/>
<path d="M56.6067 233.748C56.5609 235.324 62.2245 234.571 62.2703 232.996C62.3161 231.42 60.694 229.94 59.2827 229.905C57.8714 229.87 56.6525 232.173 56.6067 233.757V233.748Z" fill="#231F20"/>
<path d="M59.4018 217.956C58.8886 218.954 61.9037 220.433 62.4077 219.435C62.9209 218.437 62.9484 215.373 62.0503 214.953C61.1522 214.533 59.9059 216.949 59.4018 217.956Z" fill="#231F20"/>
<path d="M79.1328 282.872C78.6196 283.87 81.6346 285.349 82.1387 284.351C82.6519 283.353 82.6794 280.289 81.7813 279.869C80.8832 279.449 79.6368 281.874 79.1328 282.872Z" fill="#231F20"/>
<path d="M105.352 317.049C104.491 316.323 102.383 319.544 103.244 320.271C104.106 320.998 105.645 320.831 106.305 320.131C106.956 319.431 106.214 317.776 105.352 317.049Z" fill="#231F20"/>
<path d="M104.601 298.997C103.739 298.271 100.284 303.375 101.146 304.101C102.007 304.828 103.803 304.128 104.454 303.427C105.105 302.727 105.453 299.715 104.601 298.989V298.997Z" fill="#231F20"/>
<path d="M82.3585 296.546C82.1844 297.457 86.2351 299.462 86.4092 298.551C86.5833 297.641 85.7768 296.967 85.0528 296.844C84.338 296.722 82.5235 295.636 82.3494 296.538L82.3585 296.546Z" fill="#231F20"/>
<path d="M87.1242 315.815C87.17 315.324 84.824 315.14 84.7873 315.631L84.604 317.881C84.5582 318.371 85.0531 318.809 85.6946 318.852C86.3452 318.905 86.9043 318.555 86.9409 318.064L87.1242 315.815Z" fill="#231F20"/>
<path d="M73.4142 311.586C73.9274 311.586 74.3306 311.07 74.3215 310.448C74.3123 309.827 73.8908 309.336 73.3776 309.336L71.9113 309.354C71.398 309.354 71.4347 311.604 71.9479 311.595L73.4142 311.578V311.586Z" fill="#231F20"/>
<path d="M115.323 325.13C115.277 326.706 120.941 325.953 120.986 324.377C121.032 322.801 119.41 321.322 117.999 321.287C116.587 321.252 115.369 323.554 115.323 325.139V325.13Z" fill="#231F20"/>
<path d="M120.317 312.629C119.804 313.627 122.819 315.106 123.323 314.108C123.836 313.11 123.864 310.046 122.966 309.626C122.068 309.206 120.821 311.622 120.317 312.629Z" fill="#231F20"/>
<path d="M99.7161 278.66C101.228 279.281 98.1215 283.878 96.6094 283.247C95.0973 282.626 94.3733 280.595 94.9323 279.352C95.4913 278.108 98.1948 278.03 99.7161 278.66Z" fill="#231F20"/>
<path d="M94.1256 244.263C95.2895 244.246 95.4269 247.476 94.2631 247.494C93.0992 247.511 90.1849 246.251 90.1666 245.296C90.1483 244.342 92.9709 244.281 94.1348 244.263H94.1256Z" fill="#231F20"/>
<path d="M82.8902 263.515C82.5603 262.464 88.8654 261.624 89.1953 262.674C89.5252 263.725 88.1047 264.985 87.1608 265.257C86.2169 265.528 83.2201 264.565 82.8902 263.515Z" fill="#231F20"/>
<path d="M100.165 264.767C101.1 265.004 101.301 269.355 100.357 269.127C99.4227 268.891 99.1295 267.91 99.3127 267.236C99.496 266.562 99.2303 264.54 100.165 264.767Z" fill="#231F20"/>
<path d="M105.288 257.711C105.068 258.148 104.408 258.289 103.822 258.017C103.235 257.746 102.942 257.177 103.171 256.73L103.803 255.47C104.023 255.032 106.14 256.004 105.92 256.45L105.288 257.711Z" fill="#231F20"/>
<path d="M117.476 282.889C118.988 283.511 115.882 288.107 114.37 287.477C112.858 286.855 112.134 284.824 112.693 283.581C113.252 282.338 115.955 282.259 117.476 282.881V282.889Z" fill="#231F20"/>
</g>
<g opacity="0.03">
<path d="M156.838 250.077C158.331 250.742 155.078 255.242 153.584 254.576C152.09 253.911 151.431 251.863 152.035 250.637C152.631 249.411 155.344 249.411 156.838 250.077Z" fill="#231F20"/>
<path d="M98.3048 225.66C98.0116 224.601 101.971 224.251 102.264 225.301C102.557 226.36 101.714 227.604 100.761 227.849C99.8078 228.094 98.6072 226.719 98.3048 225.66Z" fill="#231F20"/>
<path d="M85.3097 220.486C85.0164 219.427 91.3398 218.77 91.6331 219.83C91.9264 220.889 90.4692 222.115 89.5161 222.351C88.563 222.596 85.5938 221.546 85.3005 220.486H85.3097Z" fill="#231F20"/>
<path d="M122.847 225.318C122.37 225.134 123.25 223.051 123.727 223.235L125.917 224.093C126.394 224.276 126.577 224.889 126.339 225.467C126.1 226.045 125.514 226.36 125.037 226.176L122.847 225.318Z" fill="#231F20"/>
<path d="M76.4569 180.67C76.2186 181.107 75.5588 181.221 74.9906 180.932C74.4132 180.643 74.1383 180.065 74.3766 179.628L75.0456 178.385C75.2839 177.947 77.3642 178.989 77.1259 179.418L76.4569 180.661V180.67Z" fill="#231F20"/>
<path d="M159.083 269.205C157.433 269.249 158.542 274.615 160.192 274.572C161.841 274.528 163.289 272.899 163.253 271.542C163.216 270.194 160.732 269.161 159.083 269.205Z" fill="#231F20"/>
<path d="M127.869 246.741C126.797 246.312 125.422 249.262 126.494 249.691C127.566 250.12 130.765 249.98 131.159 249.104C131.544 248.22 128.95 247.17 127.869 246.741Z" fill="#231F20"/>
<path d="M174.167 296.485C174.882 295.627 171.4 293.797 170.685 294.655C169.97 295.513 170.236 296.984 171.005 297.562C171.775 298.148 173.462 297.343 174.167 296.485Z" fill="#231F20"/>
<path d="M142.999 278.196C143.714 277.338 138.179 274.327 137.464 275.194C136.749 276.052 137.583 277.732 138.353 278.31C139.123 278.897 142.284 279.054 142.999 278.196Z" fill="#231F20"/>
<path d="M153.144 283.134C153.657 283.142 153.722 280.901 153.208 280.893L150.844 280.849C150.331 280.84 149.9 281.33 149.882 281.943C149.863 282.565 150.267 283.072 150.78 283.09L153.144 283.134Z" fill="#231F20"/>
<path d="M159.513 290.549C159.55 291.039 160.109 291.398 160.751 291.354C161.401 291.31 161.896 290.881 161.859 290.391L161.759 288.99C161.722 288.5 159.376 288.666 159.413 289.148L159.513 290.549Z" fill="#231F20"/>
<path d="M141.496 266.027C142.211 265.169 136.676 262.157 135.961 263.015C135.246 263.873 136.08 265.554 136.85 266.132C137.62 266.719 140.781 266.876 141.496 266.018V266.027Z" fill="#231F20"/>
<path d="M58.8794 145.914C58.2379 144.46 63.8099 143.217 64.4514 144.67C65.0929 146.124 64.1306 148.058 62.8293 148.584C61.5279 149.109 59.521 147.367 58.8794 145.914Z" fill="#231F20"/>
<path d="M72.8826 161.751C72.3602 162.723 69.1801 160.446 69.7025 159.475C70.2249 158.503 71.737 158.126 72.6076 158.555C73.4782 158.984 73.4049 160.779 72.8826 161.751Z" fill="#231F20"/>
<path d="M86.739 188.952C86.2167 189.924 81.0663 186.352 81.5887 185.371C82.111 184.399 84.0539 184.434 84.9337 184.863C85.8043 185.292 87.2706 187.98 86.739 188.952Z" fill="#231F20"/>
<path d="M125.129 261.326C124.625 260.538 127.649 257.273 128.153 258.061C128.657 258.849 128.153 259.759 127.53 260.118C126.907 260.477 125.633 262.114 125.129 261.326Z" fill="#231F20"/>
<path d="M64.7997 164.736C65.2763 164.57 65.8536 164.903 66.0736 165.48C66.3027 166.058 66.0919 166.671 65.6062 166.837L64.2315 167.328C63.755 167.494 62.9393 165.393 63.4159 165.218L64.7905 164.727L64.7997 164.736Z" fill="#231F20"/>
<path d="M132.405 194.765C132.763 196.306 138.069 194.249 137.711 192.708C137.354 191.167 135.402 190.116 134.018 190.405C132.634 190.694 132.048 193.224 132.405 194.765Z" fill="#231F20"/>
<path d="M140.067 204.508C139.828 205.594 143.127 206.329 143.366 205.235C143.604 204.149 142.852 201.173 141.872 200.971C140.891 200.779 140.305 203.414 140.067 204.5V204.508Z" fill="#231F20"/>
<path d="M135.155 156.989C134.137 156.481 132.918 160.097 133.936 160.604C134.953 161.112 136.41 160.587 136.868 159.755C137.317 158.923 136.181 157.496 135.164 156.989H135.155Z" fill="#231F20"/>
<path d="M152.521 176.458C151.504 175.951 149.46 181.711 150.477 182.219C151.495 182.727 153.062 181.624 153.511 180.792C153.96 179.96 153.538 176.957 152.521 176.458Z" fill="#231F20"/>
<path d="M129.738 177.675C129.802 178.595 134.247 179.601 134.183 178.682C134.119 177.763 133.157 177.299 132.433 177.343C131.709 177.387 129.674 176.756 129.738 177.675Z" fill="#231F20"/>
<path d="M155.948 160.508C155.866 160.026 153.547 160.394 153.63 160.876L154.033 163.108C154.116 163.59 154.702 163.905 155.344 163.8C155.985 163.695 156.434 163.222 156.352 162.74L155.948 160.508Z" fill="#231F20"/>
<path d="M199.36 210.742C199.855 210.619 200.121 210.024 199.947 209.429C199.782 208.833 199.241 208.448 198.746 208.571L197.326 208.93C196.831 209.061 197.436 211.223 197.93 211.101L199.351 210.742H199.36Z" fill="#231F20"/>
<path d="M127.035 205.682C126.018 205.174 123.974 210.934 124.991 211.442C126.008 211.95 127.576 210.856 128.025 210.015C128.474 209.183 128.052 206.189 127.035 205.682Z" fill="#231F20"/>
<path d="M189.032 193.513C189.032 195.089 194.677 194.17 194.677 192.594C194.677 191.018 193.009 189.582 191.589 189.591C190.177 189.591 189.032 191.937 189.032 193.513Z" fill="#231F20"/>
<path d="M64.0574 134.489C63.5809 135.505 66.6326 136.897 67.1092 135.881C67.5857 134.866 67.5216 131.81 66.6143 131.416C65.707 131.023 64.534 133.474 64.0574 134.489Z" fill="#231F20"/>
<path d="M178.465 178.708C177.586 178.008 175.579 181.282 176.458 181.983C177.338 182.683 178.878 182.473 179.51 181.755C180.143 181.037 179.345 179.409 178.465 178.708Z" fill="#231F20"/>
<path d="M173.562 159.554C172.683 158.854 169.393 164.054 170.272 164.754C171.152 165.455 172.93 164.71 173.562 163.984C174.195 163.266 174.451 160.246 173.562 159.545V159.554Z" fill="#231F20"/>
<path d="M157.369 148.628C157.222 149.538 161.337 151.429 161.484 150.519C161.63 149.608 160.797 148.952 160.073 148.855C159.349 148.75 157.507 147.717 157.369 148.628Z" fill="#231F20"/>
<path d="M164.673 192.672C164.7 192.182 162.354 192.068 162.327 192.55L162.217 194.808C162.189 195.299 162.693 195.719 163.344 195.754C163.995 195.789 164.535 195.421 164.563 194.931L164.673 192.672Z" fill="#231F20"/>
<path d="M50.8791 151.613C51.3923 151.596 51.7772 151.071 51.7497 150.449C51.7222 149.827 51.2823 149.346 50.7691 149.372L49.3028 149.425C48.7896 149.442 48.8996 151.692 49.4128 151.666L50.8791 151.613Z" fill="#231F20"/>
<path d="M191.048 242.574C191.781 241.164 196.409 244.386 195.667 245.795C194.924 247.205 192.771 247.774 191.506 247.17C190.241 246.566 190.315 243.983 191.048 242.574Z" fill="#231F20"/>
<path d="M182.892 206.058C182.937 204.946 186.319 204.999 186.273 206.111C186.227 207.222 184.743 209.936 183.744 209.901C182.745 209.866 182.846 207.17 182.892 206.058Z" fill="#231F20"/>
<path d="M149.845 296.756C148.727 297.01 148.461 293.219 149.579 292.965C150.697 292.711 151.98 293.552 152.2 294.471C152.429 295.382 150.954 296.502 149.845 296.756Z" fill="#231F20"/>
<path d="M160.851 307.971C159.733 308.225 159.211 302.166 160.329 301.913C161.447 301.659 162.684 303.086 162.913 303.996C163.142 304.907 161.969 307.717 160.851 307.971Z" fill="#231F20"/>
<path d="M193.504 261.51C193.797 260.626 198.37 260.687 198.068 261.571C197.775 262.447 196.721 262.674 196.033 262.464C195.337 262.254 193.211 262.394 193.504 261.51Z" fill="#231F20"/>
<path d="M109.357 220.95C109.155 221.396 106.992 220.503 107.203 220.057L108.156 217.991C108.358 217.544 109.009 217.378 109.604 217.623C110.2 217.868 110.521 218.437 110.31 218.884L109.357 220.95Z" fill="#231F20"/>
<path d="M121.298 235.605C121.747 235.841 121.848 236.472 121.536 237.014C121.225 237.557 120.601 237.802 120.152 237.566L118.869 236.892C118.42 236.656 119.566 234.694 120.015 234.931L121.298 235.605Z" fill="#231F20"/>
<path d="M195.447 226.001C194.329 226.254 193.806 220.196 194.925 219.942C196.043 219.688 197.28 221.116 197.509 222.026C197.738 222.936 196.556 225.747 195.447 226.001Z" fill="#231F20"/>
<path d="M57.3307 156.288C56.9733 155.228 53.7291 156.165 54.0957 157.216C54.4531 158.275 56.6526 160.499 57.6057 160.201C58.5588 159.903 57.6973 157.338 57.3307 156.279V156.288Z" fill="#231F20"/>
<path d="M145.382 146.063C146.527 146.019 145.299 140.048 144.154 140.092C143.008 140.136 142.22 141.834 142.257 142.771C142.303 143.708 144.227 146.106 145.373 146.063H145.382Z" fill="#231F20"/>
<path d="M53.5458 140.888C53.8665 141.265 55.6902 139.847 55.3695 139.47L53.8574 137.728C53.5366 137.352 52.8676 137.36 52.3636 137.754C51.8595 138.148 51.7129 138.77 52.0428 139.146L53.5549 140.888H53.5458Z" fill="#231F20"/>
<path d="M93.759 209.175C93.3924 209.516 93.4749 210.155 93.9331 210.593C94.3913 211.031 95.0512 211.109 95.4177 210.768L96.4625 209.787C96.829 209.446 95.1703 207.853 94.8037 208.194L93.759 209.175Z" fill="#231F20"/>
<path d="M162.666 210.838C162.712 209.262 157.048 210.015 157.002 211.591C156.957 213.167 158.579 214.647 159.99 214.682C161.401 214.717 162.62 212.414 162.666 210.838Z" fill="#231F20"/>
<path d="M181.783 264.6C182.287 263.602 179.281 262.123 178.777 263.121C178.264 264.119 178.236 267.183 179.134 267.603C180.032 268.023 181.279 265.598 181.783 264.6Z" fill="#231F20"/>
<path d="M155.563 230.422C156.425 231.149 158.533 227.927 157.671 227.2C156.81 226.474 155.27 226.64 154.61 227.34C153.96 228.041 154.702 229.687 155.563 230.422Z" fill="#231F20"/>
<path d="M173.938 286.934C174.799 287.661 178.254 282.557 177.393 281.83C176.531 281.104 174.735 281.804 174.085 282.504C173.434 283.205 173.086 286.216 173.938 286.943V286.934Z" fill="#231F20"/>
<path d="M178.557 250.917C178.731 250.007 174.68 248.002 174.506 248.904C174.332 249.814 175.148 250.488 175.863 250.611C176.577 250.733 178.392 251.819 178.566 250.908L178.557 250.917Z" fill="#231F20"/>
<path d="M173.791 231.657C173.746 232.147 176.092 232.331 176.138 231.841L176.321 229.591C176.367 229.1 175.872 228.663 175.23 228.619C174.58 228.566 174.021 228.925 173.984 229.407L173.801 231.657H173.791Z" fill="#231F20"/>
<path d="M166.268 239.571C165.754 239.571 165.351 240.087 165.36 240.709C165.369 241.33 165.791 241.821 166.304 241.821L167.77 241.803C168.284 241.803 168.247 239.553 167.734 239.562L166.268 239.58V239.571Z" fill="#231F20"/>
<path d="M143.402 219.05C143.448 217.474 137.785 218.227 137.739 219.803C137.693 221.379 139.315 222.858 140.726 222.893C142.138 222.928 143.356 220.626 143.402 219.041V219.05Z" fill="#231F20"/>
<path d="M140.598 234.844C141.111 233.846 138.096 232.366 137.592 233.364C137.079 234.362 137.052 237.426 137.95 237.847C138.848 238.267 140.094 235.851 140.598 234.844Z" fill="#231F20"/>
<path d="M120.867 169.928C121.38 168.93 118.365 167.45 117.861 168.448C117.348 169.446 117.321 172.51 118.219 172.931C119.117 173.351 120.363 170.935 120.867 169.928Z" fill="#231F20"/>
<path d="M94.6481 135.75C95.5096 136.477 97.6174 133.255 96.7559 132.528C95.8945 131.802 94.3549 131.968 93.695 132.668C93.0444 133.369 93.7867 135.023 94.6481 135.75Z" fill="#231F20"/>
<path d="M95.3996 153.802C96.2611 154.528 99.716 149.424 98.8546 148.698C97.9931 147.971 96.1969 148.672 95.5462 149.372C94.8956 150.072 94.5382 153.084 95.3996 153.811V153.802Z" fill="#231F20"/>
<path d="M117.642 156.253C117.816 155.343 113.765 153.338 113.591 154.248C113.417 155.159 114.223 155.833 114.947 155.955C115.662 156.078 117.477 157.164 117.642 156.253Z" fill="#231F20"/>
<path d="M112.876 136.984C112.83 137.475 115.176 137.659 115.222 137.168L115.405 134.91C115.451 134.419 114.956 133.982 114.315 133.938C113.664 133.885 113.105 134.235 113.068 134.726L112.885 136.976L112.876 136.984Z" fill="#231F20"/>
<path d="M126.586 141.212C126.073 141.212 125.669 141.729 125.679 142.35C125.679 142.972 126.109 143.471 126.623 143.462L128.089 143.445C128.602 143.445 128.565 141.195 128.052 141.204L126.586 141.221V141.212Z" fill="#231F20"/>
<path d="M84.6772 127.669C84.723 126.093 79.0595 126.846 79.0136 128.422C78.9678 129.998 80.5899 131.478 82.0012 131.513C83.4125 131.548 84.6314 129.245 84.6772 127.669Z" fill="#231F20"/>
<path d="M79.6826 140.171C80.1867 139.173 77.1807 137.693 76.6767 138.691C76.1635 139.689 76.136 142.754 77.0341 143.174C77.9322 143.594 79.1786 141.169 79.6826 140.171Z" fill="#231F20"/>
<path d="M100.284 174.139C98.7719 173.517 101.879 168.921 103.391 169.551C104.903 170.173 105.627 172.204 105.068 173.447C104.509 174.69 101.805 174.769 100.284 174.148V174.139Z" fill="#231F20"/>
<path d="M105.874 208.536C104.71 208.553 104.573 205.323 105.737 205.305C106.901 205.288 109.824 206.549 109.843 207.503C109.861 208.457 107.038 208.518 105.874 208.536Z" fill="#231F20"/>
<path d="M117.119 189.284C117.449 190.335 111.144 191.175 110.814 190.125C110.484 189.074 111.904 187.813 112.848 187.542C113.792 187.271 116.789 188.234 117.119 189.284Z" fill="#231F20"/>
<path d="M99.8441 188.032C98.9093 187.796 98.7077 183.445 99.6516 183.673C100.586 183.909 100.88 184.89 100.696 185.564C100.513 186.238 100.779 188.26 99.8441 188.032Z" fill="#231F20"/>
<path d="M94.7121 195.097C94.932 194.66 95.5918 194.52 96.1784 194.791C96.7649 195.062 97.0581 195.631 96.829 196.078L96.1967 197.339C95.9767 197.776 93.8598 196.805 94.0797 196.358L94.7121 195.097Z" fill="#231F20"/>
<path d="M82.5235 169.919C81.0114 169.298 84.1181 164.701 85.6302 165.332C87.1424 165.953 87.8663 167.984 87.3073 169.227C86.7483 170.471 84.0448 170.549 82.5235 169.919Z" fill="#231F20"/>
</g>
<path d="M56.011 194.432C51.7863 200.561 43.9416 202.749 38.4796 199.317C33.0176 195.886 32.0187 188.138 36.2435 182.01C40.4683 175.881 48.313 173.693 53.7749 177.124C59.2369 180.556 60.2358 188.304 56.011 194.432Z" fill="#BCBEC0"/>
<path opacity="0.15" d="M56.011 194.432C51.7863 200.561 43.9416 202.749 38.4796 199.317C33.0176 195.886 32.0187 188.138 36.2435 182.01C40.4683 175.881 48.313 173.693 53.7749 177.124C59.2369 180.556 60.2358 188.304 56.011 194.432Z" fill="#231F20"/>
<path d="M56.0111 194.432C52.5286 199.484 46.0586 201.287 41.5681 198.46C37.0683 195.632 36.2436 189.241 39.726 184.19C43.2085 179.138 49.6785 177.335 54.1691 180.162C58.6688 182.99 59.4935 189.381 56.0111 194.432Z" fill="#BCBEC0"/>
<path d="M56.011 194.432C51.7863 200.561 43.9416 202.749 38.4796 199.317C33.0176 195.886 32.0187 188.138 36.2435 182.01C40.4683 175.881 48.313 173.693 53.7749 177.124C59.2369 180.556 60.2358 188.304 56.011 194.432V194.432Z" stroke="#D1D3D4" stroke-width="2.3" stroke-miterlimit="10"/>
<path d="M150.816 169.735C156.031 175.487 156.104 183.585 150.981 187.822C145.858 192.06 137.482 190.834 132.268 185.073C127.053 179.322 126.98 171.224 132.103 166.986C137.226 162.749 145.602 163.975 150.816 169.727V169.735Z" fill="#BCBEC0"/>
<path opacity="0.15" d="M150.816 169.735C156.031 175.487 156.104 183.585 150.981 187.822C145.858 192.06 137.482 190.834 132.268 185.073C127.053 179.322 126.98 171.224 132.103 166.986C137.226 162.749 145.602 163.975 150.816 169.727V169.735Z" fill="#231F20"/>
<path d="M150.862 172.151C155.371 177.133 155.435 184.136 151.009 187.805C146.573 191.473 139.324 190.405 134.815 185.432C130.307 180.451 130.242 173.447 134.669 169.779C139.104 166.111 146.353 167.179 150.862 172.151Z" fill="#BCBEC0"/>
<path d="M150.816 169.735C156.031 175.487 156.104 183.585 150.981 187.822C145.858 192.06 137.482 190.834 132.268 185.073C127.053 179.322 126.98 171.224 132.103 166.986C137.226 162.749 145.602 163.975 150.816 169.727V169.735Z" stroke="#D1D3D4" stroke-width="2.3" stroke-miterlimit="10"/>
<path d="M147.462 223.839C147.746 228.479 144.31 232.454 139.783 232.707C135.255 232.961 131.351 229.407 131.067 224.758C130.783 220.118 134.22 216.144 138.747 215.89C143.274 215.636 147.178 219.19 147.462 223.839Z" fill="#BCBEC0"/>
<path opacity="0.15" d="M147.462 223.839C147.746 228.479 144.31 232.454 139.783 232.707C135.255 232.961 131.351 229.407 131.067 224.758C130.783 220.118 134.22 216.144 138.747 215.89C143.274 215.636 147.178 219.19 147.462 223.839Z" fill="#231F20"/>
<path d="M147.581 225.835C147.801 229.372 145.18 232.401 141.725 232.602C138.27 232.795 135.301 230.081 135.081 226.544C134.861 223.007 137.482 219.978 140.937 219.777C144.392 219.584 147.361 222.298 147.581 225.835Z" fill="#BCBEC0"/>
<path d="M147.462 223.839C147.746 228.479 144.31 232.454 139.783 232.707C135.255 232.961 131.351 229.407 131.067 224.758C130.783 220.118 134.22 216.144 138.747 215.89C143.274 215.636 147.178 219.19 147.462 223.839V223.839Z" stroke="#D1D3D4" stroke-width="2.3" stroke-miterlimit="10"/>
<path d="M168.064 257.623C167.083 261.668 163.371 264.312 159.761 263.515C156.159 262.719 154.024 258.796 155.004 254.743C155.985 250.698 159.697 248.054 163.307 248.851C166.909 249.648 169.044 253.57 168.064 257.623Z" fill="#BCBEC0"/>
<path opacity="0.15" d="M168.064 257.623C167.083 261.668 163.371 264.312 159.761 263.515C156.159 262.719 154.024 258.796 155.004 254.743C155.985 250.698 159.697 248.054 163.307 248.851C166.909 249.648 169.044 253.57 168.064 257.623Z" fill="#231F20"/>
<path d="M167.688 259.173C166.918 262.368 163.986 264.443 161.145 263.813C158.304 263.182 156.627 260.092 157.396 256.896C158.166 253.71 161.099 251.626 163.94 252.257C166.781 252.887 168.458 255.977 167.688 259.173Z" fill="#BCBEC0"/>
<path d="M168.064 257.623C167.083 261.668 163.371 264.312 159.761 263.515C156.159 262.719 154.024 258.796 155.004 254.743C155.985 250.698 159.697 248.054 163.307 248.851C166.909 249.648 169.044 253.57 168.064 257.623Z" stroke="#D1D3D4" stroke-width="2.3" stroke-miterlimit="10"/>
<path d="M115.643 283.975C120.95 283.432 125.642 286.479 126.128 290.786C126.613 295.093 122.709 299.033 117.403 299.575C112.097 300.118 107.405 297.072 106.919 292.764C106.433 288.457 110.337 284.518 115.643 283.975Z" fill="#BCBEC0"/>
<path opacity="0.15" d="M115.643 283.975C120.95 283.432 125.642 286.479 126.128 290.786C126.613 295.093 122.709 299.033 117.403 299.575C112.097 300.118 107.405 297.072 106.919 292.764C106.433 288.457 110.337 284.518 115.643 283.975Z" fill="#231F20"/>
<path d="M117.669 286.574C122.031 286.128 125.889 288.632 126.283 292.177C126.687 295.723 123.47 298.954 119.117 299.409C114.755 299.855 110.896 297.351 110.502 293.806C110.099 290.26 113.316 287.03 117.669 286.574Z" fill="#BCBEC0"/>
<path d="M115.643 283.975C120.95 283.432 125.642 286.479 126.128 290.786C126.613 295.093 122.709 299.033 117.403 299.575C112.097 300.118 107.405 297.072 106.919 292.764C106.433 288.457 110.337 284.518 115.643 283.975V283.975Z" stroke="#D1D3D4" stroke-width="2.3" stroke-miterlimit="10"/>
<path d="M48.8628 259.138C51.9329 263.865 51.0073 269.722 46.8008 272.208C42.5944 274.703 36.6925 272.891 33.6225 268.164C30.5524 263.436 31.478 257.579 35.6845 255.093C39.8909 252.598 45.7928 254.41 48.8628 259.138Z" fill="#BCBEC0"/>
<path opacity="0.15" d="M48.8628 259.138C51.9329 263.865 51.0073 269.722 46.8008 272.208C42.5944 274.703 36.6925 272.891 33.6225 268.164C30.5524 263.436 31.478 257.579 35.6845 255.093C39.8909 252.598 45.7928 254.41 48.8628 259.138Z" fill="#231F20"/>
<path d="M48.5421 261.195C51.1265 265.178 50.3475 270.107 46.8009 272.208C43.2543 274.309 38.278 272.786 35.6937 268.803C33.1093 264.819 33.8883 259.89 37.4349 257.789C40.9815 255.688 45.9578 257.211 48.5421 261.195Z" fill="#BCBEC0"/>
<path d="M48.8628 259.138C51.9329 263.865 51.0073 269.722 46.8008 272.208C42.5944 274.703 36.6925 272.891 33.6225 268.164C30.5524 263.436 31.478 257.579 35.6845 255.093C39.8909 252.598 45.7928 254.41 48.8628 259.138Z" stroke="#D1D3D4" stroke-width="2.3" stroke-miterlimit="10"/>
<path d="M105.728 226.754C107.872 230.054 106.809 234.388 103.354 236.428C99.9083 238.468 95.372 237.452 93.2275 234.152C91.0831 230.851 92.1461 226.518 95.6011 224.478C99.0469 222.438 103.583 223.453 105.728 226.754Z" fill="#BCBEC0"/>
<path opacity="0.15" d="M105.728 226.754C107.872 230.054 106.809 234.388 103.354 236.428C99.9083 238.468 95.372 237.452 93.2275 234.152C91.0831 230.851 92.1461 226.518 95.6011 224.478C99.0469 222.438 103.583 223.453 105.728 226.754Z" fill="#231F20"/>
<path d="M105.26 228.663C106.983 231.315 106.131 234.791 103.354 236.428C100.586 238.065 96.9482 237.251 95.2253 234.607C93.5024 231.955 94.3547 228.479 97.1315 226.842C99.8991 225.205 103.537 226.019 105.26 228.663Z" fill="#BCBEC0"/>
<path d="M105.728 226.754C107.872 230.054 106.809 234.388 103.354 236.428C99.9083 238.468 95.372 237.452 93.2275 234.152C91.0831 230.851 92.1461 226.518 95.6011 224.478C99.0469 222.438 103.583 223.453 105.728 226.754V226.754Z" stroke="#D1D3D4" stroke-width="2.3" stroke-miterlimit="10"/>
<path d="M100.092 197.54C97.8462 202.355 92.3568 204.693 87.8296 202.767C83.3024 200.841 81.4604 195.378 83.7056 190.563C85.9509 185.748 91.4404 183.41 95.9676 185.336C100.495 187.262 102.337 192.725 100.092 197.54Z" fill="#BCBEC0"/>
<path opacity="0.15" d="M100.092 197.54C97.8462 202.355 92.3568 204.693 87.8296 202.767C83.3024 200.841 81.4604 195.378 83.7056 190.563C85.9509 185.748 91.4404 183.41 95.9676 185.336C100.495 187.262 102.337 192.725 100.092 197.54Z" fill="#231F20"/>
<path d="M100.092 197.54C98.2312 201.523 93.6857 203.467 89.9375 201.874C86.1893 200.28 84.6588 195.754 86.5192 191.762C88.3795 187.779 92.9251 185.835 96.6733 187.437C100.422 189.031 101.952 193.557 100.092 197.549V197.54Z" fill="#BCBEC0"/>
<path d="M100.092 197.54C97.8462 202.355 92.3568 204.693 87.8296 202.767C83.3024 200.841 81.4604 195.378 83.7056 190.563C85.9509 185.748 91.4404 183.41 95.9676 185.336C100.495 187.262 102.337 192.725 100.092 197.54Z" stroke="#D1D3D4" stroke-width="2.3" stroke-miterlimit="10"/>
<path d="M174.103 207.126C175.368 211.118 173.507 215.181 169.952 216.205C166.396 217.229 162.492 214.822 161.236 210.83C159.972 206.837 161.832 202.775 165.388 201.751C168.943 200.727 172.847 203.134 174.103 207.126Z" fill="#BCBEC0"/>
<path opacity="0.15" d="M174.103 207.126C175.368 211.118 173.507 215.181 169.952 216.205C166.396 217.229 162.492 214.822 161.236 210.83C159.972 206.837 161.832 202.775 165.388 201.751C168.943 200.727 172.847 203.134 174.103 207.126Z" fill="#231F20"/>
<path d="M174.653 208.878C175.606 211.898 174.204 214.98 171.509 215.75C168.815 216.53 165.864 214.709 164.911 211.679C163.958 208.659 165.36 205.577 168.054 204.807C170.749 204.028 173.7 205.849 174.653 208.878Z" fill="#BCBEC0"/>
<path d="M174.103 207.126C175.368 211.118 173.507 215.181 169.952 216.205C166.396 217.229 162.492 214.822 161.236 210.83C159.972 206.837 161.832 202.775 165.388 201.751C168.943 200.727 172.847 203.134 174.103 207.126Z" stroke="#D1D3D4" stroke-width="2.3" stroke-miterlimit="10"/>
<path d="M68.8136 231.298C68.7128 235.097 65.6152 238.1 61.9037 238.004C58.1921 237.908 55.2687 234.756 55.3695 230.965C55.4703 227.166 58.5678 224.163 62.2794 224.259C65.991 224.355 68.9144 227.507 68.8136 231.298Z" fill="#BCBEC0"/>
<path opacity="0.15" d="M68.8136 231.298C68.7128 235.097 65.6152 238.1 61.9037 238.004C58.1921 237.908 55.2687 234.756 55.3695 230.965C55.4703 227.166 58.5678 224.163 62.2794 224.259C65.991 224.355 68.9144 227.507 68.8136 231.298Z" fill="#231F20"/>
<path d="M68.777 232.55C68.6945 235.649 66.1652 238.109 63.1318 238.03C60.0984 237.952 57.7065 235.378 57.7889 232.279C57.8714 229.179 60.4008 226.719 63.4342 226.798C66.4676 226.877 68.8595 229.451 68.777 232.55Z" fill="#BCBEC0"/>
<path d="M68.8136 231.298C68.7128 235.097 65.6152 238.1 61.9037 238.004C58.1921 237.908 55.2687 234.756 55.3695 230.965C55.4703 227.166 58.5678 224.163 62.2794 224.259C65.991 224.355 68.9144 227.507 68.8136 231.298V231.298Z" stroke="#D1D3D4" stroke-width="2.3" stroke-miterlimit="10"/>
<path d="M29.4343 228.637C29.1319 231.596 26.74 233.793 24.1098 233.548C21.4705 233.303 19.5826 230.694 19.8942 227.735C20.1967 224.776 22.5886 222.579 25.2187 222.824C27.8581 223.069 29.7459 225.678 29.4343 228.637Z" fill="#BCBEC0"/>
<path opacity="0.15" d="M29.4343 228.637C29.1319 231.596 26.74 233.793 24.1098 233.548C21.4705 233.303 19.5826 230.694 19.8942 227.735C20.1967 224.776 22.5886 222.579 25.2187 222.824C27.8581 223.069 29.7459 225.678 29.4343 228.637Z" fill="#231F20"/>
<path d="M29.3243 229.696C29.0768 232.068 27.1615 233.836 25.0537 233.635C22.9367 233.434 21.4246 231.35 21.672 228.969C21.9195 226.596 23.8348 224.828 25.9426 225.029C28.0596 225.231 29.5717 227.314 29.3243 229.696Z" fill="#BCBEC0"/>
<path d="M29.4343 228.637C29.1319 231.596 26.74 233.793 24.1098 233.548C21.4705 233.303 19.5826 230.694 19.8942 227.735C20.1967 224.776 22.5886 222.579 25.2187 222.824C27.8581 223.069 29.7459 225.678 29.4343 228.637Z" stroke="#D1D3D4" stroke-width="2.3" stroke-miterlimit="10"/>
<path d="M100.962 151.718C104.078 151.666 106.635 153.671 106.681 156.201C106.727 158.731 104.243 160.823 101.127 160.876C98.0113 160.928 95.4544 158.923 95.4086 156.393C95.3628 153.863 97.8463 151.771 100.962 151.718Z" fill="#BCBEC0"/>
<path opacity="0.15" d="M100.962 151.718C104.078 151.666 106.635 153.671 106.681 156.201C106.727 158.731 104.243 160.823 101.127 160.876C98.0113 160.928 95.4544 158.923 95.4086 156.393C95.3628 153.863 97.8463 151.771 100.962 151.718Z" fill="#231F20"/>
<path d="M102.227 152.707C104.656 152.664 106.653 154.231 106.69 156.201C106.727 158.17 104.793 159.807 102.364 159.842C99.9359 159.886 97.938 158.319 97.9014 156.349C97.8647 154.38 99.7984 152.742 102.227 152.707Z" fill="#BCBEC0"/>
<path d="M100.962 151.718C104.078 151.666 106.635 153.671 106.681 156.201C106.727 158.731 104.243 160.823 101.127 160.876C98.0113 160.928 95.4544 158.923 95.4086 156.393C95.3628 153.863 97.8463 151.771 100.962 151.718Z" stroke="#D1D3D4" stroke-width="2.3" stroke-miterlimit="10"/>
<path d="M70.7106 286.487C73.5699 287.66 75.0453 290.497 73.9914 292.825C72.9467 295.145 69.7758 296.082 66.9165 294.909C64.0572 293.736 62.5818 290.899 63.6357 288.571C64.6804 286.251 67.8513 285.314 70.7106 286.487Z" fill="#BCBEC0"/>
<path opacity="0.15" d="M70.7106 286.487C73.5699 287.66 75.0453 290.497 73.9914 292.825C72.9467 295.145 69.7758 296.082 66.9165 294.909C64.0572 293.736 62.5818 290.899 63.6357 288.571C64.6804 286.251 67.8513 285.314 70.7106 286.487Z" fill="#231F20"/>
<path d="M70.9489 288.282C73.3224 289.254 74.5413 291.609 73.6707 293.535C72.8001 295.461 70.179 296.24 67.8055 295.259C65.4319 294.288 64.213 291.933 65.0837 290.007C65.9543 288.081 68.5753 287.301 70.9489 288.282Z" fill="#BCBEC0"/>
<path d="M70.7106 286.487C73.5699 287.66 75.0453 290.497 73.9914 292.825C72.9467 295.145 69.7758 296.082 66.9165 294.909C64.0572 293.736 62.5818 290.899 63.6357 288.571C64.6804 286.251 67.8513 285.314 70.7106 286.487Z" stroke="#D1D3D4" stroke-width="2.3" stroke-miterlimit="10"/>
<path d="M129.418 254.682C130.444 251.871 133.294 250.269 135.796 251.101C138.298 251.933 139.498 254.883 138.472 257.693C137.446 260.504 134.595 262.106 132.094 261.274C129.592 260.442 128.391 257.492 129.418 254.682Z" fill="#BCBEC0"/>
<path opacity="0.15" d="M129.418 254.682C130.444 251.871 133.294 250.269 135.796 251.101C138.298 251.933 139.498 254.883 138.472 257.693C137.446 260.504 134.595 262.106 132.094 261.274C129.592 260.442 128.391 257.492 129.418 254.682Z" fill="#231F20"/>
<path d="M131.663 255.425C132.433 253.315 134.577 252.107 136.465 252.729C138.344 253.35 139.251 255.574 138.481 257.684C137.711 259.794 135.567 261.002 133.679 260.38C131.8 259.759 130.893 257.535 131.663 255.425Z" fill="#BCBEC0"/>
<path d="M129.418 254.682C130.444 251.871 133.294 250.269 135.796 251.101C138.298 251.933 139.498 254.883 138.472 257.693C137.446 260.504 134.595 262.106 132.094 261.274C129.592 260.442 128.391 257.492 129.418 254.682Z" stroke="#D1D3D4" stroke-width="2.3" stroke-miterlimit="10"/>
<path d="M96.6365 246.54C105.856 254.988 106.8 268.339 98.7443 276.376C90.6889 284.404 76.6765 284.071 67.4572 275.623C58.2378 267.175 57.2939 253.824 65.3494 245.787C73.4049 237.759 87.4172 238.092 96.6365 246.54Z" fill="#BCBEC0"/>
<path opacity="0.15" d="M96.6365 246.54C105.856 254.988 106.8 268.339 98.7443 276.376C90.6889 284.404 76.6765 284.071 67.4572 275.623C58.2378 267.175 57.2939 253.824 65.3494 245.787C73.4049 237.759 87.4172 238.092 96.6365 246.54Z" fill="#231F20"/>
<path d="M96.9205 250.523C104.912 257.842 105.727 269.407 98.7442 276.367C91.761 283.327 79.6274 283.029 71.6361 275.719C63.6447 268.4 62.8291 256.835 69.8124 249.876C76.7956 242.916 88.9292 243.213 96.9205 250.523Z" fill="#BCBEC0"/>
<path d="M96.6365 246.54C105.856 254.988 106.8 268.339 98.7443 276.376C90.6889 284.404 76.6765 284.071 67.4572 275.623C58.2378 267.175 57.2939 253.824 65.3494 245.787C73.4049 237.759 87.4172 238.092 96.6365 246.54Z" stroke="#D1D3D4" stroke-width="2.3" stroke-miterlimit="10"/>
<path d="M98.3254 250.002C97.2397 237.116 97.0406 223.654 96.9683 210.695C97.0316 197.736 97.2306 184.284 98.3254 171.388C99.4202 184.274 99.6193 197.736 99.6826 210.695C99.6193 223.654 99.4112 237.107 98.3254 250.002Z" fill="#272735"/>
<path d="M113.055 225.828C112.123 209.416 112.123 192.996 113.055 176.584C113.987 192.996 113.987 209.416 113.055 225.828Z" fill="#272735"/>
<path d="M106.486 238.705C105.093 222.33 105.084 205.836 106.486 189.461C107.889 205.836 107.88 222.33 106.486 238.705Z" fill="#272735"/>
<path d="M90.7342 238.705C89.3408 222.33 89.3318 205.836 90.7342 189.461C92.1366 205.836 92.1276 222.33 90.7342 238.705Z" fill="#272735"/>
<path d="M83.134 225.828C82.2021 209.416 82.2021 192.996 83.134 176.584C84.0659 192.996 84.0659 209.416 83.134 225.828Z" fill="#272735"/>
<path d="M119.751 163.963L118.647 166.447C117.217 169.662 114.177 171.845 110.694 172.146C104.867 172.658 95.4843 173.178 86.925 172.365C83.3873 172.028 80.311 169.763 78.9358 166.457L77.8953 163.963H119.751Z" fill="#BD00FF" stroke="#3F3D56" stroke-width="1.05" stroke-miterlimit="10"/>
<path opacity="0.39" d="M110.404 168.292C104.577 168.804 95.1947 169.324 86.6355 168.511C83.6044 168.219 80.9082 166.52 79.3339 163.954H77.6057L78.6462 166.447C80.0215 169.753 83.0978 172.018 86.6355 172.356C95.1947 173.169 104.577 172.639 110.404 172.137C113.879 171.836 116.928 169.653 118.357 166.438L119.461 163.954H117.615C116.014 166.411 113.372 168.027 110.404 168.292Z" fill="#3F3D56"/>
<path d="M125.297 157.396L123.361 160.858C121.904 163.47 119.253 165.168 116.294 165.406C108.884 165.99 94.1452 166.821 81.5325 165.579C78.5648 165.287 75.9409 163.497 74.5476 160.83L72.7561 157.396H125.297Z" fill="#00FF9F" stroke="#3F3D56" stroke-width="1.05" stroke-miterlimit="10"/>
<path d="M131.024 101.267L142.94 113.779C147.573 118.647 150.305 125.04 150.631 131.771C151.246 144.264 151.771 165.187 149.6 180.028C149.03 183.936 143.999 185.105 141.791 181.836L125.288 157.351L131.024 101.258V101.267Z" fill="#BD00FF" stroke="#3F3D56" stroke-width="1.05" stroke-miterlimit="10"/>
<path opacity="0.39" d="M125.297 157.123L141.8 181.608C144.008 184.877 149.038 183.708 149.608 179.799C150.052 176.749 150.387 173.452 150.631 170.018C148.876 171.854 145.618 171.909 143.963 169.452L127.459 144.967L125.297 157.132V157.123Z" fill="#3F3D56"/>
<path d="M98.9859 160.155C111.318 160.155 125.071 157.625 125.071 157.625C125.071 157.625 137.756 62.7277 131.712 41.3846C125.668 20.0507 98.9859 1 98.9859 1C98.9859 1 72.3038 20.0599 66.2599 41.3938C60.2159 62.7368 72.0867 157.105 72.0867 157.105C72.0867 157.105 86.6447 160.155 98.9859 160.155Z" fill="#E6E6E6" stroke="#3F3D56" stroke-width="0.75" stroke-miterlimit="10"/>
<path d="M98.9858 4.30615C106.677 15.4115 112.096 28.3616 114.023 41.9053C114.838 47.4763 114.72 53.1294 114.774 58.7368C114.684 83.9247 113.245 110.145 111.689 135.342C111.228 141.716 110.811 148.091 110.269 154.456L110.829 135.296C111.644 110.062 112.775 83.8882 113.173 58.7277C113.209 52.344 113.245 45.9876 112.331 39.7318C110.422 27.1835 105.609 15.101 98.9949 4.30615H98.9858Z" fill="#3F3D56"/>
<path d="M83.6316 92.7193C98.262 93.2582 112.829 91.7422 127.432 90.9385C120.248 92.491 112.947 93.4134 105.609 93.8244C98.2801 94.1623 90.8518 94.1988 83.6316 92.7193Z" fill="#3F3D56"/>
<path d="M111.065 71.7421C111.065 71.7421 112.739 76.8016 93.9463 85.1032C75.1539 93.4048 84.3827 104.41 84.3827 104.41C84.3827 104.41 90.9243 89.7974 95.1225 89.6513C95.1225 89.6513 91.241 101.195 91.5848 109.999C91.9286 118.803 96.1721 160.165 96.1721 160.165L72.0414 157.37C72.0414 157.37 74.7558 149.288 73.8691 138.959C71.3357 109.131 65.4546 49.7233 68.938 42.4263C73.6339 32.5995 86.138 9.73134 97.3392 3.12842C97.3392 3.12842 82.365 39.5404 83.6227 51.148C84.8803 62.7556 111.056 71.7513 111.056 71.7513L111.065 71.7421Z" fill="#3F3D56"/>
<path d="M94.1181 7.00977C94.1181 7.00977 79.352 24.4988 77.1715 44.3806C74.991 64.2624 77.1715 97.1218 77.1715 97.1218C77.1715 97.1218 76.3301 51.3032 78.8454 43.8966C81.3607 36.49 87.0699 17.3479 94.1181 7.00977Z" fill="#A6A5AE"/>
<path d="M134.408 110.008C142.081 115.999 149.545 126.182 147.79 136.465C147.663 133.88 147.175 131.433 146.397 129.058C143.845 121.898 139.195 115.807 134.408 109.999V110.008Z" fill="#3F3D56"/>
<path d="M130.201 161.808C128.798 162.566 125.306 158.082 125.415 156.146L127.523 137.588L131.024 101.258C131.024 101.258 129.975 137.341 132.164 150.913C132.698 154.228 132.2 157.634 130.753 160.657L130.201 161.799V161.808Z" fill="#3F3D56"/>
<path d="M101.628 5.31982C101.628 5.31982 124.664 27.1743 127.432 46.4807C130.201 65.7872 127.432 115.588 127.432 115.588C127.432 115.588 134.227 79.2579 130.708 52.3257C127.188 25.3934 116.104 19.8042 101.637 5.31982H101.628Z" fill="#3F3D56"/>
<path opacity="0.39" d="M99.9722 81.4497C109.796 81.4497 117.76 73.411 117.76 63.4949C117.76 53.5787 109.796 45.54 99.9722 45.54C90.1481 45.54 82.1841 53.5787 82.1841 63.4949C82.1841 73.411 90.1481 81.4497 99.9722 81.4497Z" fill="#3F3D56"/>
<path d="M71.9418 101.268C71.9418 101.268 71.6794 111.852 75.0271 111.688C75.5066 111.661 75.6785 112.318 75.2533 112.537C73.9866 113.195 74.3033 113.862 72.3127 114.053C72.3127 114.053 71.9961 114.766 72.6475 115.423C72.9913 115.77 74.3937 115.752 75.6152 115.652C75.9952 115.624 76.1671 116.108 75.8595 116.336C75.6785 116.464 75.5157 116.601 75.3709 116.738C74.6019 117.515 73.8509 118.355 73.1451 118.528C72.4394 118.702 72.177 120.556 72.8918 122.647C73.6066 124.739 73.9866 125.634 75.0633 125.688C75.4704 125.707 76.0947 125.853 76.719 126.017C76.9905 126.09 76.9362 126.492 76.6557 126.492C75.9047 126.474 75.1538 126.492 74.7919 126.647C73.9052 127.003 73.6066 129.332 74.1133 130.647C74.3938 131.387 76.2305 131.296 77.7776 131.067C78.2934 130.994 78.6281 131.351 78.4653 131.853C78.0672 133.104 74.1676 131.25 74.4933 133.871C74.7919 136.2 75.3528 140.675 75.0723 141.04C75.0723 141.04 78.4562 142.41 79.9944 141.698C81.5325 140.986 81.5958 141.46 81.5958 141.46C81.5958 141.46 79.1077 143.725 77.1624 143.314C75.2081 142.894 75.3257 143.314 75.5338 145.342C75.7419 147.369 76.2124 148.383 76.2124 148.383L77.841 148.703C78.1667 148.767 78.1577 149.241 77.8229 149.287C77.0176 149.406 76.1762 149.515 75.9138 149.515C75.9138 149.515 76.2124 150.356 75.9138 151.369C75.9138 151.369 77.2348 151.78 78.2843 153.178C78.6734 153.698 78.3839 154.411 77.7596 154.566C77.1352 154.721 78.8905 155.762 78.031 155.717C76.3571 155.625 73.5975 155.771 72.8104 156.109C72.358 156.301 71.8965 155.844 72.0775 155.379C72.6023 154.073 72.5208 151.47 72.2765 149.963C72.2223 149.643 72.5661 149.415 72.8375 149.589L73.4709 149.251C73.4709 149.251 71.4261 146.483 71.4261 144.328C71.4261 144.328 73.8509 146.776 73.7966 146.356C73.7423 145.935 71.3718 143.369 71.4894 142.41C71.607 141.451 71.6703 140.675 71.6703 140.675L70.856 139.305C70.856 139.305 73.2718 141.57 73.3894 141.095C73.3894 141.095 70.5575 138.173 70.8832 135.542C70.8832 135.542 72.8556 136.976 73.1542 136.794C73.1542 136.794 70.8018 135.058 70.8832 134.109C70.9646 133.159 70.666 131.99 70.1413 131.186C69.6165 130.383 72.8013 131.899 72.8013 131.899L70.1413 129.634L70.0236 125.752L71.9961 126.108C71.9961 126.108 69.9694 125.031 69.9694 124.254C69.9694 123.478 67.4179 113.852 67.7164 113.14C68.015 112.428 69.327 108.528 69.327 108.528L68.7207 106.985L67.7164 102.528L71.987 101.268H71.9418Z" fill="#3F3D56"/>
<path d="M144.071 182.247C142.696 181.434 140.914 180.229 140.316 179.114C140.316 179.114 143.601 180.101 143.356 179.763C143.112 179.425 139.819 178.302 139.466 177.407C139.113 176.512 138.805 175.799 138.805 175.799L137.439 174.986C137.439 174.986 140.633 175.827 140.515 175.343C140.515 175.343 136.652 174.128 135.693 171.662C135.693 171.662 138.109 171.973 138.281 171.671C138.281 171.671 135.394 171.279 135.014 170.402C134.634 169.525 133.82 168.648 132.979 168.183C132.137 167.717 135.657 167.534 135.657 167.534L132.246 166.813L130.309 163.452L132.21 162.822C132.21 162.822 128.753 162.21 128.391 161.534L131.395 159.333C133.006 160.831 133.766 161.434 134.743 160.968C135.114 160.794 135.729 160.612 136.353 160.465C136.625 160.402 136.77 160.785 136.516 160.913C135.847 161.251 135.204 161.634 134.942 161.945C134.327 162.685 135.168 164.877 136.227 165.79C136.824 166.301 138.389 165.342 139.647 164.402C140.063 164.091 140.534 164.246 140.624 164.767C140.859 166.055 136.553 166.301 138.082 168.438C139.439 170.347 142.045 174.018 141.963 174.466C141.963 174.466 145.591 174.046 146.605 172.676C147.618 171.306 147.899 171.699 147.899 171.699C147.899 171.699 146.786 174.886 144.867 175.461C142.949 176.037 143.257 176.338 144.397 178.028C145.537 179.717 146.433 180.384 146.433 180.384L148.016 179.891C148.333 179.79 148.55 180.219 148.279 180.411C147.627 180.895 146.93 181.398 146.713 181.525C146.188 182.466 144.994 182.795 144.071 182.247Z" fill="#3F3D56"/>
<path d="M126.591 37.6588C126.591 37.6588 127.65 38.7364 127.948 40.8552C128.247 42.974 127.595 45.2937 128.464 47.1111C129.332 48.9285 130.708 52.3989 130.472 53.2574C130.237 54.1158 129.088 55.5405 129.088 55.5405C129.088 55.5405 130.31 54.8921 130.717 55.8419C131.124 56.7917 131.413 57.7963 130.572 58.1616C129.242 58.737 129.278 59.0292 129.278 59.0292C129.278 59.0292 131.097 59.431 131.142 60.0886C131.169 60.4174 131.251 61.1023 131.323 61.7142C131.413 62.4357 131.251 63.1663 130.871 63.7873C130.364 64.6093 129.676 65.8422 129.342 66.9472C128.762 68.8194 129.821 67.1573 127.242 66.3536C125.207 65.7143 128.455 62.8375 128.645 61.3124C128.835 59.7872 124.881 57.0383 126.754 55.2574C128.627 53.4765 129.631 52.5176 128.69 51.6043C128.075 51.0107 126.971 50.1066 126.283 49.5678C126.039 49.376 126.012 49.0289 126.202 48.7915C126.446 48.481 126.636 47.86 126.356 46.5996C125.813 44.1338 127.251 42.6635 125.017 42.1246C122.782 41.5858 125.071 40.2616 124.492 37.8597C124.202 36.645 123.515 35.1838 122.908 34.0331C122.791 33.8048 123.098 33.5856 123.261 33.7865L126.591 37.6588Z" fill="#3F3D56"/>
<path d="M81.9035 132.93C83.7024 132.93 85.1607 131.459 85.1607 129.643C85.1607 127.827 83.7024 126.355 81.9035 126.355C80.1045 126.355 78.6462 127.827 78.6462 129.643C78.6462 131.459 80.1045 132.93 81.9035 132.93Z" fill="#E6E6E6"/>
<path d="M80.2749 123.113C81.1743 123.113 81.9035 122.377 81.9035 121.469C81.9035 120.561 81.1743 119.825 80.2749 119.825C79.3754 119.825 78.6462 120.561 78.6462 121.469C78.6462 122.377 79.3754 123.113 80.2749 123.113Z" fill="#E6E6E6"/>
<path d="M74.5024 123.231C75.142 123.231 75.6605 122.708 75.6605 122.062C75.6605 121.416 75.142 120.893 74.5024 120.893C73.8628 120.893 73.3442 121.416 73.3442 122.062C73.3442 122.708 73.8628 123.231 74.5024 123.231Z" fill="#E6E6E6"/>
<path d="M74.4119 100.847C74.9965 100.847 75.4705 100.369 75.4705 99.779C75.4705 99.1888 74.9965 98.7104 74.4119 98.7104C73.8272 98.7104 73.3533 99.1888 73.3533 99.779C73.3533 100.369 73.8272 100.847 74.4119 100.847Z" fill="#E6E6E6"/>
<path d="M73.2175 94.0251C73.947 94.0251 74.5385 93.4282 74.5385 92.6918C74.5385 91.9554 73.947 91.3584 73.2175 91.3584C72.4879 91.3584 71.8965 91.9554 71.8965 92.6918C71.8965 93.4282 72.4879 94.0251 73.2175 94.0251Z" fill="#E6E6E6"/>
<path d="M117.914 99.4591C119.193 99.4591 120.23 98.4124 120.23 97.1212C120.23 95.8299 119.193 94.7832 117.914 94.7832C116.635 94.7832 115.598 95.8299 115.598 97.1212C115.598 98.4124 116.635 99.4591 117.914 99.4591Z" fill="#3F3D56"/>
<path d="M117.914 105.423C118.554 105.423 119.072 104.9 119.072 104.254C119.072 103.608 118.554 103.085 117.914 103.085C117.274 103.085 116.756 103.608 116.756 104.254C116.756 104.9 117.274 105.423 117.914 105.423Z" fill="#3F3D56"/>
<path opacity="0.39" d="M83.6316 92.7193C83.6316 92.7193 92.5528 97.6784 95.4662 101.268C98.3796 104.857 97.9815 104.455 105.527 106.592C113.073 108.729 116.919 109.204 120.23 103.085C123.542 96.966 127.423 90.9385 127.423 90.9385L104.994 93.3586L83.6226 92.7193H83.6316Z" fill="#3F3D56"/>
<path d="M148.523 150.94L149.78 153.488C149.138 153.488 148.686 154.1 148.849 154.721C148.93 155.032 148.93 155.397 148.794 155.835C148.27 157.479 147.926 158.301 147.808 161.114C147.69 163.927 149.201 165.224 148.387 166.977C148.387 166.977 149.292 166.576 148.405 164.795C148.052 164.082 146.985 164.603 147.301 165.333C147.953 166.831 148.74 170.082 148.378 171.352C148.188 172.009 150.948 164.512 150.948 164.512V148.904L149.382 149.196C148.595 149.342 148.17 150.21 148.523 150.931V150.94Z" fill="#3F3D56"/>
<path d="M136.299 114.884C136.299 114.884 137.611 115.633 138.453 117.597C139.294 119.56 139.303 121.962 140.624 123.478C141.945 124.994 144.587 127.844 144.596 128.739C144.605 129.634 143.483 131.424 143.483 131.424C143.483 131.424 145.275 130.026 145.926 130.83C146.578 131.634 147.12 132.519 146.406 133.104C145.284 134.017 144.596 134.73 144.596 134.73C144.596 134.73 146.451 134.62 146.677 135.241C146.786 135.552 147.048 136.191 147.283 136.757C147.564 137.433 147.6 138.182 147.401 138.876C147.138 139.798 146.804 141.177 146.768 142.337C146.713 144.301 147.292 142.41 144.587 142.337C142.461 142.282 144.813 138.62 144.587 137.104C144.361 135.588 139.819 134.017 141.149 131.789C142.479 129.561 143.185 128.373 142.035 127.743C141.285 127.332 139.982 126.775 139.167 126.437C138.887 126.318 138.76 125.99 138.887 125.707C139.041 125.341 139.059 124.693 138.453 123.56C137.267 121.332 139.032 118.839 136.742 118.93C134.453 119.021 135.521 117.816 134.327 115.651C133.721 114.556 132.671 113.341 131.784 112.391C131.603 112.199 131.848 111.907 132.065 112.053L136.308 114.875L136.299 114.884Z" fill="#3F3D56"/>
<path d="M135.584 131.707C137.077 132.026 134.996 133.542 133.485 133.816C131.983 134.09 131.106 135.214 131.73 136.282C132.354 137.351 137.032 136.309 135.548 138.364C134.055 140.419 131.667 140.702 133.603 144.465C135.539 148.228 135.639 150.419 134.318 149.652C132.997 148.885 131.811 148.173 133.123 150.94C134.435 153.707 135.693 154.958 134.616 156.529C133.54 158.1 133.205 158.739 131.088 160.365C128.97 161.99 129.966 159.579 130.68 158.684C131.395 157.789 132.553 156.63 131.965 155.506C131.377 154.383 131.947 150.748 131.947 150.748C131.947 150.748 129.559 147.625 129.513 146.017C129.468 144.41 129.74 142.94 130.536 141.342C131.332 139.743 130.762 138.172 130.608 136.182C130.454 134.191 129.504 133.944 129.758 132.693C129.966 131.67 134.11 131.387 135.593 131.697L135.584 131.707Z" fill="#3F3D56"/>
<path d="M76.0405 158.319C76.8096 158.913 76.8729 159.05 76.6105 159.972C76.3481 160.895 76.7282 161.635 77.4701 161.507C78.212 161.379 78.9268 158.456 79.6325 159.753C80.3382 161.05 79.8497 162.484 82.4102 162.173C84.9707 161.863 86.1922 162.265 85.4141 162.867C84.636 163.47 83.9393 164 85.785 163.836C87.6399 163.671 88.6623 163.214 89.2142 164.164C89.6304 164.877 89.8837 165.242 90.1099 166.046C90.1823 166.31 89.2232 166.256 88.4542 166.356C87.6851 166.457 85.8755 165.352 85.8755 165.352C85.8755 165.352 83.0255 165.187 82.1388 164.867C81.2521 164.548 80.9716 165.096 80.3201 164.292C80.0487 163.954 79.3792 164.356 78.8001 164.192C77.9949 163.963 77.5696 162.922 76.9272 162.73C75.8053 162.393 73.6971 158.301 73.0819 157.881C72.5842 157.543 74.9367 157.461 76.0315 158.31L76.0405 158.319Z" fill="#3F3D56"/>
<path d="M131.956 155.516C131.956 155.516 137.539 155.662 135.421 157.89C133.304 160.118 133.368 160.931 133.368 160.931L133.34 162.977L129.495 158.785L131.956 155.525V155.516Z" fill="#3F3D56"/>
<path d="M143.239 156.282C144.628 156.282 145.754 155.146 145.754 153.743C145.754 152.341 144.628 151.205 143.239 151.205C141.85 151.205 140.724 152.341 140.724 153.743C140.724 155.146 141.85 156.282 143.239 156.282Z" fill="#3F3D56"/>
<path d="M144.867 150.703C145.357 150.703 145.754 150.302 145.754 149.808C145.754 149.313 145.357 148.913 144.867 148.913C144.378 148.913 143.981 149.313 143.981 149.808C143.981 150.302 144.378 150.703 144.867 150.703Z" fill="#3F3D56"/>
<path d="M66.3141 101.267L54.3981 113.779C49.7656 118.647 47.0331 125.04 46.7074 131.771C46.0921 144.264 45.5674 165.187 47.7388 180.028C48.3089 183.936 53.3395 185.105 55.5471 181.836L72.0504 157.351L66.3141 101.258V101.267Z" fill="#3F3D56" stroke="#3F3D56" stroke-width="1.05" stroke-miterlimit="10"/>
<path d="M62.9303 110.007C58.5331 115.332 54.2806 120.893 51.6024 127.314C50.4262 130.236 49.7024 133.241 49.5486 136.465C47.7933 126.181 55.2578 115.998 62.9303 110.007Z" fill="#BD00FF"/>
<path d="M53.1586 182.247C54.5339 181.434 56.3163 180.229 56.9135 179.114C56.9135 179.114 53.6291 180.101 53.8734 179.763C54.1177 179.425 57.4111 178.302 57.764 177.407C58.1168 176.512 58.4245 175.799 58.4245 175.799L59.7907 174.986C59.7907 174.986 56.5968 175.827 56.7144 175.343C56.7144 175.343 60.5779 174.128 61.5369 171.662C61.5369 171.662 59.1211 171.973 58.9492 171.671C58.9492 171.671 61.8355 171.279 62.2155 170.402C62.5955 169.525 63.4098 168.648 64.2513 168.183C65.0927 167.726 61.5731 167.534 61.5731 167.534L64.9842 166.813L66.9204 163.452L65.0203 162.822C65.0203 162.822 68.4766 162.21 68.8385 161.534L65.8347 159.333C64.2241 160.831 63.4641 161.434 62.4869 160.968C62.116 160.794 61.5007 160.612 60.8764 160.465C60.605 160.402 60.4602 160.785 60.7136 160.913C61.3831 161.251 62.0255 161.634 62.2879 161.945C62.9032 162.685 62.0617 164.877 61.0031 165.79C60.4059 166.301 58.8407 165.342 57.583 164.402C57.1668 164.091 56.6963 164.246 56.6058 164.767C56.3706 166.055 60.6774 166.301 59.1483 168.438C57.7911 170.347 55.1853 174.018 55.2668 174.466C55.2668 174.466 51.6386 174.046 50.6252 172.676C49.6119 171.306 49.3314 171.699 49.3314 171.699C49.3314 171.699 50.4443 174.886 52.3624 175.461C54.2805 176.037 53.9729 176.338 52.8329 178.028C51.6929 179.717 50.7971 180.384 50.7971 180.384L49.2138 179.891C48.8971 179.79 48.6799 180.219 48.9514 180.411C49.6028 180.895 50.2995 181.398 50.5166 181.525C51.0414 182.466 52.2357 182.795 53.1586 182.247Z" fill="#BD00FF"/>
<path d="M48.9331 149.159L47.6755 151.707C48.3088 151.707 48.7793 152.319 48.6074 152.94C48.526 153.251 48.5169 153.616 48.6617 154.054C49.1864 155.698 49.5303 156.52 49.6479 159.333C49.7655 162.146 48.2545 163.443 49.0688 165.196C49.0688 165.196 48.164 164.794 49.0507 163.014C49.4036 162.301 50.4712 162.822 50.1546 163.552C49.5031 165.05 48.716 168.301 49.0779 169.571C49.1774 169.927 48.4174 167.872 47.6936 165.927C46.9154 163.817 46.5173 161.589 46.5173 159.342V147.132L48.0826 147.424C48.8698 147.57 49.295 148.438 48.9422 149.159H48.9331Z" fill="#BD00FF"/>
<path d="M67.6441 156.283C67.6441 156.283 59.682 155.662 61.8082 157.89C63.9344 160.119 63.8621 160.931 63.8621 160.931L63.8892 162.977L69.1098 160.447L67.1102 158.383H69.0374C69.4627 158.383 69.8608 158.192 70.1141 157.854L71.3627 156.255L70.5665 150.063L67.6441 156.283Z" fill="#BD00FF"/>
<path d="M56.1987 152.593C57.5878 152.593 58.714 151.456 58.714 150.054C58.714 148.652 57.5878 147.515 56.1987 147.515C54.8095 147.515 53.6833 148.652 53.6833 150.054C53.6833 151.456 54.8095 152.593 56.1987 152.593Z" fill="#BD00FF"/>
<path d="M54.561 147.022C55.0507 147.022 55.4477 146.622 55.4477 146.127C55.4477 145.633 55.0507 145.232 54.561 145.232C54.0713 145.232 53.6743 145.633 53.6743 146.127C53.6743 146.622 54.0713 147.022 54.561 147.022Z" fill="#BD00FF"/>
<path opacity="0.34" d="M71.77 157.397L55.2667 181.881C53.0591 185.151 48.0285 183.982 47.4584 180.073C47.0151 177.023 46.6803 173.726 46.436 170.292C48.1913 172.128 51.4485 172.183 53.1043 169.726L69.6076 145.241L71.77 157.406V157.397Z" fill="#272735"/>
<path d="M64.423 114.747C64.423 114.747 63.473 125.98 61.3196 124.912C59.1752 123.843 58.7771 127.56 57.7185 128.711C56.6599 129.862 59.1753 135.204 57.7185 137.076C56.2618 138.949 52.5522 142.035 52.5522 143.232C52.5522 144.428 48.3993 143.67 48.8245 142.51C49.2498 141.351 52.5522 139.35 53.6832 135.871C54.8051 132.391 53.7918 130.903 54.5699 129.642C55.348 128.382 56.2709 128.382 57.1938 125.578C58.1166 122.775 57.5828 121.569 59.1119 120.902C60.641 120.236 61.4372 119.03 61.962 117.021C62.4868 115.012 64.432 114.747 64.432 114.747H64.423Z" fill="#BD00FF"/>
<path opacity="0.39" d="M99.1397 36.1793C87.3322 35.7958 76.0315 34.2067 70.0418 32.7363C69.4537 33.6679 68.8927 34.5994 68.3589 35.5492C73.0004 36.9191 82.9983 39.0744 94.1 39.7502C95.7558 39.8507 97.4387 39.9329 99.1397 39.9877C110.287 40.353 121.886 39.0927 129.911 36.1793C129.414 35.2569 128.889 34.3437 128.328 33.4395C120.402 35.9054 109.572 36.5081 99.1306 36.1702L99.1397 36.1793Z" fill="#3F3D56"/>
<path d="M68.9832 87.4136C68.9651 86.9935 67.5717 84.8839 67.7798 83.9432C67.9879 83.0025 67.0108 81.6692 67.0108 81.6692L66.3955 79.8883C66.3955 79.8883 67.9427 80.4728 68.1146 80.007C68.1146 80.007 65.3641 78.3449 65.9341 75.7603C65.9341 75.7603 66.4046 76.1256 67.0198 76.5914C67.3184 76.8197 67.6713 76.4088 67.4179 76.1348C66.6579 75.3311 66.0336 74.5457 66.106 74.1713C66.2779 73.2306 66.5765 73.0205 66.1331 72.1621C65.9522 71.815 66.5584 71.9885 67.3546 72.3082C67.6532 72.4269 67.8703 72.0159 67.6079 71.8333L65.9884 70.6734L66.0426 67.0295L66.9655 67.2122C67.3727 67.2944 67.5898 66.7464 67.246 66.5181C66.8027 66.235 66.486 65.9427 66.5041 65.6961C66.5765 64.9199 65.4907 58.9197 65.8526 58.2348C66.2146 57.5498 66.6127 55.0292 66.6127 55.0292L66.5674 45.3303C66.5855 44.8371 67.2551 44.7184 67.436 45.175C67.8432 46.1705 68.6303 49.6866 69.2727 49.7962C71.0732 50.1067 71.2723 52.8556 72.1228 53.2118C73.1271 53.641 72.9823 55.1205 71.9147 55.3397C71.5799 55.4036 71.2271 55.4676 70.8742 55.5132C70.3132 55.5863 70.0961 56.2895 70.5123 56.6731C71.4171 57.495 72.5661 58.5453 72.9009 58.9654C73.2176 59.3489 74.6291 59.4677 75.8686 59.4859C76.2396 59.4859 76.3572 59.9882 76.0405 60.1709C75.8415 60.2805 75.6515 60.4083 75.4886 60.5453C74.6471 61.2394 72.0052 61.97 71.2813 62.0796C70.5575 62.1892 71.969 62.728 72.4757 64.8742C72.9823 67.0204 71.8966 67.5135 72.9642 67.6779C73.3262 67.7327 73.8419 67.8971 74.3848 68.098C74.6743 68.2076 74.5748 68.646 74.2671 68.6095C73.5976 68.5364 72.9462 68.4999 72.6023 68.6095C71.6885 68.8834 71.1637 71.1666 71.5437 72.5274C71.7609 73.2945 73.6157 73.3767 75.19 73.3036C75.7057 73.2762 76.0043 73.669 75.7962 74.1439C75.2714 75.3402 71.5437 73.1393 71.6252 75.7695C71.6976 78.1166 71.8242 82.6281 71.5075 82.9569C71.5075 82.9569 70.3132 85.2948 71.9147 84.7286C73.5162 84.1624 73.5252 84.6464 73.5252 84.6464C73.5252 84.6464 75.2624 86.0255 73.3624 85.4136C71.4623 84.8108 71.5347 85.2309 71.5528 87.2766L69.0013 87.4319L68.9832 87.4136Z" fill="#3F3D56"/>
<path d="M71.0372 86.3174C71.0372 86.3174 66.468 86.1165 67.6533 87.4133C68.8295 88.7102 70.2681 92.144 70.2681 92.144C70.2681 92.144 67.7438 90.6737 67.4633 89.6052C67.1828 88.5366 65.8528 89.6965 67.0923 91.3404C68.3319 92.9934 71.0462 95.9341 71.0462 95.9341L69.1733 95.5871C68.4223 95.4501 67.9338 96.3633 68.4585 96.9204C68.6938 97.167 69.0014 97.4319 69.3905 97.7058C71.2362 98.9661 67.6533 99.4593 67.6533 99.4593C67.6533 99.4593 66.9928 99.2401 68.8024 100.838C70.621 102.446 67.2642 101.258 67.2642 101.258C67.2642 101.258 65.8347 103.067 67.6533 103.953C69.4719 104.838 73.3534 105.414 73.3534 105.414L71.8967 97.1122L71.0372 94.0162V86.3083V86.3174Z" fill="#3F3D56"/>
<path d="M72.0053 37.1111C70.1867 36.8827 69.2186 39.449 68.3047 39.5495C67.219 39.6682 66.9295 41.1203 67.8976 41.6409C68.1962 41.8052 68.5128 41.9605 68.8476 42.1066C69.3633 42.3349 69.3724 43.0747 68.8567 43.3213" fill="#3F3D56"/>
<path d="M93.1772 28.2796C94.1666 28.2796 94.9687 27.47 94.9687 26.4714C94.9687 25.4727 94.1666 24.6631 93.1772 24.6631C92.1878 24.6631 91.3857 25.4727 91.3857 26.4714C91.3857 27.47 92.1878 28.2796 93.1772 28.2796Z" fill="#A6A5AE" stroke="#3F3D56" stroke-width="0.45" stroke-miterlimit="10"/>
<path d="M93.1772 27.494C93.7368 27.494 94.1905 27.036 94.1905 26.4711C94.1905 25.9062 93.7368 25.4482 93.1772 25.4482C92.6175 25.4482 92.1638 25.9062 92.1638 26.4711C92.1638 27.036 92.6175 27.494 93.1772 27.494Z" fill="#04DAF6" stroke="#3F3D56" stroke-width="0.45" stroke-miterlimit="10"/>
<path d="M83.3694 26.8729C84.3588 26.8729 85.1608 26.0633 85.1608 25.0646C85.1608 24.0659 84.3588 23.2563 83.3694 23.2563C82.3799 23.2563 81.5779 24.0659 81.5779 25.0646C81.5779 26.0633 82.3799 26.8729 83.3694 26.8729Z" fill="#A6A5AE" stroke="#3F3D56" stroke-width="0.45" stroke-miterlimit="10"/>
<path d="M83.3693 26.0877C83.929 26.0877 84.3827 25.6298 84.3827 25.0648C84.3827 24.4999 83.929 24.042 83.3693 24.042C82.8097 24.042 82.356 24.4999 82.356 25.0648C82.356 25.6298 82.8097 26.0877 83.3693 26.0877Z" fill="#04DAF6" stroke="#3F3D56" stroke-width="0.45" stroke-miterlimit="10"/>
<path d="M103.419 28.5809C104.409 28.5809 105.211 27.7713 105.211 26.7726C105.211 25.7739 104.409 24.9644 103.419 24.9644C102.43 24.9644 101.628 25.7739 101.628 26.7726C101.628 27.7713 102.43 28.5809 103.419 28.5809Z" fill="#A6A5AE" stroke="#3F3D56" stroke-width="0.45" stroke-miterlimit="10"/>
<path d="M103.419 27.7957C103.979 27.7957 104.433 27.3378 104.433 26.7729C104.433 26.208 103.979 25.75 103.419 25.75C102.86 25.75 102.406 26.208 102.406 26.7729C102.406 27.3378 102.86 27.7957 103.419 27.7957Z" fill="#04DAF6" stroke="#3F3D56" stroke-width="0.45" stroke-miterlimit="10"/>
<path d="M113.987 27.8958C114.977 27.8958 115.779 27.0862 115.779 26.0876C115.779 25.0889 114.977 24.2793 113.987 24.2793C112.998 24.2793 112.196 25.0889 112.196 26.0876C112.196 27.0862 112.998 27.8958 113.987 27.8958Z" fill="#A6A5AE" stroke="#3F3D56" stroke-width="0.45" stroke-miterlimit="10"/>
<path d="M113.987 27.1102C114.547 27.1102 115.001 26.6522 115.001 26.0873C115.001 25.5224 114.547 25.0645 113.987 25.0645C113.428 25.0645 112.974 25.5224 112.974 26.0873C112.974 26.6522 113.428 27.1102 113.987 27.1102Z" fill="#04DAF6" stroke="#3F3D56" stroke-width="0.45" stroke-miterlimit="10"/>
<path d="M125.415 156.146C125.415 156.146 99.3026 161.269 83.677 157.26" stroke="#3F3D56" stroke-width="2.55" stroke-miterlimit="10"/>
<path opacity="0.39" d="M96.7149 166.448L115.218 165.717C115.607 165.69 115.978 165.662 116.331 165.635C119.054 165.425 121.515 163.964 123.026 161.69C118.104 159.9 111.182 158.457 104.08 160.448C100.189 161.534 94.3625 164.384 88.21 166.274C91.06 166.402 93.9282 166.457 96.724 166.448H96.7149Z" fill="#3F3D56"/>
<path d="M98.7327 193.041C98.7327 193.041 105.736 171.716 105.736 136.976C105.736 105.03 99.8184 100.363 98.8593 99.8149C98.787 99.7692 98.6965 99.751 98.615 99.751C98.5246 99.751 98.4431 99.7692 98.3707 99.8149C97.4117 100.363 91.4944 105.039 91.4944 136.976C91.4944 171.716 98.4974 193.041 98.4974 193.041H98.7327Z" fill="#BD00FF" stroke="#3F3D56" stroke-width="1.05" stroke-miterlimit="10"/>
<path d="M98.7958 149.698C97.7101 149.753 96.2624 153.086 95.2762 155.753C94.9233 156.703 93.5119 156.456 93.5209 155.433C93.5209 152.794 94.5704 149.205 99.2301 146.501C103.817 143.835 100.117 142.547 100.207 141.524C100.207 141.405 100.207 141.287 100.207 141.168C100.207 141.141 100.225 139.862 101.094 138.428C101.8 137.25 101.447 135.725 100.298 134.967C97.8639 133.378 94.1995 130.191 93.8376 125.323C93.4395 119.989 96.751 106.373 98.5877 99.313C98.4972 99.313 98.4158 99.3313 98.3434 99.3769C97.3843 99.9249 91.467 104.601 91.467 136.538C91.467 171.278 98.4701 192.603 98.4701 192.603H98.7053C98.7053 192.603 98.8139 192.274 98.9949 191.644C98.6329 186.11 97.4024 167.306 97.2758 162.566C97.1219 156.995 98.8048 149.689 98.8048 149.689L98.7958 149.698Z" fill="#3F3D56"/>
<path d="M101.483 131.323C103.092 131.323 104.396 130.007 104.396 128.383C104.396 126.759 103.092 125.442 101.483 125.442C99.874 125.442 98.5696 126.759 98.5696 128.383C98.5696 130.007 99.874 131.323 101.483 131.323Z" fill="#3F3D56"/>
<path opacity="0.39" d="M98.7326 100.282C98.6602 100.236 98.5697 100.218 98.4883 100.218C98.4068 100.218 98.3164 100.236 98.244 100.282C97.7011 100.592 95.5658 102.227 93.8196 109.396C93.892 109.36 93.9643 109.341 94.0458 109.341C94.1363 109.341 94.2177 109.36 94.2901 109.405C95.2491 109.953 101.166 114.629 101.166 146.566C101.166 165.197 99.1488 179.964 97.2849 189.663C97.9363 192.193 98.3706 193.517 98.3706 193.517H98.6059C98.6059 193.517 105.609 172.192 105.609 137.452C105.609 105.506 99.6916 100.839 98.7326 100.291V100.282Z" fill="#3F3D56"/>
<path d="M96.6244 125.788C97.239 125.788 97.7372 125.285 97.7372 124.665C97.7372 124.044 97.239 123.542 96.6244 123.542C96.0097 123.542 95.5115 124.044 95.5115 124.665C95.5115 125.285 96.0097 125.788 96.6244 125.788Z" fill="#3F3D56"/>
<path d="M100.216 123.542C100.741 123.542 101.166 123.113 101.166 122.583C101.166 122.053 100.741 121.624 100.216 121.624C99.6917 121.624 99.2664 122.053 99.2664 122.583C99.2664 123.113 99.6917 123.542 100.216 123.542Z" fill="#3F3D56"/>
<path d="M91.2953 118.309C89.3862 131.542 90.2729 144.976 91.5396 158.237C88.979 145.168 88.0923 131.341 91.2953 118.309Z" fill="#E6E6E6"/>
<path d="M94.2176 160.775C94.3804 159.844 95.0409 159.077 95.9276 158.766L97.14 157.88C97.71 160.364 98.47 164.072 99.7006 164.273C100.162 164.346 100.868 164.584 101.555 164.858C101.854 164.976 101.745 165.433 101.42 165.387C100.569 165.269 99.7006 165.214 99.2663 165.333C98.2077 165.634 97.5924 168.273 98.0086 169.835C98.2439 170.721 100.352 170.83 102.153 170.767C102.75 170.739 103.093 171.196 102.858 171.753C102.261 173.141 97.9996 170.538 98.0719 173.579C98.1353 176.283 98.2439 181.488 97.8819 181.863C97.8819 181.863 99.5105 180.749 101.356 180.109C103.202 179.47 101.103 182.566 101.103 182.566C101.103 182.566 102.189 185.434 99.9991 184.721C97.8096 184.009 97.9 184.502 97.891 186.849C97.8819 189.196 98.3072 190.42 98.3072 190.42L94.1995 160.766L94.2176 160.775Z" fill="#3F3D56"/>
<path opacity="0.39" d="M129.242 119.825C129.242 119.825 126.075 109.651 123.026 115.588C119.977 121.524 122.863 120.51 119.081 130.611C115.299 140.712 119.859 140.081 119.081 146.118C118.303 152.164 114.096 148.721 111.11 150.694C108.124 152.666 104.777 154.977 105.537 158.374C106.297 161.772 125.777 154.456 125.777 154.456L129.242 119.834V119.825Z" fill="#3F3D56"/>
<path d="M129.884 115.588C130.3 118.099 129.477 121.771 130.699 122.045C131.16 122.145 131.839 122.428 132.517 122.739C132.816 122.876 132.671 123.323 132.354 123.259C131.504 123.095 130.653 122.976 130.201 123.077C129.124 123.314 128.346 125.908 128.672 127.497C128.853 128.392 130.952 128.638 132.752 128.684C133.35 128.702 133.666 129.177 133.395 129.716C132.707 131.059 128.618 128.2 128.5 131.241C128.4 133.945 128.192 139.141 127.803 139.497C127.803 139.497 129.495 138.483 131.377 137.963C133.259 137.442 130.97 140.392 130.97 140.392C130.97 140.392 131.884 143.324 129.74 142.474C127.595 141.625 127.659 142.118 127.505 144.475C127.36 146.822 127.704 148.064 127.704 148.064L129.486 148.739C129.848 148.876 129.74 149.415 129.359 149.406C128.419 149.379 127.441 149.342 127.152 149.297C127.152 149.297 127.333 150.301 126.799 151.397C126.799 151.397 128.21 152.109 129.142 153.881C129.486 154.548 129.034 155.315 128.292 155.379C127.55 155.443 129.35 156.959 128.382 156.74C126.491 156.31 123.334 155.945 122.375 156.183C121.823 156.32 121.379 155.708 121.678 155.215C122.727 153.498 124.157 150.84 123.922 149.589L125.143 150.146C125.143 150.146 122.61 144.977 123.017 142.529C123.017 142.529 125.315 145.78 125.324 145.296C125.333 144.812 123.126 141.433 123.442 140.374C123.759 139.315 123.967 138.438 123.967 138.438L123.297 136.721C123.297 136.721 125.614 139.762 125.84 139.241C125.84 139.241 123.18 135.369 124.039 132.447C124.039 132.447 126.012 134.456 126.383 134.31C126.383 134.31 124.03 131.89 124.311 130.821C124.591 129.753 124.456 128.374 124.012 127.351C123.569 126.328 126.908 128.675 126.908 128.675L124.311 125.588L124.646 123.131C124.781 122.109 125.813 121.478 126.772 121.825L127.079 121.935C127.079 121.935 126.871 120.008 127.016 119.131L125.415 118.218C125.641 117.296 126.338 116.574 127.242 116.328L129.866 115.606L129.884 115.588Z" fill="#3F3D56"/>
<path d="M113.725 148.921C114.534 148.921 115.191 148.259 115.191 147.442C115.191 146.625 114.534 145.962 113.725 145.962C112.915 145.962 112.259 146.625 112.259 147.442C112.259 148.259 112.915 148.921 113.725 148.921Z" fill="#3F3D56"/>
<path d="M113.535 136.465C113.8 136.465 114.014 136.248 114.014 135.981C114.014 135.713 113.8 135.497 113.535 135.497C113.27 135.497 113.055 135.713 113.055 135.981C113.055 136.248 113.27 136.465 113.535 136.465Z" fill="#3F3D56"/>
<path d="M109.726 86.5911L108.794 85.8057L108.486 84.6184C108.341 84.0522 107.617 83.8969 107.247 84.3444L106.468 85.2851L105.292 85.5956C104.731 85.7417 104.577 86.4724 105.021 86.8468L105.953 87.6322L106.26 88.8195C106.405 89.3857 107.129 89.5409 107.5 89.0934L108.278 88.1528L109.454 87.8423C110.015 87.6961 110.169 86.9655 109.726 86.5911Z" fill="#3F3D56"/>
<path d="M102.804 90.7376C103.524 90.7376 104.107 90.1488 104.107 89.4225C104.107 88.6962 103.524 88.1074 102.804 88.1074C102.085 88.1074 101.501 88.6962 101.501 89.4225C101.501 90.1488 102.085 90.7376 102.804 90.7376Z" fill="#3F3D56"/>
<path d="M98.5967 78.0337C108.421 78.0337 116.385 69.995 116.385 60.0788C116.385 50.1627 108.421 42.124 98.5967 42.124C88.7726 42.124 80.8086 50.1627 80.8086 60.0788C80.8086 69.995 88.7726 78.0337 98.5967 78.0337Z" fill="#E6E6E6" stroke="#3F3D56" stroke-width="1.5" stroke-miterlimit="10"/>
<path d="M98.6057 77.1756C108.01 77.1756 115.634 69.4805 115.634 59.988C115.634 50.4955 108.01 42.8003 98.6057 42.8003C89.2014 42.8003 81.5776 50.4955 81.5776 59.988C81.5776 69.4805 89.2014 77.1756 98.6057 77.1756Z" stroke="#04DAF6" stroke-width="1.05" stroke-miterlimit="10"/>
<path d="M98.5605 46.3253C99.2251 46.3253 99.7639 45.7815 99.7639 45.1106C99.7639 44.4398 99.2251 43.896 98.5605 43.896C97.8959 43.896 97.3572 44.4398 97.3572 45.1106C97.3572 45.7815 97.8959 46.3253 98.5605 46.3253Z" fill="#3F3D56"/>
<path d="M98.5605 76.253C99.2251 76.253 99.7639 75.7092 99.7639 75.0384C99.7639 74.3675 99.2251 73.8237 98.5605 73.8237C97.8959 73.8237 97.3572 74.3675 97.3572 75.0384C97.3572 75.7092 97.8959 76.253 98.5605 76.253Z" fill="#3F3D56"/>
<path d="M113.381 61.2936C114.046 61.2936 114.584 60.7497 114.584 60.0789C114.584 59.4081 114.046 58.8643 113.381 58.8643C112.716 58.8643 112.178 59.4081 112.178 60.0789C112.178 60.7497 112.716 61.2936 113.381 61.2936Z" fill="#3F3D56"/>
<path d="M83.7312 61.2936C84.3958 61.2936 84.9346 60.7497 84.9346 60.0789C84.9346 59.4081 84.3958 58.8643 83.7312 58.8643C83.0666 58.8643 82.5278 59.4081 82.5278 60.0789C82.5278 60.7497 83.0666 61.2936 83.7312 61.2936Z" fill="#3F3D56"/>
<path d="M109.038 50.7086C109.703 50.7086 110.241 50.1648 110.241 49.4939C110.241 48.8231 109.703 48.2793 109.038 48.2793C108.373 48.2793 107.835 48.8231 107.835 49.4939C107.835 50.1648 108.373 50.7086 109.038 50.7086Z" fill="#3F3D56"/>
<path d="M88.0742 71.878C88.7388 71.878 89.2776 71.3342 89.2776 70.6634C89.2776 69.9925 88.7388 69.4487 88.0742 69.4487C87.4096 69.4487 86.8708 69.9925 86.8708 70.6634C86.8708 71.3342 87.4096 71.878 88.0742 71.878Z" fill="#3F3D56"/>
<path d="M109.038 71.878C109.703 71.878 110.241 71.3342 110.241 70.6634C110.241 69.9925 109.703 69.4487 109.038 69.4487C108.373 69.4487 107.835 69.9925 107.835 70.6634C107.835 71.3342 108.373 71.878 109.038 71.878Z" fill="#3F3D56"/>
<path d="M88.0742 50.7086C88.7388 50.7086 89.2776 50.1648 89.2776 49.4939C89.2776 48.8231 88.7388 48.2793 88.0742 48.2793C87.4096 48.2793 86.8708 48.8231 86.8708 49.4939C86.8708 50.1648 87.4096 50.7086 88.0742 50.7086Z" fill="#3F3D56"/>
<path d="M98.5968 72.1521C105.203 72.1521 110.558 66.7467 110.558 60.0788C110.558 53.4108 105.203 48.0054 98.5968 48.0054C91.9907 48.0054 86.6355 53.4108 86.6355 60.0788C86.6355 66.7467 91.9907 72.1521 98.5968 72.1521Z" fill="#3F3D56" stroke="#3F3D56" stroke-width="1.2" stroke-miterlimit="10"/>
<path d="M101.193 48.48L88.0198 65.6403C88.8884 67.412 90.1732 68.928 91.7384 70.0787L106.378 51.0097C104.903 49.7768 103.139 48.891 101.193 48.48Z" fill="#00FF9F"/>
<path d="M107.183 51.75L92.6433 70.6911C93.0143 70.9103 93.3943 71.1113 93.7833 71.2939L108.043 52.7181C107.771 52.3802 107.482 52.0605 107.183 51.7591V51.75Z" fill="#00FF9F"/>
<path opacity="0.34" d="M107.418 63.4218C99.2662 69.3854 97.0133 72.7919 90.6165 70.1617C86.5812 68.5087 83.1973 65.4401 81.2429 63.4035C82.9711 71.5316 90.1279 77.6322 98.6962 77.6322C108.287 77.6322 116.104 70.0065 116.53 60.4354C114.277 60.1797 111.173 60.6729 107.409 63.4218H107.418Z" fill="#272735"/>
<path d="M128.319 33.5578C127.07 31.1376 125.623 28.7814 124.048 26.5165C117.896 29.3659 111.11 29.6216 99.004 29.7495C87.5133 29.8773 76.6649 27.4115 73.8963 26.0781C72.34 28.2791 70.9014 30.5714 69.6528 32.9276C74.7377 34.4984 86.6266 37.4848 98.986 37.5031C112.187 37.5214 120.665 36.4711 128.319 33.5578Z" fill="#BD00FF" stroke="#3F3D56" stroke-width="0.75" stroke-miterlimit="10"/>
<path opacity="0.39" d="M98.9859 33.7492C87.7304 33.3656 76.9635 31.7765 71.2633 30.3062C70.7024 31.2377 70.1685 32.1692 69.6619 33.119C74.0863 34.4889 83.6136 36.6442 94.1906 37.32C95.774 37.4205 97.3754 37.5027 98.995 37.5575C109.617 37.9228 120.674 36.6625 128.328 33.7492C127.858 32.8268 127.351 31.9135 126.817 31.0094C119.262 33.4752 108.939 34.0779 98.995 33.74L98.9859 33.7492Z" fill="#3F3D56"/>
</svg>
