<?xml version="1.0" encoding="UTF-8"?>
<svg xmlns="http://www.w3.org/2000/svg" viewBox="0 0 445.48 251.51">
  <g style="isolation: isolate;">
    <g id="Layer_1" data-name="Layer 1">
      <g style="opacity: .7;">
        <g style="opacity: .9;">
          <path d="M126.77,19.39l-.28-.36c36.95.04,77.84,5.68,118.26,16.31,25.55,6.72,50.11,15.19,73.02,25.16l-.31.23c-22.83-9.95-47.33-18.39-72.8-25.08-40.29-10.6-81.06-16.22-117.9-16.26Z" style="fill: #fff;"/>
          <path d="M9.37,51.12l-.65-.26c15.4-14.19,40.61-24.16,72.92-28.83l.42.35c-32.21,4.66-57.34,14.59-72.69,28.74Z" style="fill: #fff;"/>
          <path d="M76.45,188.48c-18.26-10.66-34.1-22.06-47.09-33.9-13.07-11.91-22.95-23.99-29.36-35.91l.67.05c12.89,23.95,39.25,48.01,76.21,69.59l-.44.16h0Z" style="fill: #fff;"/>
          <path d="M192.18,235.19c-34.87-9.17-67.39-21.39-96.65-36.3l.38-.2c29.17,14.87,61.59,27.05,96.35,36.19,60.4,15.89,119.81,20.34,167.29,12.55l.44.35c-23.15,3.8-49.24,4.71-77.54,2.69-29.29-2.09-59.66-7.23-90.27-15.28Z" style="fill: #fff;"/>
          <path d="M437.48,208.89l-.68-.23c2.95-4.47,5.12-9.27,6.43-14.28,6.78-25.79-8.9-56.06-44.15-85.22l.56-.08c35.36,29.26,51.08,59.61,44.28,85.49-1.32,5.02-3.49,9.84-6.45,14.32h0Z" style="fill: #fff;"/>
          <path d="M325.34,219.58l-.44-.35c34.83-5.85,56.87-19.93,62.05-39.65,10.83-41.17-55.94-94.55-148.86-118.99-17.66-4.65-35.37-8.02-52.64-10.02l-.14-.35c17.34,2.01,35.12,5.4,52.85,10.07,45.23,11.9,85.67,30.87,113.89,53.42,28.21,22.55,40.85,46.01,35.58,66.06-5.27,20.04-27.34,33.94-62.31,39.81h0Z" style="fill: #fff;"/>
          <path d="M198.74,210.24c-85.93-22.6-150.69-70.08-150.63-110.44l.7.15c-.06,40.19,64.43,87.48,150.01,109.98,19.27,5.07,38.55,8.61,57.28,10.53l.16.35c-18.81-1.93-38.16-5.48-57.52-10.57h0Z" style="fill: #fff;"/>
          <path d="M49.97,90.95l-.69-.18c5-18.99,25.78-32.89,58.52-39.14l.45.34c-32.61,6.22-53.31,20.06-58.28,38.97h0Z" style="fill: #fff;"/>
          <path d="M205.3,185.3c-4.28-1.12-8.55-2.36-12.72-3.68l.16-.29c4.14,1.31,8.39,2.55,12.64,3.66,61.88,16.27,118.08,7.21,125.29-20.22,2.76-10.48-1.86-22.41-13.36-34.5l.61-.03c11.57,12.16,16.22,24.17,13.45,34.71-3.52,13.38-18.56,22.86-42.36,26.7-23.8,3.84-53.52,1.58-83.71-6.36h0Z" style="fill: #fff;"/>
          <path d="M148.97,162.85c-15.23-8.68-27.31-18.47-34.94-28.33-7.86-10.15-10.79-20.16-8.48-28.96,3.52-13.38,18.56-22.86,42.36-26.7,23.8-3.84,53.52-1.58,83.71,6.36,13,3.42,25.49,7.74,37.11,12.84l-.31.23c-11.55-5.07-23.96-9.36-36.88-12.76-61.88-16.27-118.08-7.21-125.29,20.22-4.63,17.61,11.5,38.89,43.15,56.93l-.43.17h0Z" style="fill: #fff;"/>
          <path d="M211.86,160.36c-12.37-3.25-23.66-8.08-32.65-13.94-8.69-5.67-14.67-12.07-16.83-18.01l.69.08c4.49,12.37,24.13,25.05,48.87,31.56,30.84,8.11,58.86,3.59,62.45-10.08,3.59-13.67-18.57-31.39-49.41-39.5-29.16-7.67-56.32-4.03-61.82,8.28l-.69-.2c2.7-6.04,10.57-10.23,22.17-11.81,11.66-1.58,26.01-.37,40.42,3.42,31.22,8.21,53.67,26.15,50.03,39.99-3.64,13.84-32.01,18.42-63.23,10.2h0Z" style="fill: #fff;"/>
          <path d="M210.11,168.46l-.69-.18-17.53,66.67.69.18,17.53-66.67Z" style="fill: #fff;"/>
          <path d="M305.96,183.74l-.42.17,94.55,52.6.42-.17-94.55-52.6Z" style="fill: #fff;"/>
          <path d="M218.67,135.18l-.42.18,63.6,35.38.42-.18-63.6-35.38Z" style="fill: #fff;"/>
          <path d="M426.41,136.48l-115.6-.79.28.36,115.6.79-.28-.36Z" style="fill: #fff;"/>
          <path d="M282.77,135.52l-64.45-.44.28.36,64.45.44-.28-.36Z" style="fill: #fff;"/>
          <path d="M245.05,35.59l-.69-.18-8.64,32.85.69.18,8.64-32.85Z" style="fill: #fff;"/>
          <path d="M224.36,114.26l-.69-.18-5.55,21.09.69.18,5.55-21.09Z" style="fill: #fff;"/>
          <path d="M36.84,34.01l-.42.18,127.25,70.79.42-.17L36.84,34.01Z" style="fill: #fff;"/>
          <path d="M171.45,108.9l-.42.18,47.22,26.27.42-.17-47.23-26.27Z" style="fill: #fff;"/>
          <path d="M35.73,133.86l-25.47-.17.28.36,25.47.17-.28-.36Z" style="fill: #fff;"/>
          <path d="M123.79,134.45l-48.19-.32.28.36,48.19.32-.28-.36Z" style="fill: #fff;"/>
          <path d="M154.11,134.66l-7.7-.05.28.36,7.7.05-.28-.36Z" style="fill: #fff;"/>
          <path d="M218.32,135.08l-54.6-.36.28.36,54.6.36-.28-.36Z" style="fill: #fff;"/>
          <g style="mix-blend-mode: overlay;">
            <path d="M211.2,165.73h0s.65-2.91.65-2.91h.02c1.38.36,2.77.69,4.13,1h.02s0,.01,0,.01l-.21,3.01h-.02c-1.51-.34-3.05-.71-4.57-1.1h-.02ZM206.25,164.38h-.02c-1.5-.44-3-.9-4.49-1.39h-.02s0-.01,0-.01l1.57-2.64h.02c1.33.44,2.69.86,4.05,1.25h.02s-1.13,2.78-1.13,2.78ZM220.82,167.87l-.27-3.12h.02c1.36.26,2.75.5,4.13.71h.02s0,.01,0,.01l.72,3.18h-.02c-1.51-.24-3.05-.51-4.57-.79h-.02s0,0,0,0ZM196.91,161.34h-.02c-1.45-.53-2.91-1.09-4.31-1.64h-.02s2.47-2.33,2.47-2.33h.02c1.26.51,2.57,1.01,3.89,1.48h.02s0,.02,0,.02l-2.04,2.47h0ZM230.41,169.41l-1.23-3.32.02-.06.02.06c1.34.16,2.7.3,4.02.42h.02s0,.01,0,.01l1.65,3.3h-.02c-1.48-.13-2.98-.28-4.47-.46v.06s-.02,0-.02,0ZM188.01,157.77h-.02c-1.36-.61-2.72-1.23-4.02-1.87h-.02s.01-.01.01-.01l3.3-1.95h.02c1.2.59,2.42,1.15,3.63,1.69h.02s0,.02,0,.02l-2.91,2.12h0ZM239.71,170.14l-2.13-3.34h.02c1.29.06,2.59.1,3.87.12h.02s0,0,0,0l2.54,3.34h-.02c-1.42-.02-2.86-.06-4.29-.13h-.02ZM179.73,153.76h-.01c-1.25-.67-2.49-1.36-3.68-2.06h-.01s.02-.01.02-.01l4.07-1.54h.01c1.07.64,2.19,1.26,3.32,1.86h.01s-3.73,1.75-3.73,1.75h0ZM248.57,170.23h-.01s-2.98-3.35-2.98-3.35h.02c1.21-.04,2.43-.1,3.62-.19h.02s.01,0,.01,0l3.37,3.32h-.02c-1.32.1-2.66.17-4.01.21h-.02s0,0,0,0ZM172.22,149.38h-.01c-1.11-.73-2.21-1.46-3.26-2.2h-.01s4.77-1.11,4.77-1.11h.06s-.02.02-.02.02c.94.66,1.92,1.32,2.92,1.96h.01s-.02.01-.02.01l-4.44,1.31ZM256.8,169.61l-3.79-3.29h.02c1.12-.14,2.22-.3,3.3-.49h.02s.01,0,.01,0l4.13,3.22h-.02c-1.18.21-2.41.39-3.65.54h-.02s0,0,0,0ZM165.66,144.72h-.01c-.95-.76-1.87-1.52-2.75-2.29h-.02s0-.02,0-.02h.01s5.34-.64,5.34-.64h.01c.78.7,1.62,1.39,2.49,2.08h.01s-.02.01-.02.01l-5.08.86ZM264.23,168.31h-.01s-4.49-3.16-4.49-3.16h.02c.99-.24,1.97-.5,2.9-.78h.02s.01,0,.01,0l4.81,3.07h-.02c-1.03.31-2.11.6-3.22.86h-.02s0,0,0,0ZM160.16,139.88h-.01c-.78-.79-1.52-1.57-2.21-2.35h-.01s.02-.01.02-.01l5.81-.16.09.02h-.06c.62.7,1.29,1.4,1.99,2.1h.01s-.02.01-.02.01l-5.61.39h0ZM270.73,166.34h-.02s-5.11-2.98-5.11-2.98h.01c.85-.33,1.67-.68,2.44-1.04h.01s.02,0,.02,0l5.38,2.85h-.01c-.87.41-1.78.81-2.72,1.16h-.01s0,.01,0,.01ZM155.83,134.96h0c-.59-.79-1.13-1.58-1.61-2.36h0s.02,0,.02,0l6.18.31h0c.44.71.93,1.42,1.46,2.13h0s-6.04-.07-6.04-.07ZM276.13,163.75h-.01s-5.65-2.71-5.65-2.71h.01c.68-.42,1.34-.85,1.94-1.3h.01s5.88,2.57,5.88,2.57h-.01c-.68.51-1.4.99-2.16,1.44h-.01ZM152.78,130.05h0c-.38-.78-.71-1.55-.99-2.32h0s.02,0,.02,0l6.42.79h0c.25.7.54,1.4.89,2.09h0s-.02,0-.02,0l-6.32-.56h0ZM280.34,160.58h-.02s-6.06-2.4-6.06-2.4h.01c.51-.5.99-1.01,1.4-1.53h0s6.23,2.23,6.23,2.23h0c-.47.59-.99,1.16-1.56,1.7h0s0,0,0,0ZM151.08,125.26h0c-.16-.74-.27-1.49-.33-2.22h0s.02,0,.02,0l6.52,1.25h0c.05.66.15,1.33.3,2h0s-.02,0-.02,0l-6.49-1.03h0ZM283.24,156.9l-6.34-2.04h0c.32-.56.6-1.14.83-1.73h0s.03,0,.03,0l6.43,1.85h0c-.26.65-.56,1.29-.92,1.91l.07.03-.1-.03ZM150.76,120.7h0c.06-.71.16-1.4.33-2.08h0s.02,0,.02,0l6.51,1.68h-.02c-.14.62-.24,1.25-.3,1.87h0s-6.54-1.47-6.54-1.47ZM284.71,153.44l-6.5-1.72c.16-.61.27-1.23.34-1.86h0s.02,0,.02,0l6.52,1.51h0c-.07.7-.2,1.39-.38,2.06h0s0,.01,0,.01ZM158.24,118.34h-.02s-6.42-1.89-6.42-1.89h0c.27-.65.59-1.29.97-1.9h0s.03,0,.03,0l6.33,2.07h0c-.34.56-.63,1.14-.88,1.72h0s0,.01,0,.01ZM278.6,147.75h0c-.04-.66-.12-1.33-.25-1.99h0s.02,0,.02,0l6.5,1.06h0c.15.74.24,1.48.28,2.21h0s-.01,0-.01,0l-6.53-1.28h0ZM160.39,114.85h-.02s-6.19-2.26-6.19-2.26h0c.48-.58,1.02-1.14,1.6-1.68h.01s6.05,2.43,6.05,2.43h0c-.53.49-1.01,1-1.45,1.52h0s0,0,0,0ZM277.77,143.54h-.02c-.23-.69-.52-1.39-.84-2.08h0s.02,0,.02,0l6.34.6h0c.36.78.67,1.55.93,2.3l.14.04-6.56-.84h0ZM163.73,111.8h-.01s-5.83-2.6-5.83-2.6h.01c.68-.49,1.41-.97,2.2-1.42h.01s5.63,2.73,5.63,2.73h-.01c-.7.4-1.36.84-1.99,1.28h-.01s0,0,0,0ZM275.67,139.16h0c-.42-.71-.9-1.42-1.42-2.13h0s.02-.01.02-.01l6.06.12h0c.57.79,1.1,1.58,1.57,2.36h0s-.02.01-.02.01l-6.2-.35h0ZM168.18,109.24h-.01s-5.35-2.87-5.35-2.87h.01c.87-.41,1.8-.79,2.76-1.14h.02s.01,0,.01,0l5.07,2.98c-.87.32-1.7.67-2.49,1.03h-.01s0,0,0,0ZM272.41,134.71h-.02c-.61-.71-1.26-1.42-1.96-2.12h-.01s.02-.01.02-.01l5.64-.36h.01c.76.78,1.49,1.57,2.17,2.35l.06.02h-.06s-5.84.13-5.84.13ZM173.65,107.24h-.01s-4.76-3.09-4.76-3.09h.02c1.04-.3,2.14-.58,3.25-.84h.02s0,0,0,0l4.47,3.18h-.05c-1,.21-1.99.47-2.93.74h-.02s0,0,0,0ZM268.01,130.29h-.01c-.78-.7-1.6-1.4-2.46-2.08h-.01s5.14-.84,5.14-.84h.01c.94.76,1.86,1.53,2.72,2.3h.01s-.02.01-.02.01l-5.38.6h0ZM180.04,105.81h-.01s-4.07-3.24-4.07-3.24h.02c1.19-.2,2.43-.37,3.67-.52h.02s.01,0,.01,0l3.72,3.28h-.02c-1.13.13-2.25.29-3.33.47h-.02s0,0,0,0ZM262.6,125.98h-.01c-.94-.68-1.92-1.35-2.91-2h-.01s.02-.01.02-.01l4.5-1.27h.01c1.1.73,2.19,1.47,3.21,2.21h.01s-.02.01-.02.01l-4.8,1.06ZM187.19,105l-3.32-3.33h.02c1.32-.09,2.68-.15,4.03-.18h.02s2.93,3.35,2.93,3.35h-.02c-1.23.03-2.46.09-3.64.17h-.02s0,0,0,0ZM256.28,121.87h-.01c-1.07-.64-2.18-1.27-3.29-1.86h-.02s.02-.02.02-.02l3.77-1.7h.01c1.24.68,2.47,1.37,3.64,2.06h.02s0,.01,0,.01l-4.14,1.51h-.01ZM194.98,104.81l-2.48-3.35h.02c1.41.02,2.86.07,4.31.15h.02s0,0,0,0l2.05,3.32h-.02c-1.29-.07-2.59-.11-3.88-.13h-.02s0,0,0,0ZM249.19,118.05l-.07-.02h.02c-1.17-.57-2.37-1.14-3.58-1.68h-.02s2.98-2.11,2.98-2.11h.02c1.36.62,2.7,1.25,4,1.88h.03s-.02.02-.02.02l-3.35,1.91h0ZM203.24,105.27l-1.58-3.3h.02c1.46.14,2.97.3,4.48.49l.02-.06,1.16,3.32h-.02c-1.35-.17-2.72-.32-4.05-.44h-.02ZM241.44,114.61h-.02c-1.26-.52-2.56-1.02-3.87-1.5h-.02s0-.02,0-.02l2.11-2.45h.02c1.45.54,2.89,1.1,4.29,1.66h.02s-2.53,2.3-2.53,2.3h0ZM211.81,106.36l-.65-3.18h.02c1.51.25,3.05.52,4.57.82h.02s0,.01,0,.01l.21,3.09h-.02c-1.36-.27-2.75-.52-4.13-.74h-.02s0,0,0,0ZM233.13,111.59l.02-.02c-1.32-.43-2.67-.85-4.01-1.25h-.02s0-.01,0-.01l1.2-2.75h.02c1.5.45,3.01.92,4.48,1.4h.02s-1.65,2.63-1.65,2.63h-.08s0,0,0,0ZM220.49,108.05h0s.28-3,.28-3h.02c1.51.35,3.05.73,4.57,1.12h.01s-.72,2.9-.72,2.9h-.02c-1.36-.36-2.75-.7-4.13-1.02h-.02s0,0,0,0Z" style="fill: #fff;"/>
          </g>
          <path d="M208.08,173.34c-46.62-12.26-80.13-39.05-74.69-59.71,5.43-20.66,47.79-27.49,94.4-15.23,46.62,12.26,80.13,39.05,74.69,59.71-5.43,20.66-47.79,27.49-94.4,15.23ZM227.54,99.35c-45.43-11.95-86.69-5.29-91.98,14.84s27.35,46.23,72.78,58.18c45.43,11.95,86.69,5.29,91.98-14.84,5.29-20.13-27.35-46.23-72.78-58.18Z" style="fill: #fff;"/>
          <path d="M207.3,176.37h-.03c-9.51-2.51-18.72-5.63-27.38-9.27-8.38-3.52-16.12-7.49-23.01-11.79h-.01s.01-.02.01-.02l10.58-3.35h0c11.68,7.29,26.09,13.3,41.66,17.4,16.6,4.37,32.97,6.17,47.35,5.21h.02s8.09,8.1,8.09,8.1h-.02c-8.44.57-17.56.33-27.12-.69-9.88-1.06-20.02-2.94-30.13-5.6h-.01ZM126.04,118.89h0c-.26-2.43-.08-4.81.51-7.06,1.01-3.82,3.21-7.29,6.53-10.31,3.23-2.92,7.49-5.41,12.68-7.39,10.29-3.93,23.9-5.76,39.35-5.3h.02s0,.01,0,.01l5.69,8.14h-.02c-26.59-.78-45.14,6.5-48.43,19.01-.49,1.87-.64,3.83-.43,5.83h0s-.02,0-.02,0l-15.9-2.95h0ZM307.2,164.91h-.02s-15.44-5.02-15.44-5.02h0c.79-1.32,1.37-2.71,1.75-4.15,1.9-7.21-1.4-15.43-9.51-23.75-7.85-8.05-20.04-15.8-34.33-21.84h-.02s0-.02,0-.02l6.63-5.38h.02c8.73,3.7,16.75,7.86,23.84,12.39,7,4.47,12.95,9.19,17.68,14.03,4.78,4.9,8.21,9.82,10.18,14.62,2.04,4.96,2.49,9.71,1.33,14.11-.46,1.74-1.17,3.42-2.12,5h0s0,.01,0,.01Z" style="fill: #fff; isolation: isolate; opacity: .5;"/>
          <g style="mix-blend-mode: overlay;">
            <path d="M185.55,178.37c-5.18-1.82-10.29-3.82-15.18-5.93l.94-.72c4.79,2.07,9.8,4.03,14.88,5.81l-.64.84ZM242.18,191.2l-.48-1.1c3.22.33,6.44.59,9.58.77l.68,1.11c-3.2-.18-6.49-.44-9.78-.78ZM128.54,147.37c-16.15-13.83-23.28-28.14-20.09-40.3.8-3.03,2.23-5.89,4.25-8.51l2.09.74c-1.99,2.57-3.39,5.38-4.17,8.35-3.13,11.92,3.86,25.94,19.69,39.5l-1.77.23h0ZM315.25,180.38l-1.93-.88c6.34-4.24,10.35-9.42,11.93-15.41,3.97-15.11-8.03-33.1-32.94-49.36l1.51-.43c12.14,7.93,21.64,16.63,27.47,25.16,6.11,8.95,8.18,17.42,6.13,25.19-1.61,6.11-5.7,11.4-12.17,15.72ZM166.11,80.74l-1.05-1.11c2.96-.14,6.02-.2,9.1-.19l.87,1.12c-3.02-.02-6.03.04-8.92.18ZM245.66,92.82c-4.96-1.65-10.07-3.16-15.21-4.52l-.49-.13.24-.96.5.13c5.24,1.38,10.46,2.93,15.52,4.61l-.56.87Z" style="fill: #fff;"/>
          </g>
          <path d="M204.04,188.69c-31.84-8.38-60.33-21.74-80.22-37.64-19.89-15.9-28.8-32.43-25.09-46.54,3.71-14.11,19.6-24.12,44.74-28.17,25.14-4.06,56.52-1.68,88.36,6.7s60.33,21.74,80.22,37.65c19.89,15.9,28.8,32.43,25.09,46.54-3.71,14.11-19.6,24.12-44.74,28.17-25.14,4.06-56.52,1.68-88.36-6.7ZM231.64,83.78c-64.81-17.05-123.68-7.55-131.23,21.18-7.55,28.72,39.03,65.96,103.83,83,64.81,17.05,123.68,7.55,131.23-21.18,7.55-28.72-39.03-65.96-103.83-83Z" style="fill: #fff; isolation: isolate; opacity: .3;"/>
          <path d="M189.06,188.62h-.02c-8.8-2.78-17.4-5.95-25.55-9.42-7.97-3.4-15.6-7.12-22.66-11.06-6.97-3.88-13.43-8.01-19.23-12.26-5.78-4.24-10.91-8.63-15.27-13.04h-.01s.02-.01.02-.01l9.42-.6h.01c16.41,16.65,44.01,31.92,75.7,41.92h.02s0,.01,0,.01l-2.43,4.46h0ZM245.51,200.54h0s-2.33-5.47-2.33-5.47h.02c31.82,3.38,59.62-.21,76.29-9.84h.01s9.38,4.56,9.38,4.56h-.01c-4.5,2.6-9.8,4.83-15.76,6.63-5.91,1.78-12.51,3.15-19.6,4.07-7.11.92-14.77,1.4-22.75,1.41-8.09.01-16.58-.44-25.23-1.36h-.02s0,0,0,0ZM89.37,114.11h0c-.71-4.14-.56-8.15.44-11.94,1.58-6.02,5.25-11.39,10.92-15.96,5.48-4.43,12.74-8.04,21.57-10.75h.02s.01,0,.01,0l8.07,5.1h-.02c-16.58,5.1-26.86,13.55-29.73,24.46-.91,3.47-1.05,7.15-.41,10.93h0s-10.87-1.84-10.87-1.84h0ZM346.06,169.57l-10.84-2.86c3.83-14.55-5.85-31.52-27.23-47.78h-.01s.02-.01.02-.01l8.31-1.56h.01c5.57,4.24,10.51,8.62,14.66,13.01,4.19,4.43,7.62,8.91,10.19,13.31,2.62,4.49,4.37,8.93,5.2,13.2.86,4.39.76,8.66-.3,12.68h0s0,0,0,0ZM172.63,75.43h0s-4.19-5.59-4.19-5.59h.02c9.96.14,20.41.97,31.09,2.48,10.99,1.56,22.2,3.83,33.32,6.75h0c13.33,3.51,26.24,7.87,38.34,12.96l.04-.02v.03s-.89.73-.89.73l-3.62,2.98h-.02c-11.09-4.67-22.91-8.66-35.12-11.88-20.05-5.27-40.44-8.2-58.96-8.46h-.02s0,0,0,0Z" style="fill: #fff; isolation: isolate; opacity: .5;"/>
          <path d="M201.74,197.45c-37.12-9.76-70.33-25.35-93.52-43.88-23.19-18.53-33.58-37.8-29.25-54.25,4.33-16.45,22.85-28.12,52.16-32.84,29.3-4.73,65.89-1.96,103.01,7.81,37.12,9.76,70.33,25.35,93.52,43.88,23.19,18.53,33.58,37.8,29.25,54.25-4.33,16.45-22.85,28.12-52.16,32.84-29.3,4.73-65.89,1.96-103.01-7.81ZM234.03,74.66c-76.15-20.03-145.32-8.87-154.2,24.88-8.88,33.75,45.86,77.5,122,97.52,76.15,20.03,145.32,8.87,154.2-24.88,8.88-33.75-45.85-77.5-122-97.53Z" style="fill: #fff;"/>
          <path d="M170.87,188.52h-.02c-8.19-3.06-16.16-6.43-23.68-10.03-7.4-3.54-14.45-7.34-20.98-11.29-6.46-3.92-12.46-8.03-17.85-12.23-5.37-4.19-10.18-8.5-14.3-12.83h-.02s0-.02,0-.02h.01s3.8-.2,3.8-.2h.01c16.37,17.21,42.81,33.17,74.45,44.97h.02s0,.02,0,.02l-1.44,1.61h0ZM244.69,206.49h-.02s-.82-2.17-.82-2.17h.04s0,0,0,0c32.95,3.91,62.4,1.55,82.94-6.65h.02s.01,0,.01,0l3.44,1.95h-.02c-5.19,2.08-11.04,3.81-17.37,5.17-6.31,1.35-13.18,2.33-20.41,2.92-7.27.59-14.98.79-22.92.59-8.05-.2-16.43-.81-24.91-1.82h0ZM76.31,104.85h0c.1-2.03.41-4.04.92-5.99,1.77-6.75,5.94-12.75,12.38-17.84,6.23-4.92,14.48-8.91,24.52-11.87h.03s.01,0,.01,0l3.21,2.07h-.06c-19.98,5.87-32.34,15.82-35.75,28.77-.49,1.88-.8,3.83-.9,5.79h0s-.02,0-.02,0l-4.34-.96h0ZM358.46,173.52l-4.33-1.16h0c.06-.24.12-.44.17-.63,3.89-14.81-4.56-32.26-23.82-49.15h-.01s3.58-.43,3.58-.43h.01c4.79,4.22,9,8.52,12.51,12.79,3.54,4.32,6.42,8.67,8.53,12.92,4.38,8.83,5.58,17.24,3.53,25.01-.06.23-.12.44-.18.64h0s0,0,0,0ZM178.18,66.13h0s-1.26-2.22-1.26-2.22h.02c9.1.61,18.52,1.72,28,3.29,9.72,1.61,19.61,3.74,29.4,6.31h0s.02,0,.02,0c14.95,3.93,29.4,8.84,42.94,14.58h.02s-1.83,1.48-1.83,1.48h-.02c-13.12-5.57-27.13-10.33-41.62-14.14-18.88-4.97-37.6-8.1-55.64-9.3h-.02s0,0,0,0Z" style="fill: #fff; isolation: isolate; opacity: .7;"/>
          <path d="M229.04,93.65l-7.4-5.91-1.05,3.98,7.4,5.92,9.35-1.51,1.05-3.98-9.35,1.51Z" style="fill: #fff;"/>
          <path d="M129.89,135.28l-4.4,4.26,8.28.06,4.4-4.26-11.09-4.37-8.28-.06,11.08,4.37Z" style="fill: #fff;"/>
          <path d="M294.87,178.67l11.8,1.65-7.25-4.03-11.8-1.65,1.73,5.88,7.25,4.03-1.74-5.88Z" style="fill: #fff;"/>
          <path d="M219.31,145.41l-.08-1c9.52,1.81,17.24.08,18.34-4.12v-.04s2.09.55,2.09.55v.03c-1.24,4.67-9.79,6.59-20.35,4.58ZM205.75,140.62c-6.11-3.4-9.36-7.59-8.48-10.93.3-1.16,1.08-2.17,2.29-3l1.86.84c-1.09.75-1.79,1.66-2.06,2.7-.79,3.02,2.13,6.79,7.64,9.86l-1.25.53h0ZM234.7,133.83c-3.12-2.95-8.23-5.51-14.01-7.03-3.38-.89-6.8-1.37-9.89-1.38l-.84-1.07c3.44.02,7.24.55,10.98,1.53,6.41,1.69,12.07,4.53,15.54,7.8l-1.77.16Z" style="fill: #fff;"/>
          <path d="M217.35,139.5c5.28,1.39,10.06.62,10.67-1.72s-3.17-5.36-8.44-6.75c-5.28-1.39-10.06-.62-10.67,1.72s3.17,5.36,8.44,6.75Z" style="fill: #e1e1e1;"/>
          <path d="M212.82,158.93l.27-1.12c.16.04.33.09.49.13l-.24,1.13c-.17-.05-.34-.09-.52-.13h0ZM211.28,158.52c-.17-.05-.35-.09-.52-.14l.37-1.1c.16.04.33.09.49.13l-.34,1.1ZM214.88,159.44l.18-1.14c.16.04.33.08.49.12l-.15,1.15c-.17-.04-.35-.08-.52-.13ZM209.23,157.94c-.17-.05-.34-.1-.51-.15l.46-1.07c.16.05.32.09.48.14l-.43,1.08ZM216.95,159.92l.08-1.17c.16.04.33.07.49.11l-.05,1.17c-.17-.04-.34-.08-.52-.12ZM207.2,157.33c-.17-.05-.34-.11-.51-.16l.56-1.04c.16.05.32.1.48.15l-.53,1.05h0ZM219.02,160.36l-.02-1.19c.16.03.33.07.49.1l.05,1.19c-.17-.03-.35-.07-.52-.11h0ZM205.18,156.69l-.5-.16.65-1.01.48.16-.63,1.01h0ZM221.1,160.76l-.12-1.21.49.09.15,1.21-.52-.1ZM203.18,156.01l-.5-.17.75-.98.47.16-.72.98h0ZM223.16,161.13l-.22-1.23.49.08.25,1.23-.52-.09ZM201.2,155.31l-.49-.18.84-.94.47.17-.82.95ZM225.22,161.46l-.32-1.24.49.07.34,1.24-.51-.08h0ZM199.26,154.57l-.48-.19.93-.91.46.18-.91.91h0ZM227.27,161.74l-.41-1.26c.16.02.32.04.48.06l.44,1.26c-.17-.02-.34-.04-.51-.07ZM197.34,153.81l-.48-.2,1.02-.87.45.19-1.01.88h0ZM229.31,161.99l-.51-1.27.48.05.53,1.27-.51-.05h0ZM195.44,153.01l-.47-.2,1.12-.83.44.19-1.09.84ZM231.33,162.2l-.62-1.28.48.04.63,1.28-.5-.05h0ZM193.59,152.19c-.15-.07-.31-.14-.46-.21l1.21-.79c.14.07.29.13.43.2l-1.18.8ZM233.33,162.36l-.71-1.28c.16.01.31.02.47.03l.73,1.29c-.16-.01-.33-.02-.5-.03ZM191.76,151.34l-.44-.21,1.28-.75.43.21-1.27.76ZM235.29,162.49l-.8-1.29c.15,0,.31.02.47.03l.82,1.29c-.16,0-.32-.02-.49-.02h0ZM189.99,150.47l-.44-.22,1.37-.71.42.21-1.35.72ZM237.24,162.57l-.9-1.29h.46s.92,1.31.92,1.31h-.48ZM188.26,149.57c-.14-.08-.28-.15-.42-.23l1.45-.67.41.22-1.43.68ZM239.16,162.61l-.98-1.3c.15,0,.3,0,.45,0l1,1.3c-.16,0-.32,0-.48,0h0ZM186.57,148.66c-.14-.08-.28-.15-.42-.23l1.54-.62.39.22-1.51.63ZM241.05,162.61l-1.07-1.3h.45s1.09,1.29,1.09,1.29h-.47ZM184.93,147.72c-.13-.08-.27-.16-.4-.24l1.61-.58.38.23-1.59.59h0ZM242.91,162.57l-1.16-1.29.44-.02,1.18,1.29-.46.02h0ZM183.34,146.77c-.13-.08-.26-.16-.39-.24l1.68-.53c.12.08.24.15.37.23l-1.66.54h0ZM244.73,162.5l-1.25-1.29.43-.02,1.26,1.29-.45.02ZM181.81,145.79c-.12-.08-.25-.16-.38-.25l1.76-.49c.12.08.24.16.36.23l-1.74.5ZM246.51,162.37l-1.32-1.29c.14-.01.27-.02.41-.04l1.35,1.28c-.15.01-.3.02-.44.04ZM180.33,144.81c-.12-.08-.24-.17-.36-.25l1.83-.44c.11.08.23.16.34.24l-1.81.45h0ZM248.25,162.21l-1.41-1.28c.14-.01.27-.03.4-.04l1.43,1.28c-.14.02-.29.03-.43.05ZM178.9,143.8c-.12-.09-.23-.17-.35-.25l1.89-.39c.11.08.22.16.33.24l-1.88.41ZM249.95,162.01l-1.49-1.27c.13-.02.26-.04.4-.05l1.51,1.27c-.14.02-.28.04-.42.06ZM177.54,142.79c-.11-.09-.22-.17-.33-.26l1.96-.34c.1.08.21.16.31.24l-1.94.36ZM251.6,161.77l-1.57-1.26.39-.06,1.58,1.25-.4.07h0ZM176.24,141.77c-.11-.09-.21-.17-.32-.26l2.02-.29c.1.08.2.16.3.25l-2,.31ZM253.2,161.49l-1.65-1.24.38-.07,1.66,1.24-.39.08h0ZM175.01,140.73c-.1-.09-.2-.17-.3-.26l2.07-.25.28.25-2.06.26ZM254.75,161.17l-1.72-1.23.36-.08,1.74,1.23-.38.09h0ZM173.83,139.69l-.28-.26,2.12-.2.27.25-2.11.21h0ZM256.24,160.81l-1.79-1.21.35-.09,1.8,1.21-.36.09ZM172.73,138.64l-.26-.26,2.18-.15.25.25-2.17.16h0ZM257.68,160.41l-1.86-1.19.34-.1,1.87,1.19-.35.11h0ZM171.69,137.59l-.25-.26,2.23-.1.23.25-2.22.11h0ZM259.06,159.97l-1.92-1.17.32-.11,1.94,1.16-.34.11h0ZM170.72,136.53l-.23-.26,2.27-.05.22.25-2.26.06h0ZM260.38,159.5l-1.99-1.15.31-.12,2,1.14-.32.12h0ZM169.83,135.47l-.21-.26h2.31s.2.25.2.25h-2.3s0,0,0,0ZM261.64,158.99l-2.04-1.12.29-.13,2.06,1.12-.3.13ZM169.01,134.41c-.06-.09-.13-.18-.19-.27l2.35.05c.06.08.12.17.19.25l-2.34-.04h0ZM262.83,158.45l-2.1-1.1c.09-.04.19-.09.27-.14l2.12,1.09c-.09.05-.19.09-.29.14h0ZM168.26,133.36c-.06-.09-.12-.18-.18-.27l2.39.1c.05.08.11.17.17.25l-2.38-.09h0ZM263.96,157.86l-2.15-1.07.26-.14,2.17,1.07-.27.15h0ZM167.59,132.3l-.16-.26,2.42.15.15.25-2.41-.14ZM265.01,157.25l-2.21-1.04c.08-.05.16-.1.24-.15l2.22,1.03c-.08.05-.17.11-.25.16ZM166.99,131.26l-.14-.26,2.44.2.13.25-2.44-.19ZM266,156.6l-2.25-1.01c.07-.05.15-.11.22-.16l2.26,1c-.08.06-.16.11-.24.17h0ZM166.47,130.21c-.04-.09-.08-.17-.12-.26l2.47.25c.04.08.08.17.11.25l-2.46-.24h0ZM266.91,155.92l-2.3-.98.2-.17,2.3.97-.22.18h0ZM166.03,129.17l-.1-.26,2.49.3.09.25-2.48-.29h0ZM267.75,155.2l-2.34-.94.19-.17,2.35.94-.2.18ZM165.67,128.14c-.03-.09-.05-.17-.08-.26l2.5.35c.02.08.05.16.08.24l-2.5-.34ZM268.51,154.46l-2.38-.91.17-.18,2.38.9-.18.19ZM165.39,127.12c-.02-.08-.04-.17-.06-.25l2.52.4.06.24-2.52-.39h0ZM269.2,153.69l-2.41-.87.15-.19,2.41.86c-.06.06-.1.13-.16.2ZM165.19,126.12l-.04-.25,2.53.45.03.24-2.53-.44ZM269.81,152.89l-2.43-.84.13-.19,2.44.83-.14.2ZM165.07,125.12c0-.08-.01-.16-.02-.25l2.53.49c0,.08.01.16.01.23l-2.53-.48ZM270.34,152.07l-2.46-.79.12-.2,2.47.79c-.04.07-.08.14-.12.21h0ZM165.03,124.15c0-.08,0-.16,0-.24l2.53.54c0,.08,0,.15,0,.23l-2.53-.53ZM270.8,151.22l-2.48-.76.1-.21,2.49.74c-.03.07-.07.15-.1.22h0ZM165.07,123.19c0-.08.01-.16.02-.24l2.53.58-.02.23-2.53-.57ZM271.18,150.35l-2.5-.71c.03-.07.05-.14.08-.21l2.5.7c-.03.07-.06.15-.08.22h0ZM165.19,122.24l.04-.23,2.52.63-.04.22-2.53-.62h0ZM271.47,149.45l-2.51-.67.07-.25,2.52.66v.04c-.03.08-.05.15-.07.23ZM165.39,121.33l.06-.23,2.51.67-.05.2-2.52-.64ZM269.18,147.87c.02-.07.03-.15.04-.22l2.53.62c-.01.08-.02.16-.04.23l-2.52-.63h0ZM168.17,121.13l-2.5-.7c.03-.07.06-.15.08-.22l2.5.71c-.03.07-.05.14-.08.21h0ZM269.31,146.97c0-.07.01-.15.02-.23l2.53.57c0,.08-.01.16-.02.24l-2.53-.58h0ZM168.51,120.29l-2.49-.75.1-.22,2.48.75-.1.21h0ZM269.37,146.06v-.23s2.54.53,2.54.53v.24s-2.54-.54-2.54-.54ZM168.92,119.47l-2.47-.78.12-.21,2.46.79-.12.2h0ZM269.35,145.14l-.02-.23,2.53.48.02.25-2.53-.49h0ZM169.41,118.68l-2.44-.82c.05-.07.1-.13.14-.2l2.43.83c-.04.07-.09.13-.13.19ZM269.25,144.19l-.03-.24,2.53.43.04.25-2.52-.44h0ZM169.97,117.91l-2.41-.86c.05-.07.1-.13.16-.2l2.41.87c-.05.06-.1.12-.15.19ZM269.08,143.24l-.06-.24,2.51.38.06.25-2.51-.4ZM170.61,117.17l-2.38-.9c.06-.06.12-.13.18-.19l2.37.91c-.06.06-.11.12-.17.18h0ZM268.83,142.27l-.08-.24,2.5.34.08.25-2.51-.35ZM171.31,116.46l-2.35-.94.2-.18,2.34.94-.18.18h0ZM268.5,141.29l-.09-.25,2.49.29.1.26-2.49-.3h0ZM172.09,115.77l-2.31-.97c.07-.06.14-.12.22-.18l2.3.98c-.07.06-.14.11-.21.17h0ZM268.1,140.31l-.11-.25,2.47.24.12.26-2.47-.25h0ZM172.94,115.11l-2.26-1,.23-.17,2.25,1.01-.23.16h0ZM267.62,139.31c-.04-.08-.09-.17-.13-.25l2.44.19c.05.09.09.17.14.26l-2.44-.2h0ZM173.86,114.49l-2.22-1.03.25-.16,2.21,1.04-.24.15h0ZM267.07,138.31c-.05-.08-.1-.17-.15-.25l2.41.14c.05.09.1.18.16.26l-2.42-.15ZM174.85,113.89l-2.17-1.06c.09-.05.18-.1.27-.15l2.15,1.07c-.09.05-.17.1-.26.14h0ZM266.45,137.31c-.05-.08-.11-.17-.16-.25l2.38.09c.06.09.12.18.18.26l-2.39-.1ZM175.9,113.33l-2.12-1.09c.09-.05.19-.09.29-.14l2.11,1.1-.27.14h0ZM265.75,136.31l-.19-.25,2.34.04.19.26-2.35-.05h0ZM177.03,112.8l-2.06-1.12c.1-.05.2-.09.3-.13l2.05,1.12-.29.13h0ZM264.98,135.3l-.2-.25h2.3c.07.08.14.16.21.26h-2.31s0,0,0,0ZM178.21,112.3l-2-1.14c.11-.04.22-.08.32-.12l1.98,1.15c-.1.04-.2.08-.3.12ZM264.15,134.29c-.07-.08-.14-.17-.22-.25l2.26-.06c.08.09.15.18.23.27l-2.27.05h0ZM179.45,111.84l-1.94-1.17.34-.11,1.92,1.17-.32.11h0ZM263.24,133.28c-.08-.08-.15-.17-.24-.25l2.21-.11c.08.09.17.18.25.26l-2.23.1h0ZM180.74,111.42l-1.88-1.19c.12-.04.23-.07.35-.11l1.86,1.19c-.11.03-.22.07-.33.1ZM262.27,132.28c-.09-.08-.17-.17-.25-.25l2.17-.16c.09.09.18.18.27.26l-2.18.15h0ZM182.1,111.03l-1.81-1.2c.12-.03.24-.07.36-.1l1.79,1.21c-.11.03-.23.06-.35.09h0ZM261.23,131.28l-.27-.25,2.12-.21.28.26-2.12.2ZM183.51,110.68l-1.74-1.23.38-.09,1.72,1.23-.36.08ZM260.13,130.28l-.28-.25,2.06-.26.3.26-2.07.25h0ZM184.97,110.36l-1.66-1.24c.13-.03.26-.05.39-.08l1.65,1.24c-.12.02-.25.05-.37.07ZM258.97,129.3c-.1-.08-.2-.16-.3-.25l2-.31c.11.09.21.17.32.26l-2.02.3h0ZM186.49,110.08l-1.59-1.25c.13-.02.27-.05.41-.07l1.57,1.26c-.13.02-.26.04-.38.06h0ZM257.74,128.32l-.32-.24,1.94-.36.33.25-1.95.35h0ZM188.04,109.84l-1.51-1.26c.14-.02.28-.04.42-.06l1.49,1.27c-.13.02-.26.04-.4.05h0ZM256.45,127.35c-.11-.08-.22-.16-.33-.24l1.88-.41c.12.08.23.17.35.25l-1.89.39h0ZM189.65,109.64l-1.43-1.28.43-.05,1.41,1.28-.41.04h0ZM255.11,126.39c-.11-.08-.23-.16-.34-.24l1.81-.45c.12.08.24.17.36.25l-1.83.44h0ZM191.29,109.48l-1.35-1.28.44-.04,1.33,1.29-.42.04h0ZM253.72,125.45l-.36-.23,1.74-.5.38.24-1.75.49h0ZM192.98,109.35l-1.27-1.29c.15,0,.3-.02.45-.03l1.25,1.29-.43.03ZM252.26,124.52c-.12-.08-.24-.15-.37-.23l1.67-.54c.13.08.26.16.39.24l-1.68.53ZM194.71,109.26l-1.18-1.29c.15,0,.3-.01.46-.02l1.16,1.29c-.15,0-.29,0-.43.02h0ZM250.76,123.6c-.13-.08-.26-.15-.38-.22l1.59-.59c.13.08.27.16.41.24l-1.61.58ZM196.47,109.22l-1.1-1.3h.47s1.07,1.29,1.07,1.29h-.45s0,0,0,0ZM249.21,122.71l-.39-.22,1.51-.63.41.23-1.53.62h0ZM198.26,109.21l-1.01-1.3c.16,0,.32,0,.48,0l.99,1.3h-.45s0,0,0,0ZM247.61,121.83c-.14-.07-.27-.14-.41-.22l1.43-.68c.14.08.29.15.43.23l-1.46.67h0ZM200.08,109.24l-.92-1.29c.16,0,.32,0,.48.01l.89,1.29h-.46s0-.01,0-.01ZM245.97,120.97l-.42-.21,1.35-.72.44.22-1.37.71ZM201.93,109.31l-.83-1.29c.16,0,.32.02.49.02l.8,1.29-.47-.02h0ZM244.29,120.14l-.43-.21,1.27-.76.45.22-1.28.75ZM203.8,109.41l-.73-1.29c.16.01.33.02.5.04l.71,1.28c-.16-.01-.31-.02-.47-.03ZM242.56,119.32l-.44-.2,1.18-.8c.15.07.31.14.46.21l-1.2.79h0ZM205.69,109.56l-.64-1.28.5.05.62,1.28-.48-.04h0ZM240.8,118.53l-.45-.19,1.09-.84.47.2-1.11.83ZM207.61,109.74l-.54-1.27.51.05.52,1.27-.49-.05h0ZM239,117.77l-.45-.19,1-.88.47.2-1.02.87h0ZM209.55,109.97l-.44-1.26.51.06.42,1.25-.49-.06h0ZM237.19,117.03l-.46-.18.91-.92.48.19-.93.91ZM211.49,110.23l-.34-1.24.51.08.32,1.24-.49-.07ZM235.33,116.33l-.47-.17.81-.95.49.18-.84.94h0ZM213.46,110.53l-.25-1.23.52.09.23,1.23-.5-.08ZM233.46,115.65l-.47-.16.72-.99.5.17-.74.98h0ZM215.43,110.87l-.15-1.21.52.1.12,1.21-.49-.09ZM231.56,115l-.48-.16.63-1.02.5.17-.65,1.01ZM217.4,111.25l-.05-1.19.51.1.03,1.19-.5-.1h0ZM229.64,114.38c-.16-.05-.32-.1-.48-.15l.53-1.05c.17.05.34.11.51.16l-.55,1.04h0ZM219.37,111.66l.05-1.17c.17.04.35.08.52.12l-.08,1.17c-.16-.04-.33-.07-.49-.11ZM227.71,113.79c-.16-.05-.32-.09-.48-.14l.43-1.08c.17.05.34.1.51.15l-.46,1.07ZM221.34,112.11l.15-1.15c.17.04.35.08.52.12l-.17,1.14c-.16-.04-.33-.08-.49-.12h0ZM225.76,113.24c-.16-.04-.33-.09-.49-.13l.34-1.1c.17.05.34.09.51.14l-.36,1.1ZM223.31,112.59l.24-1.13c.17.05.34.09.52.13l-.27,1.12c-.16-.04-.33-.09-.49-.13h0Z" style="fill: #fff;"/>
          <path d="M105.54,53.36c1.11.29,2.12.13,2.25-.36s-.67-1.13-1.78-1.42-2.12-.13-2.25.36.67,1.13,1.78,1.42Z" style="fill: #e1e1e1;"/>
          <path d="M285.13,96.54c1.11.29,2.12.13,2.25-.36s-.67-1.13-1.78-1.42-2.12-.13-2.25.36.67,1.13,1.78,1.42Z" style="fill: #e1e1e1;"/>
          <path d="M185.72,81.84c1.11.29,2.12.13,2.25-.36s-.67-1.13-1.78-1.42-2.12-.13-2.25.36.67,1.13,1.78,1.42Z" style="fill: #e1e1e1;"/>
          <path d="M268.84,99.17c1.11.29,2.12.13,2.25-.36s-.67-1.13-1.78-1.42-2.12-.13-2.25.36.67,1.13,1.78,1.42Z" style="fill: #e1e1e1;"/>
          <path d="M184.62,51.28c1.11.29,2.12.13,2.25-.36s-.67-1.13-1.78-1.42-2.12-.13-2.25.36.67,1.13,1.78,1.42Z" style="fill: #e1e1e1;"/>
          <path d="M162.42,41.62c1.11.29,2.12.13,2.25-.36s-.67-1.13-1.78-1.42-2.12-.13-2.25.36.67,1.13,1.78,1.42Z" style="fill: #e1e1e1;"/>
          <path d="M121.43,95.2c1.11.29,2.12.13,2.25-.36s-.67-1.13-1.78-1.42-2.12-.13-2.25.36.67,1.13,1.78,1.42Z" style="fill: #e1e1e1;"/>
          <path d="M84.85,107.51c1.11.29,2.12.13,2.25-.36s-.67-1.13-1.78-1.42-2.12-.13-2.25.36.67,1.13,1.78,1.42Z" style="fill: #e1e1e1;"/>
          <path d="M226.93,101.02c1.11.29,2.12.13,2.25-.36s-.67-1.13-1.78-1.42-2.12-.13-2.25.36.67,1.13,1.78,1.42Z" style="fill: #e1e1e1;"/>
          <path d="M317.02,130.68c1.11.29,2.12.13,2.25-.36s-.67-1.13-1.78-1.42-2.12-.13-2.25.36.67,1.13,1.78,1.42Z" style="fill: #e1e1e1;"/>
          <path d="M347.44,176.58c1.11.29,2.12.13,2.25-.36s-.67-1.13-1.78-1.42-2.12-.13-2.25.36.67,1.13,1.78,1.42Z" style="fill: #e1e1e1;"/>
          <path d="M209.55,169.15c1.11.29,2.12.13,2.25-.36s-.67-1.13-1.78-1.42-2.12-.13-2.25.36.67,1.13,1.78,1.42Z" style="fill: #e1e1e1;"/>
          <path d="M269.69,189.98c1.11.29,2.12.13,2.25-.36s-.67-1.13-1.78-1.42-2.12-.13-2.25.36.67,1.13,1.78,1.42Z" style="fill: #e1e1e1;"/>
          <path d="M436.6,209.8c1.11.29,2.12.13,2.25-.36s-.67-1.13-1.78-1.42-2.12-.13-2.25.36.67,1.13,1.78,1.42Z" style="fill: #e1e1e1;"/>
          <path d="M325.19,220.3c1.11.29,2.12.13,2.25-.36s-.67-1.13-1.78-1.42c-1.11-.29-2.12-.13-2.25.36s.67,1.13,1.78,1.42Z" style="fill: #e1e1e1;"/>
          <path d="M145.38,157.52c1.11.29,2.12.13,2.25-.36s-.67-1.13-1.78-1.42-2.12-.13-2.25.36.67,1.13,1.78,1.42Z" style="fill: #e1e1e1;"/>
          <path d="M192.08,182.43c1.11.29,2.12.13,2.25-.36s-.67-1.13-1.78-1.42-2.12-.13-2.25.36.67,1.13,1.78,1.42Z" style="fill: #e1e1e1;"/>
          <path d="M74.16,178.83c1.11.29,2.12.13,2.25-.36s-.67-1.13-1.78-1.42-2.12-.13-2.25.36.67,1.13,1.78,1.42Z" style="fill: #e1e1e1;"/>
          <path d="M61.55,134.75c1.11.29,2.12.13,2.25-.36s-.67-1.13-1.78-1.42-2.12-.13-2.25.36.67,1.13,1.78,1.42Z" style="fill: #e1e1e1;"/>
          <path d="M199.82,206.16c1.11.29,2.12.13,2.25-.36s-.67-1.13-1.78-1.42-2.12-.13-2.25.36.67,1.13,1.78,1.42Z" style="fill: #e1e1e1;"/>
          <path d="M255.99,221.65c1.11.29,2.12.13,2.25-.36s-.67-1.13-1.78-1.42-2.12-.13-2.25.36.67,1.13,1.78,1.42Z" style="fill: #e1e1e1;"/>
          <path d="M375.63,177.79c1.11.29,2.12.13,2.25-.36s-.67-1.13-1.78-1.42-2.12-.13-2.25.36.67,1.13,1.78,1.42Z" style="fill: #e1e1e1;"/>
          <path d="M425.57,159.7c1.11.29,2.12.13,2.25-.36s-.67-1.13-1.78-1.42-2.12-.13-2.25.36.67,1.13,1.78,1.42Z" style="fill: #e1e1e1;"/>
          <path d="M310.06,136.71c1.11.29,2.12.13,2.25-.36s-.67-1.13-1.78-1.42-2.12-.13-2.25.36.67,1.13,1.78,1.42Z" style="fill: #e1e1e1;"/>
          <path d="M356.18,118.81c1.11.29,2.12.13,2.25-.36s-.67-1.13-1.78-1.42-2.12-.13-2.25.36.67,1.13,1.78,1.42Z" style="fill: #e1e1e1;"/>
          <path d="M399.34,110.13c1.11.29,2.12.13,2.25-.36s-.67-1.13-1.78-1.42-2.12-.13-2.25.36.67,1.13,1.78,1.42Z" style="fill: #e1e1e1;"/>
          <path d="M222.83,141.18c1.11.29,2.12.13,2.25-.36s-.67-1.13-1.78-1.42-2.12-.13-2.25.36.67,1.13,1.78,1.42Z" style="fill: #e1e1e1;"/>
          <path d="M295.27,160.23c1.11.29,2.12.13,2.25-.36s-.67-1.13-1.78-1.42-2.12-.13-2.25.36.67,1.13,1.78,1.42Z" style="fill: #e1e1e1;"/>
          <path d="M162.53,129.13c1.11.29,2.12.13,2.25-.36s-.67-1.13-1.78-1.42-2.12-.13-2.25.36.67,1.13,1.78,1.42Z" style="fill: #e1e1e1;"/>
          <path d="M200.22,122.84c1.11.29,2.12.13,2.25-.36s-.67-1.13-1.78-1.42-2.12-.13-2.25.36.67,1.13,1.78,1.42Z" style="fill: #e1e1e1;"/>
        </g>
      </g>
      <path d="M223.19,133.15l-3.99,3.99-3.99-3.99,3.99-4,3.99,4Z" style="fill: #e6f85a;"/>
      <path d="M219.2,121.86l11.29,11.29-11.29,11.29-11.29-11.29,11.29-11.29Z" style="fill: none; stroke: #e0ff4e;"/>
      <path d="M219.2,121.86V23.86h-86.5" style="fill: none; stroke: #e0ff4e;"/>
      <path d="M133.81,0h3.4v12.76h8.6v1.24h-12V0ZM151.44,14.2c-1.31,0-2.34-.33-3.1-1-.75-.67-1.12-1.59-1.12-2.76v-6.24h2.96v6.42c0,1.69.71,2.54,2.12,2.54.83,0,1.48-.31,1.96-.92.48-.61.72-1.44.72-2.48v-5.56h2.96v9.8h-2.96v-1.62c-.31.56-.78,1.01-1.42,1.34-.63.32-1.33.48-2.12.48ZM160.7,4.2h2.96v1.62c.31-.56.77-1,1.4-1.32.64-.33,1.35-.5,2.14-.5,1.31,0,2.33.33,3.08,1,.76.67,1.14,1.59,1.14,2.76v6.24h-2.96v-6.42c0-1.69-.71-2.54-2.12-2.54-.83,0-1.48.31-1.96.92-.48.61-.72,1.44-.72,2.48v5.56h-2.96V4.2ZM177.92,14.2c-1.43,0-2.5-.26-3.22-.78-.71-.53-1.06-1.28-1.06-2.24,0-1.01.42-1.79,1.26-2.34s2.05-.82,3.64-.82h2.62v-.66c0-.75-.21-1.32-.62-1.72-.41-.4-1.01-.6-1.78-.6s-1.37.19-1.82.58c-.44.39-.71.95-.82,1.7h-2.2c.15-1.08.66-1.9,1.54-2.46.88-.57,2.07-.86,3.58-.86,1.65,0,2.91.31,3.78.92.87.61,1.3,1.5,1.3,2.66v3.16c0,1.21.1,2.3.3,3.26h-2.76c-.13-.51-.23-.95-.28-1.34-.39.55-.89.94-1.5,1.18-.6.24-1.25.36-1.96.36ZM178.54,13.2c.83,0,1.47-.22,1.92-.66.47-.45.7-1.05.7-1.8v-1.68h-1.78c-.89,0-1.58.19-2.06.56-.48.36-.72.87-.72,1.54s.16,1.19.48,1.54c.33.33.82.5,1.46.5Z" style="fill: #f4fabf;"/>
    </g>
  </g>
</svg>