<svg width="87" height="21" viewBox="0 0 87 21" fill="none" xmlns="http://www.w3.org/2000/svg">
<path d="M7.56014 16.16C5.4908 16.16 3.91214 15.664 2.82414 14.672C1.73614 13.68 1.19214 12.24 1.19214 10.352C1.19214 8.49602 1.7308 7.08268 2.80814 6.11201C3.89613 5.13068 5.46947 4.64001 7.52814 4.64001C9.30947 4.64001 10.7015 4.97068 11.7041 5.63201C12.7175 6.28268 13.3041 7.23201 13.4641 8.48001H11.3361C11.1655 7.55201 10.7601 6.84801 10.1201 6.36801C9.48014 5.87734 8.6428 5.63201 7.60814 5.63201C6.41347 5.63201 5.50147 6.03734 4.87214 6.84801C4.25347 7.64801 3.94414 8.81602 3.94414 10.352C3.94414 11.92 4.2588 13.1147 4.88814 13.936C5.51747 14.7573 6.42947 15.168 7.62414 15.168C8.6588 15.168 9.4908 14.928 10.1201 14.448C10.7601 13.9573 11.1655 13.248 11.3361 12.32H13.4641C13.3041 13.568 12.7175 14.5227 11.7041 15.184C10.7015 15.8347 9.32014 16.16 7.56014 16.16ZM19.7109 16.16C18.7082 16.16 17.8389 15.9947 17.1029 15.664C16.3669 15.3333 15.8015 14.864 15.4069 14.256C15.0122 13.6373 14.8149 12.912 14.8149 12.08C14.8149 11.248 15.0122 10.528 15.4069 9.92001C15.8015 9.30134 16.3669 8.82669 17.1029 8.49602C17.8389 8.16535 18.7082 8.00001 19.7109 8.00001C20.7135 8.00001 21.5829 8.16535 22.3189 8.49602C23.0549 8.82669 23.6202 9.30134 24.0149 9.92001C24.4095 10.528 24.6069 11.248 24.6069 12.08C24.6069 12.912 24.4095 13.6373 24.0149 14.256C23.6202 14.864 23.0549 15.3333 22.3189 15.664C21.5829 15.9947 20.7135 16.16 19.7109 16.16ZM19.7109 15.328C20.4895 15.328 21.1029 15.04 21.5509 14.464C21.9989 13.8773 22.2229 13.0827 22.2229 12.08C22.2229 11.0773 21.9989 10.288 21.5509 9.71201C21.1029 9.12534 20.4895 8.83201 19.7109 8.83201C18.9322 8.83201 18.3189 9.12534 17.8709 9.71201C17.4229 10.288 17.1989 11.0773 17.1989 12.08C17.1989 13.0827 17.4229 13.8773 17.8709 14.464C18.3189 15.04 18.9322 15.328 19.7109 15.328ZM26.463 8.16001H28.831V9.36001C29.1403 8.94401 29.535 8.61334 30.015 8.36801C30.5057 8.12268 31.055 8.00001 31.663 8.00001C32.9857 8.00001 34.0097 8.35734 34.735 9.07201C35.471 9.77601 35.839 10.7467 35.839 11.984C35.839 12.8373 35.6683 13.5787 35.327 14.208C34.9857 14.8373 34.5003 15.3227 33.871 15.664C33.2523 15.9947 32.527 16.16 31.695 16.16C30.3617 16.16 29.407 15.664 28.831 14.672V19.04H26.463V8.16001ZM31.119 15.392C31.8443 15.392 32.415 15.0773 32.831 14.448C33.2577 13.8187 33.471 12.9867 33.471 11.952C33.471 10.928 33.2683 10.1493 32.863 9.61601C32.4577 9.07201 31.8923 8.80001 31.167 8.80001C30.4523 8.80001 29.8817 9.09868 29.455 9.69601C29.039 10.2827 28.831 11.0773 28.831 12.08C28.831 13.1253 29.0283 13.9413 29.423 14.528C29.8283 15.104 30.3937 15.392 31.119 15.392ZM39.1534 7.36001C38.716 7.36001 38.3534 7.23201 38.0654 6.97601C37.788 6.72001 37.6494 6.39468 37.6494 6.00001C37.6494 5.60534 37.788 5.28001 38.0654 5.02401C38.3534 4.76801 38.716 4.64001 39.1534 4.64001C39.5907 4.64001 39.948 4.76801 40.2254 5.02401C40.5134 5.28001 40.6574 5.60534 40.6574 6.00001C40.6574 6.39468 40.5134 6.72001 40.2254 6.97601C39.948 7.23201 39.5907 7.36001 39.1534 7.36001ZM37.9694 8.16001H40.3374V16H37.9694V8.16001ZM46.0071 16.16C44.8658 16.16 44.0071 15.952 43.4311 15.536C42.8658 15.1093 42.5831 14.512 42.5831 13.744C42.5831 12.9333 42.9191 12.3093 43.5911 11.872C44.2631 11.4347 45.2338 11.216 46.5031 11.216H48.5991V10.688C48.5991 10.0907 48.4338 9.63202 48.1031 9.31202C47.7725 8.99202 47.2978 8.83201 46.6791 8.83201C46.0711 8.83201 45.5858 8.98668 45.2231 9.29601C44.8711 9.60534 44.6525 10.0587 44.5671 10.656H42.8071C42.9245 9.79201 43.3351 9.13601 44.0391 8.68801C44.7431 8.22934 45.6978 8.00001 46.9031 8.00001C48.2258 8.00001 49.2338 8.24534 49.9271 8.73601C50.6205 9.22668 50.9671 9.93602 50.9671 10.864V13.392C50.9671 14.3627 51.0471 15.232 51.2071 16H48.9991C48.8925 15.5947 48.8178 15.2373 48.7751 14.928C48.4658 15.3653 48.0658 15.68 47.5751 15.872C47.0951 16.064 46.5725 16.16 46.0071 16.16ZM46.5031 15.36C47.1645 15.36 47.6765 15.184 48.0391 14.832C48.4125 14.4693 48.5991 13.9893 48.5991 13.392V12.048H47.1751C46.4605 12.048 45.9111 12.1973 45.5271 12.496C45.1431 12.784 44.9511 13.1947 44.9511 13.728C44.9511 14.272 45.0791 14.6827 45.3351 14.96C45.6018 15.2267 45.9911 15.36 46.5031 15.36ZM53.1799 8.16001H55.5479V9.77601C55.7505 9.21068 56.0652 8.77334 56.4919 8.46401C56.9292 8.15468 57.4732 8.00001 58.1239 8.00001C58.3372 8.00001 58.5185 8.02134 58.6679 8.06401L58.5239 9.45602C58.3532 9.37069 58.1292 9.32801 57.8519 9.32801C57.0625 9.32801 56.4812 9.64801 56.1079 10.288C55.7345 10.928 55.5479 11.68 55.5479 12.544V16H53.1799V8.16001Z" fill="black"/>
<path fill-rule="evenodd" clip-rule="evenodd" d="M80.7692 1H77.0252C75.3286 1 73.9846 1 72.9332 1.14233C71.8514 1.2893 70.9754 1.59814 70.284 2.29395C69.5935 2.9907 69.2871 3.87349 69.1412 4.96372C69 6.02419 69 7.37767 69 9.08744V14.7209C68.9998 15.5521 69.2941 16.356 69.8299 16.9878C70.3657 17.6197 71.1078 18.038 71.9225 18.1674C72.0489 18.8781 72.2935 19.4847 72.7828 19.9786C73.3385 20.5386 74.0382 20.7786 74.8689 20.8921C75.6692 21 76.6874 21 77.9492 21H80.82C82.0818 21 83.1 21 83.9003 20.8921C84.7311 20.7786 85.4308 20.5386 85.9865 19.9786C86.5422 19.4186 86.7803 18.7135 86.8929 17.8763C87 17.0698 87 16.0437 87 14.7721V10.0186C87 8.74698 87 7.72093 86.8929 6.91442C86.7803 6.07721 86.5422 5.37209 85.9865 4.81209C85.4963 4.31907 84.8945 4.07256 84.1892 3.94512C84.0608 3.12412 83.6457 2.37631 83.0187 1.83637C82.3917 1.29643 81.594 0.999833 80.7692 1ZM82.7354 3.81023C82.595 3.39721 82.33 3.03875 81.9775 2.78505C81.6249 2.53134 81.2024 2.39508 80.7692 2.39535H77.0769C75.3166 2.39535 74.0668 2.39721 73.1169 2.52558C72.1892 2.65116 71.6538 2.88744 71.2634 3.28093C70.8729 3.67442 70.6385 4.21395 70.5138 5.14884C70.3865 6.10605 70.3846 7.36558 70.3846 9.13953V14.7209C70.3844 15.1575 70.5196 15.5832 70.7713 15.9385C71.0231 16.2938 71.3788 16.5609 71.7886 16.7023C71.7692 16.1349 71.7692 15.493 71.7692 14.7721V10.0186C71.7692 8.74698 71.7692 7.72093 71.8772 6.91442C71.988 6.07721 72.228 5.37209 72.7828 4.81209C73.3385 4.25209 74.0382 4.01209 74.8689 3.89954C75.6692 3.7907 76.6874 3.7907 77.9492 3.7907H80.82C81.5354 3.7907 82.1723 3.7907 82.7354 3.81023ZM73.7612 5.8C74.0169 5.54233 74.3751 5.37488 75.0535 5.28279C75.7495 5.18884 76.6745 5.18698 77.9991 5.18698H80.7683C82.0929 5.18698 83.0169 5.18884 83.7148 5.28279C84.3923 5.37488 84.7505 5.54326 85.0062 5.8C85.2618 6.05767 85.428 6.4186 85.5194 7.10233C85.6126 7.80372 85.6145 8.73581 85.6145 10.0707V14.7219C85.6145 16.0567 85.6126 16.9879 85.5194 17.6912C85.428 18.374 85.2609 18.7349 85.0062 18.9926C84.7505 19.2502 84.3923 19.4177 83.7138 19.5098C83.0169 19.6037 82.0929 19.6056 80.7683 19.6056H77.9991C76.6745 19.6056 75.7495 19.6037 75.0526 19.5098C74.3751 19.4177 74.0169 19.2493 73.7612 18.9926C73.5055 18.7349 73.3394 18.374 73.248 17.6902C73.1548 16.9879 73.1529 16.0567 73.1529 14.7219V10.0707C73.1529 8.73581 73.1548 7.80372 73.248 7.1014C73.3394 6.4186 73.5065 6.05767 73.7612 5.8Z" fill="black"/>
</svg>
