<svg width="35" height="35" viewBox="0 0 35 35" fill="none" xmlns="http://www.w3.org/2000/svg">
<g clip-path="url(#clip0_1012_118286)">
<path d="M27.995 17.7638C27.7959 17.4983 27.4193 17.4445 27.1538 17.6437C27.0262 17.7393 26.9419 17.8818 26.9194 18.0396L26.5859 20.377C26.5779 20.4071 26.5674 20.4364 26.5547 20.4648C27.1675 19.651 27.6621 18.7546 28.0238 17.8023L27.995 17.7638Z" fill="white"/>
<path d="M25.9928 20.8961C25.9645 20.8961 25.9362 20.8943 25.9081 20.8907L22.3389 20.3806C22.0104 20.3335 21.7823 20.0291 21.8294 19.7005C21.8294 19.7005 21.8294 19.7005 21.8294 19.7004L22.1629 17.363C22.2093 17.0344 21.9807 16.7303 21.6521 16.6838C21.4949 16.6616 21.3352 16.7025 21.2081 16.7976L19.3189 18.2138C19.0534 18.4129 18.6768 18.3592 18.4777 18.0936L16.3145 15.2094C16.1154 14.9439 16.1692 14.5673 16.4347 14.3682L18.3233 12.952C18.5888 12.7528 18.6426 12.3762 18.4434 12.1107C18.3478 11.9832 18.2053 11.8988 18.0475 11.8764L15.7101 11.5423C15.3815 11.4956 15.153 11.1913 15.1998 10.8628C15.1998 10.8626 15.1999 10.8623 15.1999 10.8621L15.7101 7.29352C15.7568 6.96499 16.061 6.7365 16.3896 6.7833C16.3898 6.7833 16.39 6.78337 16.3903 6.78337L18.7277 7.11746C18.9681 7.15231 19.2057 7.03799 19.3285 6.82844C19.4561 6.62016 19.4418 6.35472 19.2925 6.16147L17.8774 4.27352C17.6783 4.00801 17.7321 3.63141 17.9976 3.43229L18.3383 3.17692C17.7864 3.15026 17.2332 3.16505 16.6835 3.22139C10.7486 3.89902 6.48693 9.2595 7.16457 15.1943C7.53373 18.4274 9.33891 21.3224 12.0796 23.0767C13.0802 23.6971 13.6947 24.7854 13.7091 25.9627V28.3908C13.7091 29.3864 14.5162 30.1935 15.5118 30.1935H20.3188C21.3143 30.1935 22.1214 29.3864 22.1214 28.3908V26.0126C22.1366 24.8077 22.7638 23.6933 23.7858 23.0551C24.7331 22.4405 25.5791 21.6824 26.2933 20.8078C26.2027 20.8633 26.099 20.8938 25.9928 20.8961ZM18.5161 28.3908H17.3144V26.5882H18.5161V28.3908ZM17.3144 25.3865C17.314 23.7978 16.3344 22.3737 14.8508 21.8053C10.5238 20.1133 8.38772 15.2342 10.0796 10.9072C10.7347 9.23171 11.9098 7.81042 13.4321 6.85187L14.0697 7.86855C10.6991 9.98942 9.68614 14.441 11.807 17.8115C12.6287 19.1174 13.8476 20.1253 15.2846 20.687C17.2321 21.4319 18.5176 23.3014 18.5161 25.3865H17.3144Z" fill="white"/>
<path d="M15.5117 33.1953V33.7962C15.5117 34.4599 16.0497 34.9979 16.7135 34.9979H19.117C19.7807 34.9979 20.3187 34.4599 20.3187 33.7962V33.1953H15.5117Z" fill="white"/>
<path d="M11.7526 23.586C11.3966 23.3552 11.0538 23.1046 10.7258 22.8355C9.81866 24.6013 7.6519 25.2974 5.88608 24.3904C4.68418 23.773 3.93008 22.5337 3.93406 21.1825C3.93684 19.3658 5.28979 17.8345 7.09226 17.6079C6.87174 16.9447 6.71243 16.2626 6.61637 15.5703L6.51122 16.0702C6.37467 16.7197 5.73736 17.1355 5.08789 16.999C4.93234 16.9663 4.78483 16.9031 4.65391 16.8129L3.40409 15.9549L2.3093 17.0473L3.16975 18.2983C3.54635 18.8448 3.4086 19.5932 2.8621 19.9698C2.73104 20.0601 2.58337 20.1234 2.42767 20.1562L0.929688 20.4717V21.8993L2.42767 22.2148C3.07714 22.3516 3.4928 22.9889 3.35602 23.6384C3.3232 23.7943 3.25966 23.9422 3.16915 24.0733L2.3093 25.3177L3.40409 26.4101L4.65271 25.5496C5.19921 25.173 5.9476 25.3108 6.32419 25.8573C6.41447 25.9884 6.47787 26.136 6.51062 26.2917L6.82547 27.7921H8.25375L8.56861 26.2941C8.70531 25.6447 9.34261 25.2289 9.99209 25.3656C10.1478 25.3984 10.2955 25.4618 10.4265 25.552L11.6745 26.4101L12.9634 25.1212C12.7473 24.4861 12.32 23.9442 11.7526 23.586Z" fill="white"/>
<path d="M20.3187 30.7969H15.5117V31.9986H20.3187V30.7969Z" fill="white"/>
<path d="M32.918 10.3563C31.9325 10.2154 31.2478 9.30213 31.3887 8.31662C31.4564 7.84335 31.7093 7.41636 32.0918 7.12959L33.4997 6.07325L32.0576 4.15045L30.6497 5.20619C29.8534 5.80376 28.7234 5.64257 28.126 4.84634C27.8394 4.46448 27.716 3.98446 27.7829 3.51172L28.0317 1.76918L25.6528 1.42969L25.4041 3.17223C25.2631 4.15774 24.3499 4.84243 23.3644 4.70153C22.8911 4.63385 22.4641 4.38096 22.1774 3.99843L21.121 2.58817L19.1982 4.03027L20.254 5.43812C20.8514 6.23451 20.6901 7.36438 19.8937 7.96188C19.5111 8.24894 19.0301 8.37212 18.5565 8.3043L16.814 8.05554L16.4727 10.435L18.2152 10.6838C19.2007 10.8247 19.8854 11.7379 19.7445 12.7234C19.6768 13.1967 19.4239 13.6237 19.0414 13.9105L17.6341 14.9668L19.0762 16.8896L20.4841 15.8339C21.2805 15.2364 22.4104 15.3977 23.0079 16.1941C23.2949 16.5768 23.4181 17.0578 23.3503 17.5313L23.1015 19.2739L25.4858 19.6152L25.7345 17.8726C25.8755 16.8871 26.7887 16.2024 27.7742 16.3433C28.2475 16.411 28.6745 16.6639 28.9612 17.0464L30.0176 18.4537L31.9404 17.0116L30.881 15.6013C30.2838 14.8048 30.4454 13.6749 31.2419 13.0777C31.6238 12.7914 32.1036 12.6682 32.5761 12.7352L34.3186 12.9839L34.6581 10.6051L32.918 10.3563ZM25.5675 14.1256C23.5764 14.1256 21.9623 12.5115 21.9623 10.5203C21.9623 8.52918 23.5764 6.91508 25.5675 6.91508C27.5587 6.91508 29.1728 8.52918 29.1728 10.5203C29.1704 12.5105 27.5577 14.1232 25.5675 14.1256Z" fill="white"/>
<path d="M33.5382 22.3828H29.332V23.5846H33.5382V22.3828Z" fill="white"/>
<path d="M29.113 25.522L28.3438 26.4453L31.9493 29.4492L32.7185 28.5259L29.113 25.522Z" fill="white"/>
<path d="M26.9283 27.1875H25.7266V31.3936H26.9283V27.1875Z" fill="white"/>
<path d="M5.15042 9.18127L0.34375 10.3828L0.635029 11.548L5.4417 10.3465L5.15042 9.18127Z" fill="white"/>
<path d="M2.03795 3.26481L1.33984 4.24219L5.54564 7.24625L6.24375 6.26888L2.03795 3.26481Z" fill="white"/>
<path d="M7.65254 -0.00079858L6.48828 0.296875L7.71723 5.1035L8.88148 4.80583L7.65254 -0.00079858Z" fill="white"/>
</g>
<defs>
<clipPath id="clip0_1012_118286">
<rect width="35" height="35" fill="white"/>
</clipPath>
</defs>
</svg>
