<svg width="35" height="35" viewBox="0 0 35 35" fill="none" xmlns="http://www.w3.org/2000/svg">
<path d="M31.9291 14.5327L18.2786 0.880135C17.4735 0.0770472 16.1712 0.0865492 15.3766 0.879109C14.5776 1.68021 14.5776 2.98096 15.3766 3.78104L29.0292 17.4326C29.829 18.2324 31.1293 18.2324 31.9291 17.4326C32.7311 16.6306 32.7311 15.3345 31.9291 14.5327Z" fill="white"/>
<path d="M14.3628 5.66406L14.26 6.17908C13.5363 9.79927 11.7774 13.2385 9.39844 16.026L16.8255 23.4531C19.6126 21.0746 23.0045 19.2684 26.6248 18.5438L27.1408 18.4411L14.3628 5.66406Z" fill="white"/>
<path d="M8.03589 17.5703L2.95999 22.6452C1.76062 23.8446 1.75563 25.7917 2.95999 26.9961L5.85994 29.896C7.05931 31.0954 9.00646 31.1003 10.2108 29.896L15.2862 24.8206L8.03589 17.5703ZM8.76091 25.5462C8.36039 25.9467 7.71146 25.9467 7.31094 25.5462C6.91042 25.1456 6.91042 24.4967 7.31094 24.0962L8.76091 22.6462C9.16143 22.2457 9.81037 22.2457 10.2109 22.6462C10.6114 23.0467 10.6114 23.6957 10.2109 24.0962L8.76091 25.5462Z" fill="white"/>
<path d="M19.57 30.4377L20.9649 29.0428C22.1693 27.8386 22.1654 25.8915 20.965 24.6931L19.9289 23.6562C19.3563 24.0409 18.8094 24.4589 18.2777 24.9048L19.515 26.144C19.9146 26.5415 19.9174 27.1885 19.515 27.5929L18.0971 29.0108L16.0134 26.992L13.1133 29.8921L17.7656 34.4002C18.5596 35.1962 19.8631 35.2007 20.6645 34.3992C21.4646 33.5991 21.4646 32.2983 20.6645 31.4982L19.57 30.4377Z" fill="white"/>
<path d="M23.7129 0C23.1461 0 22.6875 0.458624 22.6875 1.02539V3.07618C22.6875 3.64295 23.1461 4.10157 23.7129 4.10157C24.2797 4.10157 24.7383 3.64295 24.7383 3.07618V1.02539C24.7383 0.458624 24.2797 0 23.7129 0Z" fill="white"/>
<path d="M31.916 8.20312H29.8652C29.2985 8.20312 28.8398 8.66175 28.8398 9.22852C28.8398 9.79529 29.2985 10.2539 29.8652 10.2539H31.916C32.4828 10.2539 32.9414 9.79529 32.9414 9.22852C32.9414 8.66175 32.4828 8.20312 31.916 8.20312Z" fill="white"/>
<path d="M30.5902 2.34726C30.1897 1.94675 29.5408 1.94675 29.1402 2.34726L27.0895 4.39805C26.6889 4.79857 26.6889 5.4475 27.0895 5.84802C27.49 6.24854 28.1389 6.24861 28.5394 5.84802L30.5902 3.79724C30.9907 3.39672 30.9907 2.74778 30.5902 2.34726Z" fill="white"/>
</svg>
