<svg width="36" height="35" viewBox="0 0 36 35" fill="none" xmlns="http://www.w3.org/2000/svg">
<g clip-path="url(#clip0_1012_118326)">
<path d="M10.205 17.0175C10.205 13.0663 13.1596 9.79269 16.9753 9.28888V0L7.94947 3.39773V4.16883C7.94947 6.40131 6.45172 8.39385 4.30715 9.01421L3.56641 9.22852V16.6223C3.56641 19.4277 4.31672 22.1646 5.79649 24.7571C6.96359 26.8019 8.58412 28.7582 10.6131 30.5717C13.2364 32.9165 15.8367 34.3986 16.9753 34.9943V24.746C13.1596 24.2423 10.205 20.9686 10.205 17.0175Z" fill="white"/>
<path d="M23.7468 17.0179C23.7468 13.8504 21.1698 11.2734 18.0023 11.2734C14.8348 11.2734 12.2578 13.8504 12.2578 17.0179C12.2578 20.1855 14.8348 22.7625 18.0023 22.7625C21.1698 22.7625 23.7468 20.1855 23.7468 17.0179ZM14.2285 17.4751L15.6791 16.0244L16.9677 17.313L20.1887 14.0921L21.6393 15.5428L16.9677 20.2144L14.2285 17.4751Z" fill="white"/>
<path d="M31.6955 9.01428C29.5509 8.39385 28.0532 6.40138 28.0532 4.1689V3.3978L19.0273 0V9.28895C22.843 9.79269 25.7977 13.0664 25.7977 17.0175C25.7977 20.9686 22.843 24.2424 19.0273 24.7461V35C20.171 34.4128 22.7678 32.9555 25.3873 30.6285C27.4176 28.8248 29.0391 26.8697 30.2068 24.8174C31.6862 22.2176 32.4362 19.4603 32.4362 16.6223V9.22858L31.6955 9.01428Z" fill="white"/>
</g>
<defs>
<clipPath id="clip0_1012_118326">
<rect width="35" height="35" fill="white" transform="translate(0.5)"/>
</clipPath>
</defs>
</svg>
