<svg width="35" height="35" viewBox="0 0 35 35" fill="none" xmlns="http://www.w3.org/2000/svg">
<g clip-path="url(#clip0_1012_118256)">
<path d="M31.8182 0H3.18185C1.42697 0 0 1.42697 0 3.18185V7.95458C0 9.70938 1.42697 11.1364 3.18185 11.1364H31.8182C33.573 11.1364 35.0001 9.70945 35.0001 7.95458V3.18185C35 1.42697 33.573 0 31.8182 0ZM6.36362 7.1591C6.36362 7.59878 6.00782 7.95458 5.56814 7.95458C5.12845 7.95458 4.77273 7.59878 4.77273 7.1591V3.97725C4.77273 3.53756 5.12852 3.18177 5.56821 3.18177C6.0079 3.18177 6.36369 3.53756 6.36369 3.97725V7.1591H6.36362ZM9.54546 7.1591C9.54546 7.59878 9.18967 7.95458 8.74998 7.95458C8.31029 7.95458 7.9545 7.59878 7.9545 7.1591V3.97725C7.9545 3.53756 8.31029 3.18177 8.74998 3.18177C9.18967 3.18177 9.54546 3.53756 9.54546 3.97725V7.1591ZM12.7273 7.1591C12.7273 7.59878 12.3715 7.95458 11.9318 7.95458C11.4921 7.95458 11.1363 7.59878 11.1363 7.1591V3.97725C11.1363 3.53756 11.4921 3.18177 11.9318 3.18177C12.3715 3.18177 12.7273 3.53756 12.7273 3.97725V7.1591ZM23.8637 7.1591C22.9867 7.1591 22.2728 6.4452 22.2728 5.56821C22.2728 4.69122 22.9867 3.97725 23.8637 3.97725C24.7406 3.97725 25.4545 4.69115 25.4545 5.56814C25.4545 6.44513 24.7406 7.1591 23.8637 7.1591ZM28.6364 7.1591C27.7594 7.1591 27.0455 6.4452 27.0455 5.56821C27.0455 4.69122 27.7594 3.97725 28.6364 3.97725C29.5134 3.97725 30.2273 4.69115 30.2273 5.56814C30.2273 6.44513 29.5134 7.1591 28.6364 7.1591Z" fill="white"/>
<path d="M31.8182 11.9297H3.18185C1.42697 11.9297 0 13.3567 0 15.1115V19.8843C0 21.6391 1.42697 23.0661 3.18185 23.0661H31.8182C33.573 23.0661 35.0001 21.6391 35.0001 19.8843V15.1115C35 13.3567 33.573 11.9297 31.8182 11.9297ZM6.36362 19.0888C6.36362 19.5285 6.00782 19.8843 5.56814 19.8843C5.12845 19.8843 4.77273 19.5285 4.77273 19.0888V15.9069C4.77273 15.4672 5.12852 15.1115 5.56821 15.1115C6.0079 15.1115 6.36369 15.4672 6.36369 15.9069V19.0888H6.36362ZM9.54546 19.0888C9.54546 19.5285 9.18967 19.8843 8.74998 19.8843C8.31029 19.8843 7.9545 19.5285 7.9545 19.0888V15.9069C7.9545 15.4672 8.31029 15.1115 8.74998 15.1115C9.18967 15.1115 9.54546 15.4672 9.54546 15.9069V19.0888ZM12.7273 19.0888C12.7273 19.5285 12.3715 19.8843 11.9318 19.8843C11.4921 19.8843 11.1363 19.5285 11.1363 19.0888V15.9069C11.1363 15.4672 11.4921 15.1115 11.9318 15.1115C12.3715 15.1115 12.7273 15.4672 12.7273 15.9069V19.0888ZM23.8637 19.0888C22.9867 19.0888 22.2728 18.3749 22.2728 17.4979C22.2728 16.6209 22.9867 15.907 23.8637 15.907C24.7406 15.907 25.4545 16.6209 25.4545 17.4979C25.4545 18.3749 24.7406 19.0888 23.8637 19.0888ZM28.6364 19.0888C27.7594 19.0888 27.0455 18.3749 27.0455 17.4979C27.0455 16.6209 27.7594 15.907 28.6364 15.907C29.5134 15.907 30.2273 16.6209 30.2273 17.4979C30.2273 18.3749 29.5134 19.0888 28.6364 19.0888Z" fill="white"/>
<path d="M31.8182 23.8672H3.18185C1.42697 23.8672 0 25.2942 0 27.049V31.8218C0 33.5766 1.42697 35.0036 3.18185 35.0036H31.8182C33.573 35.0036 35.0001 33.5766 35.0001 31.8218V27.049C35 25.2942 33.573 23.8672 31.8182 23.8672ZM6.36362 31.0263C6.36362 31.466 6.00782 31.8218 5.56814 31.8218C5.12845 31.8218 4.77273 31.466 4.77273 31.0263V27.8444C4.77273 27.4048 5.12852 27.049 5.56821 27.049C6.0079 27.049 6.36369 27.4048 6.36369 27.8444V31.0263H6.36362ZM9.54546 31.0263C9.54546 31.466 9.18967 31.8218 8.74998 31.8218C8.31029 31.8218 7.9545 31.466 7.9545 31.0263V27.8444C7.9545 27.4048 8.31029 27.049 8.74998 27.049C9.18967 27.049 9.54546 27.4048 9.54546 27.8444V31.0263ZM12.7273 31.0263C12.7273 31.466 12.3715 31.8218 11.9318 31.8218C11.4921 31.8218 11.1363 31.466 11.1363 31.0263V27.8444C11.1363 27.4048 11.4921 27.049 11.9318 27.049C12.3715 27.049 12.7273 27.4048 12.7273 27.8444V31.0263ZM23.8637 31.0263C22.9867 31.0263 22.2728 30.3124 22.2728 29.4354C22.2728 28.5584 22.9867 27.8445 23.8637 27.8445C24.7406 27.8445 25.4545 28.5584 25.4545 29.4354C25.4545 30.3124 24.7406 31.0263 23.8637 31.0263ZM28.6364 31.0263C27.7594 31.0263 27.0455 30.3124 27.0455 29.4354C27.0455 28.5584 27.7594 27.8445 28.6364 27.8445C29.5134 27.8445 30.2273 28.5584 30.2273 29.4354C30.2273 30.3124 29.5134 31.0263 28.6364 31.0263Z" fill="white"/>
</g>
<defs>
<clipPath id="clip0_1012_118256">
<rect width="35" height="35" fill="white"/>
</clipPath>
</defs>
</svg>
